<svg version="1.1" xmlns="http://www.w3.org/2000/svg" xmlns:xlink="http://www.w3.org/1999/xlink" width="118.50374" height="125.5787" viewBox="0,0,118.50374,125.5787"><g transform="translate(-181.35093,-117.39799)"><g data-paper-data="{&quot;isPaintingLayer&quot;:true}" fill-rule="evenodd" stroke="none" stroke-width="1" stroke-linecap="butt" stroke-linejoin="miter" stroke-miterlimit="10" stroke-dasharray="" stroke-dashoffset="0" style="mix-blend-mode: normal"><g><path d="M260.6041,229.2251c-0.1868,-0.7009 -0.3371,-1.4059 -0.5524,-2.0582c-0.2152,-0.6522 -2.4368,-6.4134 -2.7211,-7.094c-2.4369,-4.4323 6.0921,-8.9618 6.9044,-1.1871c0.4346,1.4869 0.3493,9.6019 0.0609,10.6107c-0.3249,-0.1823 -3.5903,-0.2714 -3.6918,-0.2714z" fill="#281446"/><path d="M265.2179,228.9293c-0.4183,3.6949 -2.4328,7.0333 -4.9347,9.7235h-1.129c1.3646,-3.2979 0.8488,-6.2716 0.6376,-9.7235c1.7862,-0.4023 3.6399,-0.4023 5.4261,0z" fill="#f01446"/><path d="M259.475,229.0144c-0.0284,-0.5024 -0.065,-1.0939 -0.0893,-1.499h6.3074c-0.0244,0.4375 -0.0691,1.0007 -0.1259,1.499z" fill="#f04650"/><path d="M264.6655,239.9371h-0.6132c0,0 0,1.2154 0,1.6206c0,0.162 0,0.32 0,0.5429l-0.5727,0.0648c-0.2112,-0.7414 0.0041,-1.4585 -0.134,-2.1797h-0.8367c-0.4264,0.474 -0.2559,1.0291 -0.2315,1.5639c0.0081,0.239 0.0934,0.4902 -0.2356,0.6887l-0.4061,-0.1661c-0.0237,-0.3669 -0.0237,-0.735 0,-1.102c0.1259,-0.9318 -0.0041,-1.106 -1.0479,-1.1425c-0.0203,0.3444 -0.0406,0.7009 -0.0203,1.0372c0.0203,0.3363 0.0975,0.6685 0.1544,1.0412l-0.4062,0.2512c-0.3855,-0.1832 -0.5629,-0.6329 -0.4061,-1.0291c0.0691,-0.4077 -0.0163,-0.8265 -0.2396,-1.1749c-0.3391,0.0702 -0.6709,0.172 -0.991,0.3039c0.0406,0.636 0.1015,1.2154 0.1015,1.7948c0.0081,0.397 -0.1503,0.4861 -0.6295,0.4861c-0.065,-0.1215 -0.1584,-0.4051 -0.13,-0.4051l0.1828,-1.888c-0.3574,-0.5753 -0.4305,-0.6644 0.0934,-1.2397c0.1388,-0.1753 0.2473,-0.3725 0.3209,-0.5834c0.1056,-0.2553 0.203,-0.5186 0.3005,-0.782h2.8227c-0.4143,0.7009 -0.9544,1.5274 -0.9544,1.5639c1.1575,0.2836 3.8096,0 3.8096,0z" fill="#281446"/><path d="M263.20747,233.15904h-3.49689l-0.00812,-1.15466h3.50502z" fill="#281446"/><path d="M263.2562,236.3759c-2.6968,0.3565 -2.3597,-2.3661 -1.982,-3.6463c0.4915,-1.6409 0.6336,-3.4316 3.2004,-3.4681c1.32,0 1.5921,1.9853 1.1129,3.7476c-0.4508,1.6773 -1.5921,3.1034 -2.3313,3.3668z" fill="#be0a3c"/></g><g><path d="M222.8165,214.0767c4.8047,-1.029 3.6147,3.3506 3.6147,3.3506c-0.329,1.3045 -3.0136,11.1414 -3.0623,11.6641c0,0.0243 0,0.0527 0,0.077h-4.8372c-0.3562,-1.5335 -0.5428,-3.1014 -0.5564,-4.6754c0.0041,-0.1094 0.0284,-0.2066 0.0284,-0.3079c0,0 0.0081,-9.0793 4.8128,-10.1084z" fill="#281446"/><path d="M225.5174,240.0019l-0.2721,0.0649c-1.3281,-0.7212 -3.3954,-2.4471 -5.0525,-5.0198c-1.2103,-1.892 -2.1972,-4.6511 -2.5384,-5.672c2.8593,-0.628 4.0737,-0.8468 6.8436,0c-0.2275,2.9211 -0.3981,6.7051 0.6945,9.5411c-0.0042,0.3864 0.1091,0.765 0.3249,1.0858z" fill="#f01446"/><path d="M221.40314,233.15498v-1.15061h3.50502v1.15061z" fill="#281446"/><path d="M217.0533,229.5532c-0.2111,-0.636 -0.2761,-1.7583 -0.4061,-2.2931l8.7443,0.1864c-0.0041,0.1175 -0.1219,1.1952 -0.2031,2.1067z" fill="#f04650"/><path d="M226.7155,240.7069v0.0527c0,0.3484 0,1.0979 0,1.4463c0.0081,0.4214 -0.0487,0.4943 -0.5199,0.6239c-0.0559,-0.0221 -0.1091,-0.0506 -0.1584,-0.085c-0.0611,-0.0581 -0.1181,-0.1204 -0.1705,-0.1864c0.0284,-0.2836 0.2315,-1.3046 0.268,-1.6206c-0.2802,-0.0648 -0.6904,0.0365 -1.0113,-0.0405c-0.2924,0.6158 0,1.4383 -0.1584,2.0257c-0.3452,0.1418 -0.5158,-0.0121 -0.6539,-0.2876l0.1097,-1.7097h-1.1372c-0.1898,0.2934 -0.2247,0.6607 -0.0934,0.9845c0.1015,0.397 0.0528,0.474 -0.3534,0.713l-0.2965,-0.1945c-0.3086,-0.5428 0.3046,-1.0169 -0.1015,-1.5233l-1.1494,0.1215c-0.1234,0.3268 -0.1404,0.684 -0.0487,1.021c0.0528,0.2917 0.1015,0.5915 -0.3046,0.7333l-0.3777,-0.1539c-0.2031,-0.5227 0.3696,-1.0332 -0.0366,-1.6206l-0.7148,-0.0932c-0.0203,-0.1215 -0.0609,-0.6037 -0.0609,-0.6037l4.2645,-0.1296c-0.1966,-0.4042 -0.4407,-0.7836 -0.727,-1.1304l2.5749,-0.0607c0.0163,0.0364 0.2234,0.6198 0.2234,0.6604c0.1137,0.2309 0.6864,1.0452 0.6336,1.0574z" fill="#281446"/><path d="M218.9988,236.4286c-1.3037,-1.4586 -1.8845,-4.7159 -0.3696,-6.0772v0.0324c2.5587,-0.8954 2.9689,1.3572 3.6553,3.5855c0.8326,2.6942 -1.3647,4.5741 -3.2857,2.4593z" fill="#be0a3c"/></g><g><path d="M281.0778,223.3019c-0.0853,0.081 -2.0876,5.1858 -6.5552,3.4923c-2.9526,-1.0979 -4.5772,-1.9406 -6.4333,-7.4628c-0.0406,-0.1255 -1.2184,-3.7719 -1.2184,-3.7719c0,0 -1.8155,-4.5335 -0.7433,-6.6281c1.0723,-2.0946 2.2663,-0.79 2.2663,-0.79c0.1097,-0.0406 1.913,13.7141 6.608,15.521c2.1241,0.8184 2.778,-1.3977 3.4116,-2.5078z" fill="#281446"/><path d="M289.3509,203.6605c-0.0975,1.6854 -3.6675,4.9184 -3.0379,5.992c1.1412,0.158 4.963,-6.9887 7.3999,-4.6429c1.5474,1.4666 -3.6228,7.5964 -2.6968,8.1029c0.926,0.5064 4.7194,-6.3324 6.283,-4.1041c1.0926,1.5557 -2.1281,5.0683 -2.9404,6.1987c-1.6095,2.157 -3.3341,4.2263 -5.1662,6.1987c-1.2143,1.3613 -2.6318,3.0426 -3.8746,4.3431l-10.3607,-5.7328c0,0 5.4748,-11.0361 9.2763,-15.7358c1.2306,-1.5193 5.3489,-4.7442 5.1174,-0.6198z" fill="#f04650"/><path d="M280.4483,210.6735c3.1922,1.021 6.2789,2.3579 6.0352,6.3122c-0.1543,2.6537 -2.0307,5.2142 -3.8096,7.1102l-6.88,-4.4565c-0.3778,-2.2202 -4.0087,-15.8858 0.4589,-15.7561c3.0339,0.0891 4.3295,4.2175 4.1955,6.7902z" fill="#f01446"/><path d="M275.3755,218.4685c2.4694,1.2154 4.6016,2.8684 6.941,4.3148c1.7302,1.0696 5.4423,2.4673 2.6318,4.647c-2.6318,-0.6563 -5.0077,-2.0662 -7.2374,-3.5734c-2.0308,-1.3734 -5.5845,-3.0507 -2.3354,-5.3884z" fill="#be0a3c"/></g><g><path d="M199.5039,221.1546c0.6336,1.1101 1.2875,3.3262 3.4116,2.5078c4.695,-1.8069 7.4243,-10.5337 7.5218,-10.4973c0,0 1.4743,-4.0109 3.1273,-1.9609c1.653,2.0501 -0.4062,5.3439 -0.4062,5.3439c0,0 -2.5506,3.776 -4.6138,6.4134c-1.4107,1.649 -3.173,2.9626 -5.158,3.8449c-4.4676,1.6935 -6.4698,-3.4114 -6.5551,-3.4924z" fill="#281446"/><path d="M193.5864,225.4653c-4.1955,-2.362 -9.9708,-11.8667 -9.9708,-11.8667c0,0 -4.3336,-6.3891 -1.0113,-6.5511c1.8804,-0.0932 4.0939,2.998 5.2798,4.1162c0.3656,0.0203 0.5402,-0.1215 0.5849,-0.5267c-1.6246,-1.969 -2.9567,-3.7759 -2.843,-6.4256c2.4774,-1.8109 4.2198,2.7388 5.9946,3.0832c1.7749,0.3444 -0.6051,-1.811 -0.467,-1.5963c-0.6044,-0.8896 -1.0471,-1.8784 -1.3078,-2.9211c-0.329,-1.9649 0.3899,-3.0548 2.4937,-2.1958c2.1038,0.8589 3.6025,3.5085 4.8737,5.3154c0,0.0365 4.6057,9.3548 7.3106,13.7101z" fill="#f04650"/><path d="M199.6826,209.6404c-0.7798,-2.0257 -0.1422,-6.3 2.3069,-6.3527c2.9364,-0.0608 2.6399,4.3148 2.579,6.4823c-0.1056,3.6463 0.3452,8.82 -3.0217,10.9389c-1.3159,0.8346 -3.1314,2.6011 -4.6341,2.9333c-1.6774,0.3687 -2.3881,-1.5396 -3.1679,-2.994c-1.2509,-2.3377 -1.4784,-4.643 -0.3656,-7.0941c1.4297,-3.1358 3.432,-2.909 6.3034,-3.9137z" fill="#f01446"/><path d="M204.2314,217.561c0.9098,1.5395 1.8804,2.4308 0.5686,4.1162c-1.056,1.3856 -7.6842,5.04 -9.2966,5.5222c-2.3516,0.6968 -2.843,-0.4335 -3.7203,-2.4633c0.2359,-0.1302 0.4625,-0.2764 0.6783,-0.4376c1.9495,-1.2883 3.9341,-2.5254 5.954,-3.7111c1.6733,-0.9724 3.9477,-2.759 5.816,-3.0264z" fill="#be0a3c"/></g><g><path d="M277.983,147.2076c-0.987,5.5545 -2.6521,10.7039 -4.3133,16.068c-2.4125,7.795 -3.5862,16.2018 -5.3367,24.1669c-1.2184,5.5154 -2.4369,11.0307 -3.6553,16.5461c-0.528,2.3863 -0.7189,5.3601 -1.6977,7.6167l-49.7444,-2.836c-0.7351,-2.0176 -2.2907,-16.6474 -3.3263,-21.2701c-1.9414,-8.585 -3.3913,-17.2632 -5.2799,-25.8806c-1.6692,-7.6086 -4.3538,-16.2382 -2.8064,-24.094c1.4133,-7.1184 9.7068,-14.5933 16.0345,-7.7423c2.2297,2.4147 3.5984,6.4945 4.6179,9.5776c1.0559,3.2007 5.4179,19.1269 7.3471,19.1269c2.9527,0.0243 1.8479,-5.6274 1.6246,-7.0657c-1.0519,-6.6484 -2.4775,-13.6858 -2.2704,-20.4234c0.1219,-3.9258 0.4549,-8.9942 3.964,-11.425c3.2735,-2.2688 8.1025,-2.8401 11.7781,-1.3451c7.5746,3.0669 6.7623,12.9646 7.2335,19.8521c0.2436,3.5409 -0.5808,17.409 1.9901,18.4462c3.1273,-1.9366 4.565,-12.8147 4.9305,-15.1564c0.7798,-4.9833 1.3444,-10.2218 3.0664,-14.9904c1.9414,-5.3601 5.5682,-8.6012 11.3152,-6.1704c5.5073,2.3175 5.9134,8.111 6.3886,13.2888c0.3899,4.2338 -1.1616,9.533 -1.8601,13.7101z" fill="#f04650"/><path d="M294.4765,177.7069c-3.2776,4.7321 -6.6974,9.4196 -10.7182,13.5521c-6.482,6.6565 -13.2524,12.8309 -20.1284,19.0863l-33.1251,-0.2268c-0.3777,-2.5646 0.459,-6.1623 0.5767,-8.7998c0.2356,-5.2142 0.5443,-10.5702 1.9414,-15.6183c2.7537,-9.9423 10.2632,-16.9229 20.7539,-17.8831c4.8534,-0.4335 10.1658,1.0655 14.8852,-0.0284c4.2685,-0.9885 8.7036,-5.1453 11.3233,-8.5323c4.8899,-6.3284 16.7859,-12.284 19.4542,-0.632c-0.0812,0.1175 0.2193,1.5881 0.3006,2.2404c0.7229,5.6801 -2.0876,12.2475 -5.2636,16.8419z" fill="#f01446"/></g><g><path d="M268.8326,223.9582c0,0 -22.4435,0.8103 -34.4126,0.7576v-18.4179c7.3594,0.0284 35.0055,0.3809 35.0055,0.3809z" fill="#be0a3c"/><path d="M222.8653,225.7368c-3.5985,-0.1297 -7.6558,0.1337 -11.1243,-0.9116c-0.2802,-2.6213 -0.6905,-19.6009 -0.6905,-19.6009c0,0 19.9336,0.5064 20.1041,0.2512c5.6414,0 16.1645,0.0972 17.2774,7.483c0.5158,3.4316 -0.7067,7.8558 -3.3385,10.1854c-2.8755,2.5443 -6.8273,2.4956 -10.4257,2.836c-0.0203,0.004 -7.8792,-0.1013 -11.8025,-0.2431z" fill="#281446"/><path d="M233.3193,223.0142c-3.0542,-0.1418 -6.0921,-0.1175 -9.1463,-0.2147c-2.7984,-0.0932 -11.6645,-0.2755 -14.3654,-1.0129c-0.2193,-1.8434 -0.2073,-13.5359 -0.2073,-13.5359c0,0 20.8882,0.4619 21.0222,0.2836c4.3905,0 12.5905,0.0689 13.4434,5.2669c0.4062,2.4309 -0.5523,5.5343 -2.5993,7.1711c-2.2378,1.7907 -5.3124,1.7543 -8.1229,1.9973z" fill="#f01446"/></g></g></g></svg>