<svg version="1.1" xmlns="http://www.w3.org/2000/svg" xmlns:xlink="http://www.w3.org/1999/xlink" width="218.22206" height="126.16195" viewBox="0,0,218.22206,126.16195"><g transform="translate(-133.26794,-113.39997)"><g data-paper-data="{&quot;isPaintingLayer&quot;:true}" fill-rule="nonzero" stroke-miterlimit="10" stroke-dasharray="" stroke-dashoffset="0" style="mix-blend-mode: normal"><g data-paper-data="{&quot;index&quot;:null}" fill="#fc9fe4" stroke="#ea3681" stroke-width="0.90185" stroke-linecap="butt" stroke-linejoin="miter"><path d="M313.01657,148.1075c0,0 -0.5011,-5.0991 -0.8264,-6.9829c-0.326,-1.8839 6.7385,-0.2258 7.1894,2.7629l0.6266,4.2447z"/><path d="M279.09777,148.1322c0,0 -0.501,-5.0984 -0.827,-6.9823c-0.3254,-1.8838 6.7638,-0.1255 7.19,2.763c0.4256,2.8886 0.6006,4.2193 0.6006,4.2193z"/><path d="M244.72677,148.1322c0,0 -0.5011,-5.0984 -0.8264,-6.9823c-0.3253,-1.8838 6.7385,-0.1255 7.1901,2.763c0.4509,2.8886 0.6259,4.2193 0.6259,4.2193z"/><path d="M210.90747,148.1322c0,0 -0.501,-5.0984 -0.8263,-6.9823c-0.3253,-1.8838 6.7638,-0.1255 7.19,2.763c0.4256,2.8886 0.6013,4.2193 0.6013,4.2193z"/><path d="M177.88997,148.1075c0,0 -0.5011,-5.0991 -0.8264,-6.9829c-0.326,-1.8839 6.7391,-0.2258 7.1894,2.7629l0.6266,4.2447z"/></g><g data-paper-data="{&quot;index&quot;:null}" stroke="#5e154d" stroke-linecap="butt" stroke-linejoin="miter"><path d="M335.85167,134.3309h-192.7446" fill="none" stroke-width="2.40492"/><path d="M337.68007,118.8078h-192.7439" fill="none" stroke-width="3.60738"/><path d="M306.76747,148.1205h-3.4825v-25.2183h3.4825z" fill="#5e154d" stroke-width="0.83504"/><path d="M273.14867,148.1205h-3.4825v-29.3127h3.4825z" fill="#5e154d" stroke-width="0.83504"/><path d="M239.20377,148.1205h-3.4824v-29.3127h3.4824z" fill="#5e154d" stroke-width="0.83504"/><path d="M205.23427,148.1205h-3.4818v-29.3127h3.4818z" fill="#5e154d" stroke-width="0.83504"/><path d="M171.26477,148.1205h-3.4825v-29.3127h3.4825z" fill="#5e154d" stroke-width="0.83504"/></g><path d="M138.20337,114.0012h10.5216v8.967h-5.0103v25.1181h191.3417c1.9039,0 2.781,-0.8037 2.5051,-3.1144c-0.2759,-2.3107 -2.9561,-18.8386 -3.3569,-20.6469c-0.4008,-1.8091 -0.2004,-1.4069 -2.2299,-1.4069h-30.0608v-8.9169h38.1527c2.3796,0 3.2567,0.8537 3.733,2.8131c0.4756,1.9593 5.7865,33.2313 6.2875,36.5221c0.5131,3.3248 0.781,6.683 0.8017,10.0472v60.5346c-0.0134,2.3942 -1.946,4.3315 -4.3336,4.3449h-51.0799c-0.0334,-3.8345 -1.6687,-7.4787 -4.5092,-10.0473c-5.1465,-4.6501 -12.9652,-4.6501 -18.1117,0c-1.0702,0.9754 -1.9827,2.1104 -2.7056,3.3663c-1.1877,2.0522 -1.8103,4.3836 -1.8037,6.7565h-77.0584c0.004,-2.3689 -0.6092,-4.6977 -1.7783,-6.7565c-0.7315,-1.2566 -1.6527,-2.3916 -2.7309,-3.3663c-5.1465,-4.6501 -12.9652,-4.6501 -18.1117,0c-1.0629,0.9821 -1.9747,2.1164 -2.7056,3.3663c-1.177,2.0568 -1.7983,4.3856 -1.8037,6.7565h-25.9531c-2.3875,-0.0134 -4.3202,-1.9514 -4.3342,-4.3456v-105.4959c-0.0334,-1.1765 0.4075,-2.3168 1.2232,-3.1625c0.8156,-0.8464 1.9373,-1.3274 3.111,-1.3334z" data-paper-data="{&quot;index&quot;:null}" fill="#ea3681" stroke="none" stroke-width="0.66803" stroke-linecap="butt" stroke-linejoin="miter"/><g data-paper-data="{&quot;index&quot;:null}" fill="#5e154d" stroke="#5e154d" stroke-width="1.20246" stroke-linecap="butt" stroke-linejoin="miter"><path d="M268.34507,228.1883h-77.0584c0.004,-2.3695 -0.6092,-4.6983 -1.7783,-6.7572h80.6404c-1.1877,2.0522 -1.8103,4.3843 -1.8037,6.7572z"/><path d="M350.86337,223.8427c-0.0134,2.3943 -1.946,4.3316 -4.3335,4.3456h-51.0546c0.0067,-2.3729 -0.6159,-4.705 -1.8036,-6.7572h57.1917z"/><path d="M165.96017,221.4311c-1.177,2.0569 -1.7983,4.3857 -1.8037,6.7572h-25.9531c-2.3875,-0.014 -4.3202,-1.9513 -4.3342,-4.3456v-2.5118z"/></g><g data-paper-data="{&quot;index&quot;:null}" fill="#fc9fe4" stroke="#fc9fe4" stroke-width="1.20246" stroke-linecap="butt" stroke-linejoin="miter"><path d="M350.86337,221.511h-57.1917c-0.7148,-1.2606 -1.6287,-2.3976 -2.7056,-3.3656h59.8973z"/><path d="M270.14877,221.511h-80.6404c-0.7315,-1.2559 -1.6527,-2.3916 -2.7309,-3.3656h86.0769c-1.0702,0.9747 -1.9827,2.1103 -2.7056,3.3656z"/><path d="M168.66577,218.1454c-1.0629,0.9814 -1.9747,2.1157 -2.7056,3.3656h-32.091v-3.3656z"/></g><path d="M196.47267,176.3194h37.5769v51.919h-37.5769v-51.919" data-paper-data="{&quot;index&quot;:null}" fill="#fde982" stroke="#5e154d" stroke-width="0.90185" stroke-linecap="butt" stroke-linejoin="round"/><path d="M301.01127,176.3441h37.5776v51.8943h-37.5776v-51.8943" data-paper-data="{&quot;index&quot;:null}" fill="#fde982" stroke="#5e154d" stroke-width="0.90185" stroke-linecap="butt" stroke-linejoin="round"/><g data-paper-data="{&quot;index&quot;:null}"><path d="M287.07447,223.1898c1.2973,1.3006 2.1003,3.0963 2.1003,5.0783c0,1.9821 -0.803,3.7778 -2.1003,5.0784c-1.2966,1.3 -3.0883,2.105 -5.0643,2.105c-1.9768,0 -3.7684,-0.805 -5.0651,-2.105c-1.2973,-1.3006 -2.0996,-3.0963 -2.0996,-5.0784c0,-1.982 0.8023,-3.7777 2.0996,-5.0783c1.2967,-1.3007 3.0883,-2.1057 5.0651,-2.1057c1.976,0 3.7677,0.805 5.0643,2.1057z" fill="#fde982" stroke="none" stroke-width="0.66803" stroke-linecap="butt" stroke-linejoin="miter"/><path d="M281.90987,218.1454c5.7832,0 10.4708,4.701 10.4708,10.4995c0,5.7986 -4.6876,10.4995 -10.4708,10.4995c-5.7838,0 -10.4714,-4.7009 -10.4714,-10.4995c0,-5.7985 4.6876,-10.4995 10.4714,-10.4995zM281.90987,234.6232c2.4237,0 4.6081,-1.4657 5.5334,-3.7123c0.9252,-2.2459 0.4088,-4.8299 -1.3087,-6.5447c-1.7175,-1.7156 -4.2975,-2.2226 -6.5334,-1.2853c-2.2366,0.9365 -3.6889,3.1337 -3.6788,5.564c0.014,3.3055 2.6901,5.9783 5.9875,5.9783z" fill="#5e154d" stroke="#5e154d" stroke-width="0.83504" stroke-linecap="round" stroke-linejoin="round"/><path d="M284.01687,226.5319c0.5398,0.5411 0.8738,1.288 0.8738,2.113c0,0.8244 -0.334,1.5719 -0.8738,2.113c-0.5397,0.5411 -1.2846,0.8758 -2.107,0.8758c-0.823,0 -1.5678,-0.3347 -2.1076,-0.8758c-0.5398,-0.5411 -0.8738,-1.2886 -0.8738,-2.113c0,-0.825 0.334,-1.5719 0.8738,-2.113c0.5398,-0.5411 1.2846,-0.8764 2.1076,-0.8764c0.8224,0 1.5673,0.3353 2.107,0.8764z" fill="#ffffff" stroke="#a170e0" stroke-width="0.90185" stroke-linecap="round" stroke-linejoin="round"/></g><g data-paper-data="{&quot;index&quot;:null}"><path d="M182.83267,223.1898c1.2966,1.3006 2.0996,3.0963 2.0996,5.0783c0,1.9821 -0.803,3.7778 -2.0996,5.0784c-1.2973,1.3 -3.0883,2.105 -5.065,2.105c-1.9768,0 -3.7678,-0.805 -5.0651,-2.105c-1.2966,-1.3006 -2.0996,-3.0963 -2.0996,-5.0784c0,-1.982 0.803,-3.7777 2.0996,-5.0783c1.2973,-1.3007 3.0883,-2.1057 5.0651,-2.1057c1.9767,0 3.7677,0.805 5.065,2.1057z" fill="#fde982" stroke="none" stroke-width="0.66803" stroke-linecap="butt" stroke-linejoin="miter"/><path d="M177.76767,218.1454c5.7764,0.0274 10.4393,4.7404 10.4213,10.5329c-0.0187,5.7919 -4.7117,10.4748 -10.4881,10.4654c-5.7765,-0.0086 -10.4548,-4.7069 -10.4548,-10.4988c0,-2.7937 1.1103,-5.4718 3.085,-7.4419c1.974,-1.9707 4.6509,-3.0709 7.4366,-3.0576zM177.76767,234.6232c2.4263,0.01 4.6187,-1.449 5.552,-3.6943c0.9326,-2.2459 0.4222,-4.8339 -1.2933,-6.5541c-1.7155,-1.7201 -4.2968,-2.2319 -6.5367,-1.2966c-2.2393,0.9359 -3.6943,3.1337 -3.6843,5.5667c0.0141,3.2961 2.6749,5.9642 5.9623,5.9783z" fill="#5e154d" stroke="#5e154d" stroke-width="0.83504" stroke-linecap="round" stroke-linejoin="round"/><path d="M179.87527,226.5319c0.5391,0.5411 0.8738,1.288 0.8738,2.113c0,0.8244 -0.3347,1.5719 -0.8738,2.113c-0.5398,0.5411 -1.2853,0.8758 -2.1076,0.8758c-0.8224,0 -1.5679,-0.3347 -2.1077,-0.8758c-0.5391,-0.5411 -0.8731,-1.2886 -0.8731,-2.113c0,-0.825 0.334,-1.5719 0.8731,-2.113c0.5398,-0.5411 1.2853,-0.8764 2.1077,-0.8764c0.8223,0 1.5678,0.3353 2.1076,0.8764z" fill="#ffffff" stroke="#a170e0" stroke-width="0.90185" stroke-linecap="round" stroke-linejoin="round"/></g><g data-paper-data="{&quot;index&quot;:null}" stroke-linecap="butt" stroke-linejoin="miter"><path d="M341.30417,176.2819h4.3095v19.6422l-4.3095,-11.3285v-8.3137" fill="#8b49d4" stroke="none" stroke-width="0.66803"/><path d="M345.61367,201.6258v4.6214c0.0554,1.1738 -0.3768,2.3181 -1.1932,3.1605c-0.8163,0.8424 -1.9446,1.308 -3.1163,1.286v-20.3457z" fill="#8b49d4" stroke="none" stroke-width="0.66803"/><path d="M341.30417,184.5956l4.3095,11.3285v5.7017l-4.3095,-11.3533v-5.6769" fill="#b388ed" stroke="none" stroke-width="0.66803"/><path d="M341.30417,176.2819h4.3095v30.1417c0.0554,1.1731 -0.3768,2.3174 -1.1932,3.1598c-0.8163,0.8424 -1.9446,1.308 -3.1163,1.286z" fill="none" stroke="#5e154d" stroke-width="0.90185"/></g><g data-paper-data="{&quot;index&quot;:null}"><path d="M321.87907,180.5964h12.6506v37.5262h-12.6506v-37.5262" fill="#8b49d4" stroke="#ffffff" stroke-width="0.90185" stroke-linecap="round" stroke-linejoin="round"/><path d="M312.71037,180.5964l5.0102,13.2618v3.9688l-6.5634,-17.2306h1.5532" fill="#b388ed" stroke="none" stroke-width="0.66803" stroke-linecap="butt" stroke-linejoin="miter"/><path d="M317.77067,180.5964v13.2618l-5.0102,-13.2618h5.0102" fill="#8b49d4" stroke="none" stroke-width="0.66803" stroke-linecap="butt" stroke-linejoin="miter"/><path d="M306.52237,180.5964l11.2483,29.463v8.0632h-12.5256v-37.5262h1.2773" fill="#8b49d4" stroke="none" stroke-width="0.66803" stroke-linecap="butt" stroke-linejoin="miter"/><path d="M309.75427,180.5964l8.0164,21.0738v8.44l-11.2483,-29.4637l3.2319,-0.0501" fill="#b388ed" stroke="none" stroke-width="0.66803" stroke-linecap="butt" stroke-linejoin="miter"/><path d="M311.20727,180.5964l6.5634,17.2306v3.8432l-8.0164,-21.0237l1.453,-0.0501" fill="#8b49d4" stroke="none" stroke-width="0.66803" stroke-linecap="butt" stroke-linejoin="miter"/><path d="M317.77067,180.5964v37.5262h-12.5256v-37.5262h12.5256" fill="none" stroke="#ffffff" stroke-width="0.90185" stroke-linecap="round" stroke-linejoin="round"/></g><g data-paper-data="{&quot;index&quot;:null}"><path d="M283.33137,176.3066l9.6197,25.3192h-3.6575l-9.5943,-25.1181l3.6321,-0.2011" fill="#b388ed" stroke="none" stroke-width="0.66803" stroke-linecap="butt" stroke-linejoin="miter"/><path d="M295.45617,176.3066v25.3192h-2.5051l-9.6197,-25.1181l12.1248,-0.2011" fill="#8b49d4" stroke="none" stroke-width="0.66803" stroke-linecap="butt" stroke-linejoin="miter"/><path d="M276.71777,176.3066l9.5943,25.3192h-1.503l-9.5943,-25.1181l1.503,-0.2011" fill="#b388ed" stroke="none" stroke-width="0.66803" stroke-linecap="butt" stroke-linejoin="miter"/><path d="M279.69927,176.3066l9.5943,25.3192h-2.9815l-9.5943,-25.1181l2.9815,-0.2011" fill="#8b49d4" stroke="none" stroke-width="0.66803" stroke-linecap="butt" stroke-linejoin="miter"/><path d="M239.39137,176.3066h35.8234l9.5943,25.3192h-45.4177v-25.3192" fill="#8b49d4" stroke="none" stroke-width="0.66803" stroke-linecap="butt" stroke-linejoin="miter"/><path d="M239.39137,176.3066h56.0648v25.3192h-56.0648v-25.3192" fill="none" stroke="#5e154d" stroke-width="0.90185" stroke-linecap="round" stroke-linejoin="round"/><path d="M268.97667,201.5002h-3.4818v-25.2183h3.4818z" fill="#5e154d" stroke="#5e154d" stroke-width="0.83504" stroke-linecap="round" stroke-linejoin="round"/></g><g data-paper-data="{&quot;index&quot;:null}"><path d="M200.47077,180.5964h12.5257v37.5262h-12.5257v-37.5262" fill="#8b49d4" stroke="#ffffff" stroke-width="0.90185" stroke-linecap="round" stroke-linejoin="round"/><path d="M222.29077,180.5964l7.5154,19.6168v8.44l-10.6966,-28.0568h3.1812" fill="#b388ed" stroke="none" stroke-width="0.66803" stroke-linecap="butt" stroke-linejoin="miter"/><path d="M229.80617,180.5964v19.6168l-7.5154,-19.6168h7.5154" fill="#8b49d4" stroke="none" stroke-width="0.66803" stroke-linecap="butt" stroke-linejoin="miter"/><path d="M219.18447,180.5964l10.6217,28.0568v9.4694h-12.5256v-37.5262h1.9039" fill="#8b49d4" stroke="none" stroke-width="0.66803" stroke-linecap="butt" stroke-linejoin="miter"/><path d="M217.28057,180.5964h12.5256v37.5262h-12.5256v-37.5262" fill="none" stroke="#ffffff" stroke-width="0.90185" stroke-linecap="round" stroke-linejoin="round"/></g><g data-paper-data="{&quot;index&quot;:null}"><path d="M168.25037,176.2819l9.5943,25.1181h-4.534l-9.5949,-25.1181h4.5346" fill="#b388ed" stroke="none" stroke-width="0.66803" stroke-linecap="butt" stroke-linejoin="miter"/><path d="M163.71577,176.2819l9.5949,25.1181h-3.107l-9.5943,-25.1181h3.1064" fill="#8b49d4" stroke="none" stroke-width="0.66803" stroke-linecap="butt" stroke-linejoin="miter"/><path d="M191.27217,176.2819v25.1181h-13.4275l-9.5943,-25.1181h23.0218" fill="#8b49d4" stroke="none" stroke-width="0.66803" stroke-linecap="butt" stroke-linejoin="miter"/><path d="M160.60937,176.2819l9.5943,25.1181h-2.0535l-9.595,-25.1181h2.0542" fill="#b388ed" stroke="none" stroke-width="0.66803" stroke-linecap="butt" stroke-linejoin="miter"/><path d="M144.67677,176.2819h13.9031l9.595,25.1181h-23.4981v-25.1181" fill="#8b49d4" stroke="none" stroke-width="0.66803" stroke-linecap="butt" stroke-linejoin="miter"/><path d="M144.92727,176.2819h46.6208v25.1181h-46.6208v-25.1181" fill="none" stroke="#5e154d" stroke-width="0.90185" stroke-linecap="round" stroke-linejoin="round"/><path d="M183.15557,201.5002h-3.4825v-25.2183h3.4825z" fill="#5e154d" stroke="#5e154d" stroke-width="0.83504" stroke-linecap="round" stroke-linejoin="round"/><path d="M156.82627,201.5002h-3.4818v-25.2183h3.4818z" fill="#5e154d" stroke="#5e154d" stroke-width="0.83504" stroke-linecap="round" stroke-linejoin="round"/></g><g data-paper-data="{&quot;index&quot;:null}" fill="none" stroke-width="1.33607" stroke-linecap="butt" stroke-linejoin="miter"><path d="M136.76867,125.2321v-4.371c0,-3.089 1.1276,-4.069 4.2092,-4.069h0.801" stroke="#ffffff"/><path d="M146.08767,116.7921h-1.7035" stroke="#ffffff"/><path d="M311.15097,116.7921h10.6718" stroke="#f48cc5"/><path d="M308.36987,116.7921h-3.3061" stroke="#f48cc5"/></g><g data-paper-data="{&quot;index&quot;:null}" fill="none" stroke="#d81d7b" stroke-width="1.20246" stroke-linecap="butt" stroke-linejoin="miter"><path d="M341.14607,151.9277l-1.4029,3.0643"/><path d="M328.64577,162.6276l1.4283,-3.2399"/><path d="M322.23267,154.2131l-2.5305,0.8791"/><path d="M298.88487,172.6248l-3.6328,0.2011"/><path d="M309.18057,153.6352l2.6809,2.085"/><path d="M286.50957,155.3688l1.7536,-2.2606"/><path d="M271.97977,152.6058l2.7303,1.5826"/><path d="M252.01357,153.0327l3.3569,0.151"/><path d="M229.96847,169.2839l1.9046,-2.4864"/><path d="M256.64837,173.0517l3.5072,-0.5779"/><path d="M234.80367,158.383l-2.956,-1.0549"/><path d="M209.77717,172.2226l-3.2059,-1.1303"/><path d="M172.95177,171.2934l-2.8058,-2.1852"/><path d="M209.07637,154.8163l2.7049,-2.3862"/><path d="M196.95157,153.7361l-4.3843,-0.2011"/><path d="M171.47407,155.62l2.8558,-1.9848"/><path d="M155.71717,157.0015l-1.8037,-2.0095"/><path d="M144.59367,159.3877l-2.8558,-0.5278"/><path d="M143.91767,169.2085l-1.5278,2.6374"/><path d="M154.94017,170.8411l-0.5511,-3.29"/><path d="M166.58877,162.2008h-2.9307"/><path d="M317.84837,166.521l-0.2505,-3.1398"/><path d="M280.99827,172.8506l-2.1791,-2.8886"/><path d="M327.29307,171.6454l3.0562,-1.9346"/><path d="M341.79807,166.5711l-3.3322,-1.0295"/></g><path d="M138.20337,114.0012h10.5216v8.967h-5.0103v25.1181h191.3417c1.9039,0 2.781,-0.8037 2.5051,-3.1144c-0.2759,-2.3107 -2.9561,-18.8386 -3.3569,-20.6469c-0.4008,-1.8091 -0.2004,-1.4069 -2.2299,-1.4069h-30.0608v-8.9169h38.1527c2.3796,0 3.2567,0.8537 3.733,2.8131c0.4756,1.9593 5.7865,33.2313 6.2875,36.5221c0.5131,3.3248 0.781,6.683 0.8017,10.0472v60.5346c-0.0134,2.3942 -1.946,4.3315 -4.3336,4.3449h-51.0799c-0.0334,-3.8345 -1.6687,-7.4787 -4.5092,-10.0473c-5.1465,-4.6501 -12.9652,-4.6501 -18.1117,0c-1.0702,0.9754 -1.9827,2.1104 -2.7056,3.3663c-1.1877,2.0522 -1.8103,4.3836 -1.8037,6.7565h-77.0584c0.004,-2.3689 -0.6092,-4.6977 -1.7783,-6.7565c-0.7315,-1.2566 -1.6527,-2.3916 -2.7309,-3.3663c-5.1465,-4.6501 -12.9652,-4.6501 -18.1117,0c-1.0629,0.9821 -1.9747,2.1164 -2.7056,3.3663c-1.177,2.0568 -1.7983,4.3856 -1.8037,6.7565h-25.9531c-2.3875,-0.0134 -4.3202,-1.9514 -4.3342,-4.3456v-105.4959c-0.0334,-1.1765 0.4075,-2.3168 1.2232,-3.1625c0.8156,-0.8464 1.9373,-1.3274 3.111,-1.3334z" data-paper-data="{&quot;index&quot;:null}" fill="none" stroke="#5e154d" stroke-width="1.20246" stroke-linecap="round" stroke-linejoin="round"/><path d="M329.94967,141.13696c0,2.48548 -2.19805,4.50036 -4.90949,4.50036c-2.71143,0 -4.90949,-2.01488 -4.90949,-4.50036c0,-2.48548 2.19805,-4.50036 4.90949,-4.50036c2.71143,0 4.90949,2.01488 4.90949,4.50036z" fill="#ffffff" stroke="#000000" stroke-width="1.5" stroke-linecap="butt" stroke-linejoin="miter"/><path d="M318.49421,145.68258c-2.5,0 -2.5,-2.5 -2.5,-2.5v-2.45474c0.24408,-1.68025 -0.46835,-3.84017 0.73224,-5.04076c1.20059,-1.20059 3.34941,-0.58327 5.04075,-0.73223c3.20395,-0.28219 6.60121,0 9.81897,0c0,0 2.35299,0 2.49345,2.28276c0.00783,0.00643 0.01564,0.01291 0.02342,0.01943c0.97164,0.81422 0.99422,2.33232 1.49133,3.49848l0.81825,2.45475c0,0 0.79057,2.3717 -1.58114,3.16227c-2.37171,0.79057 -3.16228,-1.58114 -3.16228,-1.58114l-0.81824,-2.45474c-0.04839,-0.47034 0.24139,-1.13874 -0.14517,-1.41101c-0.59751,-0.42085 -1.4538,-0.15147 -2.1807,-0.2272c0,0 -0.59724,-0.1493 -1.12489,-0.59611c-1.92617,0.0829 -3.87178,0.12241 -5.633,-0.14749c-0.55152,-0.08452 -1.11068,-1.12677 -1.50522,-0.73224c-0.39454,0.39453 0.48815,1.00348 0.73223,1.50522v2.45474c0,0 0,2.5 -2.5,2.5z" fill="#000000" stroke="none" stroke-width="0.5" stroke-linecap="butt" stroke-linejoin="miter"/><path d="M298.85627,142.36434c0,2.25953 -2.19805,4.09123 -4.90949,4.09123c-2.71143,0 -4.90948,-1.8317 -4.90948,-4.09123c0,-2.25953 2.19804,-4.09124 4.90948,-4.09124c2.71143,0 4.90949,1.83171 4.90949,4.09124z" fill="#ffffff" stroke="#000000" stroke-width="1.5" stroke-linecap="butt" stroke-linejoin="miter"/><path d="M283.99655,145.7686c-1.76776,-1.76776 0,-3.53554 0,-3.53554l1.03256,-0.65929c0.72506,-2.12146 1.42912,-5.12787 3.6468,-6.3231c0.52216,-0.28143 6.64639,-0.35941 7.72562,-0.29581c1.58333,0.0933 3.43196,-0.43272 4.73477,0.4719c2.29204,1.59151 1.83715,5.55692 1.85647,7.75583c0,0 0,2.5 -2.5,2.5c-2.5,0 -2.5,-2.5 -2.5,-2.5c0.01076,-0.95751 -0.02456,-1.91665 0.03228,-2.87253c0.01678,-0.28221 0.46387,-0.76667 0.1877,-0.82709c-0.60947,-0.13334 -1.18999,0.41423 -1.81121,0.47189c-1.78382,0.16556 -3.70033,-0.95449 -5.36633,-0.29582c-1.15219,0.45553 -0.88243,2.31669 -1.26268,3.49587l-2.24043,2.6137c0,0 -1.76777,1.76776 -3.53553,0z" fill="#fbff00" stroke="none" stroke-width="0.5" stroke-linecap="butt" stroke-linejoin="miter"/><path d="M263.67163,143.18258c0,2.25953 -2.19804,4.09124 -4.90948,4.09124c-2.71143,0 -4.90949,-1.8317 -4.90949,-4.09124c0,-2.25953 2.19805,-4.09124 4.90949,-4.09124c2.71143,0 4.90948,1.8317 4.90948,4.09124z" fill="#ffffff" stroke="#000000" stroke-width="1.5" stroke-linecap="butt" stroke-linejoin="miter"/><path d="M262.03514,134.95485c1.38071,0 2.5,1.11929 2.5,2.5c0,1.30586 -1.00121,2.37786 -2.27787,2.49026c-0.45761,0.50835 -1.12079,0.82798 -1.85862,0.82798c-0.62584,0 -1.19796,-0.22996 -1.63649,-0.61001c-0.43853,0.38004 -1.01066,0.61001 -1.6365,0.61001c-0.30752,0 -0.60208,-0.05552 -0.87419,-0.15709c-0.30481,1.03672 -1.26341,1.79359 -2.3988,1.79359c-1.38071,0 -2.5,-1.11929 -2.5,-2.5c0,-0.13933 0.01139,-0.276 0.03331,-0.40913c-0.02192,-0.13313 -0.03331,-0.26979 -0.03331,-0.40912c0,-1.38071 1.11929,-2.5 2.5,-2.5c0.43041,0 0.8354,0.10877 1.18901,0.30031c0.4478,-0.67416 1.21399,-1.11855 2.08398,-1.11855c0.62584,0 1.19797,0.22996 1.6365,0.61001c0.38608,-0.33459 0.87571,-0.55285 1.41437,-0.60027c0.45761,-0.50835 1.12079,-0.82798 1.85861,-0.82798z" fill="#000000" stroke="none" stroke-width="0.5" stroke-linecap="butt" stroke-linejoin="miter"/><path d="M230.94175,143.18258c0,2.71143 -2.38123,4.90948 -5.31861,4.90948c-2.93739,0 -5.3186,-2.19805 -5.3186,-4.90948c0,-2.71143 2.38122,-4.90948 5.3186,-4.90948c2.93739,0 5.31861,2.19805 5.31861,4.90948z" fill="#ffffff" stroke="#000000" stroke-width="1.5" stroke-linecap="butt" stroke-linejoin="miter"/><path d="M222.82752,142.36434c0,-0.41422 0.33578,-0.75 0.75,-0.75c0.41422,0 0.75,0.33578 0.75,0.75c0,0.41422 -0.33578,0.75 -0.75,0.75c-0.41422,0 -0.75,-0.33578 -0.75,-0.75z" fill="#000000" stroke="none" stroke-width="0.5" stroke-linecap="butt" stroke-linejoin="miter"/><path d="M228.51555,141.61488c0.74946,0.02854 0.72091,0.778 0.72091,0.778l-0.05306,1.35334c-0.47271,4.20107 -3.43307,4.2592 -6.13621,1.60318c0,0 -0.53033,-0.53033 0,-1.06066c0.53033,-0.53033 1.06066,0 1.06066,0c1.81561,1.85489 3.32661,2.18977 3.58329,-0.69473l0.0464,-1.25823c0,0 0.00061,-0.01598 0.00399,-0.04319c-0.02394,0.00231 -0.04823,0.00349 -0.07278,0.00349c-0.41422,0 -0.75,-0.33578 -0.75,-0.75c0,-0.41422 0.33578,-0.75 0.75,-0.75c0.41422,0 0.75,0.33578 0.75,0.75c0,0.02351 -0.00108,0.04675 -0.0032,0.0697c0.03181,-0.00188 0.06512,-0.00224 0.09999,-0.00091z" fill="#000000" stroke="none" stroke-width="0.5" stroke-linecap="butt" stroke-linejoin="miter"/><path d="M256.37566,143.18258c0,-0.41422 0.33578,-0.75 0.75,-0.75c0.41422,0 0.75,0.33578 0.75,0.75c0,0.41422 -0.33578,0.75 -0.75,0.75c-0.41422,0 -0.75,-0.33578 -0.75,-0.75z" fill="#000000" stroke="none" stroke-width="0.5" stroke-linecap="butt" stroke-linejoin="miter"/><path d="M261.13843,144.12423l-0.02618,0.15694c-0.70713,2.71729 -1.45124,2.10615 -3.98658,2.10615c0,0 -0.75,0 -0.75,-0.75c0,-0.75 0.75,-0.75 0.75,-0.75c1.50768,0 2.5203,0.80918 2.50703,-0.85296l0.02618,-0.15694c0,0 0.02326,-0.13946 0.11014,-0.28717c-0.07614,-0.11736 -0.12036,-0.25735 -0.12036,-0.40767c0,-0.41422 0.33578,-0.75 0.75,-0.75c0.41422,0 0.75,0.33578 0.75,0.75c0,0.14516 -0.04124,0.28068 -0.11264,0.3955c0.15197,0.24905 0.10242,0.54615 0.10242,0.54615z" fill="#000000" stroke="none" stroke-width="0.5" stroke-linecap="butt" stroke-linejoin="miter"/><path d="M292.37854,141.54609c0,-0.41422 0.33578,-0.75 0.75,-0.75c0.41422,0 0.75,0.33578 0.75,0.75c0,0.41422 -0.33578,0.75 -0.75,0.75c-0.41422,0 -0.75,-0.33578 -0.75,-0.75z" fill="#000000" stroke="none" stroke-width="0.5" stroke-linecap="butt" stroke-linejoin="miter"/><path d="M295.65153,141.54609c0,-0.41422 0.33578,-0.75 0.75,-0.75c0.41422,0 0.75,0.33578 0.75,0.75c0,0.41422 -0.33578,0.75 -0.75,0.75c-0.41422,0 -0.75,-0.33578 -0.75,-0.75z" fill="#000000" stroke="none" stroke-width="0.5" stroke-linecap="butt" stroke-linejoin="miter"/><path d="M322.65369,142.36434c0,-0.41422 0.33578,-0.75 0.75,-0.75c0.41422,0 0.75,0.33578 0.75,0.75c0,0.41422 -0.33578,0.75 -0.75,0.75c-0.41422,0 -0.75,-0.33578 -0.75,-0.75z" fill="#000000" stroke="none" stroke-width="0.5" stroke-linecap="butt" stroke-linejoin="miter"/><path d="M326.74493,142.36434c0,-0.41422 0.33578,-0.75 0.75,-0.75c0.41422,0 0.75,0.33578 0.75,0.75c0,0.41422 -0.33578,0.75 -0.75,0.75c-0.41422,0 -0.75,-0.33578 -0.75,-0.75z" fill="#000000" stroke="none" stroke-width="0.5" stroke-linecap="butt" stroke-linejoin="miter"/><path d="M325.98184,143.26105c0.73978,0.1234 0.61638,0.86318 0.61638,0.86318l-0.87628,1.44484c-0.5,0 -1,0 -1.5,0c0,0 -0.75,0 -0.75,-0.75c0,-0.75 0.75,-0.75 0.75,-0.75c0.5,0 1,0 1.5,0l-0.60328,-0.19165c0,0 0.1234,-0.73977 0.86318,-0.61637z" fill="#000000" stroke="none" stroke-width="0.5" stroke-linecap="butt" stroke-linejoin="miter"/><path d="M197.39361,142.77346c0,2.48548 -2.56439,4.50036 -5.72773,4.50036c-3.16334,0 -5.72773,-2.01488 -5.72773,-4.50036c0,-2.48548 2.56439,-4.50036 5.72773,-4.50036c3.16334,0 5.72773,2.01488 5.72773,4.50036z" fill="#ffffff" stroke="#000000" stroke-width="1.5" stroke-linecap="butt" stroke-linejoin="miter"/><path d="M188.46113,142.36434c0,-0.41422 0.33578,-0.75 0.75,-0.75c0.41422,0 0.75,0.33578 0.75,0.75c0,0.41422 -0.33578,0.75 -0.75,0.75c-0.41422,0 -0.75,-0.33578 -0.75,-0.75z" fill="#000000" stroke="none" stroke-width="0.5" stroke-linecap="butt" stroke-linejoin="miter"/><path d="M193.98379,143.535c-0.96993,2.64011 -1.95348,2.28 -4.28983,1.13664c0,0 -0.67082,-0.33541 -0.33541,-1.00623c0.33541,-0.67082 1.00623,-0.33541 1.00623,-0.33541c1.24612,0.63927 2.00004,1.54348 2.17151,-0.18838l0.9771,-1.21759c0.06779,-0.09333 0.15657,-0.17042 0.2594,-0.22435c0.1961,-0.11254 0.50575,-0.19275 0.83893,0.09778c0.00324,0.00281 0.00646,0.00565 0.00965,0.00851c0.33013,0.29462 0.28947,0.6117 0.20217,0.82046c-0.04667,0.12512 -0.1258,0.23442 -0.22714,0.31768z" fill="#000000" stroke="none" stroke-width="0.5" stroke-linecap="butt" stroke-linejoin="miter"/><path d="M193.57412,138.65563c-0.00297,-0.09339 0.00467,-0.19075 0.01688,-0.28982c-1.97395,0.42737 -4.03565,0.62078 -6.09028,0.65247c0.0016,0.02401 0.00349,0.04836 0.00567,0.07306c0,0 0,0.75 -0.75,0.75c-0.75,0 -0.75,-0.75 -0.75,-0.75c0.03321,-0.62451 -0.22639,-1.33984 0.09963,-1.87353c1.08207,-1.77128 4.71493,-1.42023 6.43452,-1.3264c0.67585,0.03688 1.49589,-0.22566 2.02047,0.20206c0.2308,0.18818 0.21238,0.50421 0.16386,0.83567l1.22764,0.66468c0.24138,0.12463 0.40639,0.37646 0.40639,0.66684c0,0.41422 -0.33578,0.75 -0.75,0.75c-0.02412,0 -0.04798,-0.00114 -0.07152,-0.00337l-1.48596,-0.12473l0.02179,-0.25966zM193.36559,137.03721c-0.19663,-0.1203 -0.44431,-0.11492 -0.71524,-0.05605c0.24,0.00568 0.47819,0.0233 0.71524,0.05605z" fill="#de9600" stroke="none" stroke-width="0.5" stroke-linecap="butt" stroke-linejoin="miter"/><path d="M222.24806,136.09594l0.02947,0.0057c0.01894,-0.0156 0.03793,-0.0311 0.05699,-0.0465l-0.00451,-0.00867l0.04348,-0.02259c0.01859,-0.01481 0.03724,-0.02951 0.05594,-0.04411l-0.07437,-0.24932l0.81095,-0.24189c0.30557,-0.16794 0.6271,-0.29906 0.96787,-0.37867c1.23205,-0.28781 3.39478,-0.04077 4.73173,0.89797c0.10612,-0.07257 0.24853,-0.12127 0.43964,-0.12127c0.75,0 0.75,0.75 0.75,0.75c0,0.5 0,1 0,1.5v1.5c0,0.41421 -0.33579,0.75 -0.75,0.75c-0.41421,0 -0.75,-0.33579 -0.75,-0.75c0,-0.04858 0,-1.59716 0,-1.64574c-0.05875,-0.08602 -0.1178,-0.17183 -0.1789,-0.25573c-0.15855,0.46959 -0.70743,0.46971 -0.70743,0.46971l-1.29409,0.00029c-0.18336,0.00011 -0.3975,-0.01112 -0.63161,-0.02789l-1.3104,0.55016l-0.10272,-0.24467c-0.52014,0.23212 -1.06263,0.39883 -1.62003,0.46151l-0.02175,-0.00457l0.0003,0.00595l-1.20994,0.06057l-0.28555,1.21744c-0.07197,0.33911 -0.3731,0.59354 -0.73366,0.59354c-0.26025,0 -0.48953,-0.13255 -0.62403,-0.33382l-0.21565,-0.03261l0.00621,0.1081l-1.4911,0.0856c-0.01633,0.00106 -0.03281,0.0016 -0.04941,0.0016c-0.41421,0 -0.75,-0.33579 -0.75,-0.75c0,-0.28333 0.15711,-0.52996 0.38896,-0.65754l1.2881,-0.73998l0.0098,0.01707c-0.02805,-0.0787 -0.04332,-0.16347 -0.04332,-0.2518c0,-0.28207 0.15572,-0.52778 0.38588,-0.65584l1.28493,-0.7458l0.09407,0.16207c0.51135,-0.29965 1.09359,-0.55967 1.50413,-0.9283z" fill="#faff00" stroke="none" stroke-width="0.5" stroke-linecap="butt" stroke-linejoin="miter"/><text transform="translate(149.11701,168.54825) scale(0.5,0.5)" font-size="40" xml:space="preserve" fill="#ff9400" fill-rule="nonzero" stroke="none" stroke-width="1" stroke-linecap="butt" stroke-linejoin="miter" stroke-miterlimit="10" stroke-dasharray="" stroke-dashoffset="0" font-family="Sans Serif" font-weight="normal" text-anchor="start" style="mix-blend-mode: normal"><tspan x="0" dy="0">SOCCER GUANTONE</tspan></text></g></g></svg>