<svg version="1.1" xmlns="http://www.w3.org/2000/svg" xmlns:xlink="http://www.w3.org/1999/xlink" width="59.15034" height="79.81154" viewBox="0,0,59.15034,79.81154"><g transform="translate(-212.86282,-143.41262)"><g data-paper-data="{&quot;isPaintingLayer&quot;:true}" fill-rule="nonzero" stroke="none" stroke-linecap="butt" stroke-linejoin="miter" stroke-miterlimit="10" stroke-dasharray="" stroke-dashoffset="0" style="mix-blend-mode: normal"><path d="M268.2142,149.0878c-0.5379,22.823 0.8626,36.3001 0,58.9379c-2.1021,1.6399 -7.036,0.4481 -9.3552,1.871c-6.7863,-11.3011 -15.7542,-20.4196 -23.388,-30.8722c-3.2594,10.8287 -0.015,21.5488 0.9355,32.7432c-2.2771,1.7775 -7.8266,0.2816 -10.2907,1.8711c-2.8188,-22.0503 -4.1781,-37.782 -5.6132,-58.9379c3.3024,-1.0627 5.8321,-2.8992 10.2908,-2.8065c10.9961,9.5853 13.4846,27.6783 26.1946,35.5498c3.2378,-11.0485 -0.8326,-27.3827 -0.9355,-38.3564c4.3829,-3.2584 7.3756,-2.0769 12.1617,0z" fill="#ff9400" stroke-width="0.93552"/><path d="M271.9563,164.0561c0.0739,14.0216 0.0777,28.0704 0,42.0985c-0.2535,0.8757 -0.624,0 -0.9355,0c0.6717,5.3493 -4.6757,4.6795 -2.8066,11.2263c-4.7608,1.1638 -11.4377,0.4125 -15.9038,1.871c-3.1546,-9.3187 -8.5507,-16.3969 -14.0329,-23.388c-3.2762,6.3559 2.6897,10.8315 0.9356,18.7104c-2.6438,-0.7727 -2.424,1.3182 -4.6776,0.9355c0.289,2.1873 1.7251,3.9947 0,5.6132c-2.1499,0.841 -5.8817,-0.1928 -7.4842,0.9355c-2.8028,0.0823 -6.6301,2.5811 -8.4197,0c-4.8404,-32.6095 -2.6307,-47.1943 -5.6131,-60.8089c-0.2676,-3.1368 -0.1376,-1.916 0,-2.8066c4.4502,-0.522 5.411,-4.5681 7.4841,-7.4842c6.7246,-0.8513 11.4302,-3.1368 16.8394,-0.9355c5.1454,8.5301 9.8015,23.0017 14.0328,24.3236c0.2321,-2.6307 -3.7065,-14.8898 -4.6776,-22.4525c1.8,-1.8823 3.6738,0.7764 6.5487,-0.9356c0.5379,-1.6446 -1.1311,-5.4961 0.9355,-5.6131c2.9001,0.0936 4.9714,-0.6839 6.5487,-1.871c1.2414,-0.0562 2.5034,-0.1057 3.742,0c2.0769,0.7231 3.6607,0.0065 5.6132,0.9355c1.1198,1.9739 0.8971,4.8684 1.871,6.5486c0.1039,1.3163 -0.3368,2.6784 -0.4677,4.1163c-0.0683,3.0171 -0.1507,5.6955 0.4677,8.981zM256.0525,149.0878c0.1029,10.9737 4.1733,27.3079 0.9355,38.3564c-12.71,-7.8715 -15.1985,-25.9645 -26.1946,-35.5498c-4.4587,-0.0927 -6.9884,1.7438 -10.2908,2.8065c1.4351,21.1559 2.7944,36.8876 5.6132,58.9379c2.4641,-1.5895 8.0136,-0.0936 10.2907,-1.8711c-0.9505,-11.1944 -4.1949,-21.9145 -0.9355,-32.7432c7.6338,10.4526 16.6017,19.5711 23.388,30.8722c2.3192,-1.4229 7.2531,-0.2311 9.3552,-1.871c0.8626,-22.6378 -0.5379,-36.1149 0,-58.9379c-4.7861,-2.0769 -7.7788,-3.2584 -12.1617,0z" fill="#ffffff" stroke-width="0.93552"/><path d="M268.24442,149.04796c-0.5379,22.823 0.86492,36.37791 0.00232,59.01571c-2.1021,1.6399 -7.04668,0.4551 -9.36588,1.878c-6.7863,-11.3011 -15.72658,-20.45731 -23.36038,-30.90991c-3.2594,10.8287 -0.05199,21.49312 0.89851,32.68752c-2.2771,1.7775 -7.86325,0.37379 -10.32735,1.96329c-2.8188,-22.0503 -4.18809,-37.86228 -5.62319,-59.01818c3.3024,-1.0627 5.84456,-2.90774 10.30326,-2.81504c10.9961,9.5853 13.46283,27.69865 26.17283,35.57015c3.2378,-11.0485 -0.80645,-27.3111 -0.90935,-38.2848c4.3829,-3.2584 7.42314,-2.16364 12.20924,-0.08674z" data-paper-data="{&quot;noHover&quot;:false,&quot;origItem&quot;:[&quot;Path&quot;,{&quot;applyMatrix&quot;:true,&quot;segments&quot;:[[[256.0525,149.0878],[4.3829,-3.2584],[0.1029,10.9737]],[[256.988,187.4442],[3.2378,-11.0485],[-12.71,-7.8715]],[[230.7934,151.8944],[10.9961,9.5853],[-4.4587,-0.0927]],[[220.5026,154.7009],[3.3024,-1.0627],[1.4351,21.1559]],[[226.1158,213.6388],[-2.8188,-22.0503],[2.4641,-1.5895]],[[236.4065,211.7677],[-2.2771,1.7775],[-0.9505,-11.1944]],[[235.471,179.0245],[-3.2594,10.8287],[7.6338,10.4526]],[[258.859,209.8967],[-6.7863,-11.3011],[2.3192,-1.4229]],[[268.2142,208.0257],[-2.1021,1.6399],[0.8626,-22.6378]],[[268.2142,149.0878],[-0.5379,22.823],[-4.7861,-2.0769]]],&quot;closed&quot;:true,&quot;fillColor&quot;:[0,0,0,1]}]}" fill="#ff9400" stroke-width="0.5"/></g></g></svg>