<svg version="1.1" xmlns="http://www.w3.org/2000/svg" xmlns:xlink="http://www.w3.org/1999/xlink" width="43.7998" height="76.05265" viewBox="0,0,43.7998,76.05265"><g transform="translate(-219.00007,-142.00035)"><g data-paper-data="{&quot;isPaintingLayer&quot;:true}" fill-rule="nonzero" stroke="none" stroke-width="1" stroke-linecap="butt" stroke-linejoin="miter" stroke-miterlimit="10" stroke-dasharray="" stroke-dashoffset="0" style="mix-blend-mode: normal"><path d="M260.515,211.653c-0.72,1.07 -1.62,2.02 -2.67,2.78c-1.43,1.05 -3.16,1.96 -5.45,2.86c-1.28,0.5 -2.65,0.76 -4.02,0.76c-0.21,0 -0.41,0 -0.62,-0.01l-6,-0.34h-6.35c-0.23,0 -0.47,-0.01 -0.7,-0.02c-1.37,-0.09 -2.23,-0.14 -2.56,-0.16c-0.53,-0.02 -1.07,-0.08 -1.59,-0.17c-5.15,-0.93 -9.08,-4.12 -10.8,-8.75c-0.05,-0.12 -0.09,-0.23 -0.12,-0.34c-0.8,-2.38 -1.54,-7.12 2.41,-12.24c1.92,-2.49 4.06,-3.91 5.9,-4.72v-9.59c-0.06,-1.98 -0.06,-3.98 0,-5.96v-6.03c-2.47,-1.04 -4.6,-2.69 -6.24,-4.89c-0.71,-0.94 -1.26,-1.98 -1.63,-3.1c-0.5,-1.48 -0.75,-2.98 -0.75,-4.46c0,-3.14 1.23,-13.52 17.04,-15.08c2.93,-0.31 6.06,-0.25 8.97,0.21c1.54,0.16 3.11,0.32 4.71,0.48c9.42,0.78 11.82,7.48 12.33,9.52c0.04,0.19 0.08,0.37 0.12,0.55c0.19,1 0.29,2 0.29,3c0,5.38 -2.93,9.87 -7.74,12.2v23.19c0.62,0.27 1.21,0.58 1.78,0.94c0.18,0.11 0.35,0.22 0.52,0.34c2.09,1.48 4.71,4.32 5.36,9.45c0.02,0.22 0.05,0.44 0.06,0.66c0.27,4.16 -1.08,7.14 -2.25,8.92z" id="ID0.426238551735878" fill="#ffa100"/><path d="M251.7,155.071c0.058,0.294 0.088,0.587 0.088,0.88c0,1.407 -0.938,2.317 -2.814,2.727c-1.583,0.118 -3.138,0.264 -4.662,0.439c-0.47,0.06 -0.675,0.353 -0.615,0.88c0.058,0.47 0.116,0.938 0.176,1.407c0,1.467 0.058,3.606 0.176,6.421v33.073c0.533,0.118 1.75,0.177 3.647,0.177c1.542,-0.059 2.639,0.118 3.292,0.527c0.415,0.294 0.683,0.91 0.801,1.848c0.058,0.879 -0.088,1.583 -0.438,2.11c-0.643,0.471 -1.635,0.968 -2.978,1.496l-6.308,-0.353h-2.103c-2.103,0 -3.622,0 -4.557,0c-1.812,-0.116 -2.774,-0.176 -2.89,-0.176c-1.287,-0.233 -2.104,-0.82 -2.453,-1.759c-0.177,-0.528 0.052,-1.201 0.687,-2.023c0.634,-0.82 1.296,-1.319 1.986,-1.495c1.61,0.059 3.681,-0.117 6.211,-0.528c0,-3.283 0,-9.676 0,-19.175c-0.06,-1.876 -0.06,-3.753 0,-5.63c0,-2.345 0,-3.987 0,-4.926v-5.894c0.058,-1.407 -0.088,-3.283 -0.44,-5.629c-2.053,0.352 -3.372,0.527 -3.958,0.527c-1.818,0 -3.166,-0.585 -4.046,-1.759c-0.118,-0.353 -0.176,-0.674 -0.176,-0.968c0,-2.287 2.375,-3.664 7.125,-4.135c2.228,-0.233 4.367,-0.176 6.421,0.177c1.7,0.176 3.431,0.352 5.189,0.527c1.584,0.121 2.464,0.53 2.639,1.234z" id="ID0.5514666894450784" fill="#ffffff"/></g></g></svg>