<svg version="1.1" xmlns="http://www.w3.org/2000/svg" xmlns:xlink="http://www.w3.org/1999/xlink" width="101.06" height="76.82" viewBox="0,0,101.06,76.82"><g transform="translate(-189.52,-142.1)"><g data-paper-data="{&quot;isPaintingLayer&quot;:true}" fill-rule="nonzero" stroke-miterlimit="10" stroke-dasharray="" stroke-dashoffset="0" style="mix-blend-mode: normal"><g><g stroke-width="2" stroke-linecap="butt" stroke-linejoin="miter"><path d="M283.08,143.1v17.28h-0.86v-16.24h-84.46v16.24h-0.86v-17.28h86.18" fill="#1c9b47" stroke="#1c9b47"/><path d="M197.76,144.14h84.46v16.24h-2v-14.3h-80.44v14.3h-2.02v-16.24" fill="#007c2c" stroke="#007c2c"/></g><g><path d="M289.54,161.84c0.37,0.542 0.565,1.184 0.56,1.84v11.6h-100.2v-11.6c-0.005,-0.656 0.19,-1.298 0.56,-1.84z" fill="#ffdb48" stroke="none" stroke-width="1" stroke-linecap="butt" stroke-linejoin="miter"/><path d="M289.54,161.84h-99.08c0.618,-0.907 1.642,-1.453 2.74,-1.46h93.6c1.098,0.007 2.122,0.553 2.74,1.46z" fill="#ffed9f" stroke="none" stroke-width="1" stroke-linecap="butt" stroke-linejoin="miter"/><path d="M289.84,216.42h-99.58c-0.169,-0.406 -0.257,-0.841 -0.26,-1.28v-39.86h100.1v39.86c-0.003,0.439 -0.091,0.874 -0.26,1.28z" fill="#d2a6cc" stroke="none" stroke-width="1" stroke-linecap="butt" stroke-linejoin="miter"/><path d="M289.84,216.42c-0.525,1.212 -1.719,1.997 -3.04,2h-93.6c-1.321,-0.003 -2.515,-0.788 -3.04,-2z" fill="#9f509e" stroke="none" stroke-width="1" stroke-linecap="butt" stroke-linejoin="miter"/><path d="M193.98,188.64l0.6,1.54" fill="none" stroke="#ca90c7" stroke-width="0.5" stroke-linecap="round" stroke-linejoin="round"/><path d="M225.6,189.96l-1.44,1.26" fill="none" stroke="#ca90c7" stroke-width="0.5" stroke-linecap="round" stroke-linejoin="round"/><path d="M216.54,184.36l0.96,1" fill="none" stroke="#ca90c7" stroke-width="0.5" stroke-linecap="round" stroke-linejoin="round"/><path d="M219.12,213.82l-1.78,0.86" fill="none" stroke="#ca90c7" stroke-width="0.5" stroke-linecap="round" stroke-linejoin="round"/><path d="M196.42,212.94l-0.3,1.3" fill="none" stroke="#ca90c7" stroke-width="0.5" stroke-linecap="round" stroke-linejoin="round"/><path d="M192.38,202.8v-1.76" fill="none" stroke="#ca90c7" stroke-width="0.5" stroke-linecap="round" stroke-linejoin="round"/><path d="M224.7,207.08l-0.66,1.74" fill="none" stroke="#ca90c7" stroke-width="0.5" stroke-linecap="round" stroke-linejoin="round"/><path d="M259.42,186.36l-0.8,1.4" fill="none" stroke="#ca90c7" stroke-width="0.5" stroke-linecap="round" stroke-linejoin="round"/><path d="M282.86,185.92l0.62,1.4" fill="none" stroke="#ca90c7" stroke-width="0.5" stroke-linecap="round" stroke-linejoin="round"/><path d="M287,208.38l-1.28,0.9" fill="none" stroke="#ca90c7" stroke-width="0.5" stroke-linecap="round" stroke-linejoin="round"/><path d="M280.02,214.58h1.58" fill="none" stroke="#ca90c7" stroke-width="0.5" stroke-linecap="round" stroke-linejoin="round"/><path d="M262.2,214.4l-1.16,-1.34" fill="none" stroke="#ca90c7" stroke-width="0.5" stroke-linecap="round" stroke-linejoin="round"/><path d="M255.72,205.2v1.84" fill="none" stroke="#ca90c7" stroke-width="0.5" stroke-linecap="round" stroke-linejoin="round"/><path d="M255.18,193.64l1.08,1.62" fill="none" stroke="#ca90c7" stroke-width="0.5" stroke-linecap="round" stroke-linejoin="round"/><path d="M201.9,184.86h1.86" fill="none" stroke="#ca90c7" stroke-width="0.5" stroke-linecap="round" stroke-linejoin="round"/></g><g><path d="M204.56,158.46h5.86v2h-5.86z" fill="#c9e2b3" stroke="none" stroke-width="1" stroke-linecap="butt" stroke-linejoin="miter"/><path d="M204.56,156.54h5.86v2h-5.86z" fill="#ffffff" stroke="none" stroke-width="1" stroke-linecap="butt" stroke-linejoin="miter"/><path d="M212.5,156.54h5.86v2h-5.86z" fill="#ffffff" stroke="none" stroke-width="1" stroke-linecap="butt" stroke-linejoin="miter"/><path d="M212.5,158.46h5.86v2h-5.86z" fill="#c9e2b3" stroke="none" stroke-width="1" stroke-linecap="butt" stroke-linejoin="miter"/><path d="M224.88,158.46h5.86v2h-5.86z" fill="#c9e2b3" stroke="none" stroke-width="1" stroke-linecap="butt" stroke-linejoin="miter"/><path d="M224.88,156.54h5.86v2h-5.86z" fill="#ffffff" stroke="none" stroke-width="1" stroke-linecap="butt" stroke-linejoin="miter"/><path d="M232.82,158.46h5.86v2h-5.86z" fill="#c9e2b3" stroke="none" stroke-width="1" stroke-linecap="butt" stroke-linejoin="miter"/><path d="M232.82,156.54h5.86v2h-5.86z" fill="#ffffff" stroke="none" stroke-width="1" stroke-linecap="butt" stroke-linejoin="miter"/><path d="M240.7,158.46h5.86v2h-5.86z" fill="#ffffff" stroke="none" stroke-width="1" stroke-linecap="butt" stroke-linejoin="miter"/><path d="M248.64,158.46h5.86v2h-5.86z" fill="#c9e2b3" stroke="none" stroke-width="1" stroke-linecap="butt" stroke-linejoin="miter"/><path d="M248.64,156.54h5.86v2h-5.86z" fill="#ffffff" stroke="none" stroke-width="1" stroke-linecap="butt" stroke-linejoin="miter"/><path d="M261.62,156.54h5.86v2h-5.86z" fill="#ffffff" stroke="none" stroke-width="1" stroke-linecap="butt" stroke-linejoin="miter"/><path d="M261.62,158.46h5.86v2h-5.86z" fill="#c9e2b3" stroke="none" stroke-width="1" stroke-linecap="butt" stroke-linejoin="miter"/><path d="M269.54,156.54h5.86v2h-5.86z" fill="#ffffff" stroke="none" stroke-width="1" stroke-linecap="butt" stroke-linejoin="miter"/><path d="M269.54,158.46h5.86v2h-5.86z" fill="#c9e2b3" stroke="none" stroke-width="1" stroke-linecap="butt" stroke-linejoin="miter"/><path d="M204.56,158.46v-1.92h5.86v1.92v1.92h-5.86v-1.92" fill="none" stroke="#149948" stroke-width="0.5" stroke-linecap="round" stroke-linejoin="round"/><path d="M212.48,158.46v-1.92h5.88v1.92v1.92h-5.88v-1.92" fill="none" stroke="#149948" stroke-width="0.5" stroke-linecap="round" stroke-linejoin="round"/><path d="M224.88,158.46v-1.92h5.86v1.92v1.92h-5.86v-1.92" fill="none" stroke="#149948" stroke-width="0.5" stroke-linecap="round" stroke-linejoin="round"/><path d="M232.82,158.46v-1.92h5.86v1.92v1.92h-5.86v-1.92" fill="none" stroke="#149948" stroke-width="0.5" stroke-linecap="round" stroke-linejoin="round"/><path d="M240.7,158.46h5.86v2h-5.86z" fill="none" stroke="#149948" stroke-width="0.5" stroke-linecap="round" stroke-linejoin="round"/><path d="M248.64,158.46v-1.92h5.86v1.92v1.92h-5.86v-1.92" fill="none" stroke="#149948" stroke-width="0.5" stroke-linecap="round" stroke-linejoin="round"/><path d="M261.62,158.46v-1.92h5.86v1.92v1.92h-5.86v-1.92" fill="none" stroke="#149948" stroke-width="0.5" stroke-linecap="round" stroke-linejoin="round"/><path d="M269.54,156.54h5.86v1.92v1.92h-5.86v-1.92v-1.92" fill="none" stroke="#149948" stroke-width="0.5" stroke-linecap="round" stroke-linejoin="round"/></g><g stroke-linecap="butt" stroke-linejoin="miter"><path d="M205.28,164.14h68.84v7.46h-68.84z" fill="#ffffff" stroke="#5e154d" stroke-width="0.72"/><path d="M229.02,166.76h41.06" fill="none" stroke="#5e154d" stroke-width="0.5"/><path d="M229.02,169.02h41.06" fill="none" stroke="#5e154d" stroke-width="0.5"/><path d="M249.56,171.62v-7.48" fill="none" stroke="#5e154d" stroke-width="0.5"/><g stroke-width="2"><path d="M209.66,166.76h3.5v2.26h-3.5z" fill="#007c2c" stroke="#007c2c"/><path d="M213.16,166.76h3.38v2.26h-3.38z" fill="#f05822" stroke="#f05822"/><path d="M216.54,166.76h3.38v2.26h-3.38z" fill="#007c2c" stroke="#007c2c"/><path d="M219.92,166.76h3.5v2.26h-3.5z" fill="#f05822" stroke="#f05822"/></g></g><g stroke="#f05822" stroke-linecap="butt" stroke-linejoin="miter"><path d="M197.62,162.96c1.357,0 2.587,0.551 3.478,1.442c0.891,0.891 1.442,2.121 1.442,3.478c0,1.357 -0.551,2.587 -1.442,3.478c-0.891,0.891 -2.121,1.442 -3.478,1.442c-1.357,0 -2.587,-0.551 -3.478,-1.442c-0.891,-0.891 -1.442,-2.121 -1.442,-3.478c0,-1.357 0.551,-2.587 1.442,-3.478c0.891,-0.891 2.121,-1.442 3.478,-1.442z" fill="#ffffff" stroke-width="0.96"/><path d="M193.06,169.68l6.36,-6.34" fill="none" stroke-width="0.5"/><path d="M194.34,170.96l6.34,-6.34" fill="none" stroke-width="0.5"/><path d="M201.92,165.84l-6.34,6.36" fill="none" stroke-width="0.5"/><path d="M202.16,169.92l-6.34,-6.34" fill="none" stroke-width="0.5"/><path d="M200.88,171.2l-6.34,-6.34" fill="none" stroke-width="0.5"/><path d="M199.66,172.44l-6.36,-6.36" fill="none" stroke-width="0.5"/><path d="M197.62,164.24c1.004,0 1.914,0.408 2.573,1.067c0.659,0.659 1.067,1.569 1.067,2.573c0,1.004 -0.408,1.914 -1.067,2.573c-0.659,0.659 -1.569,1.067 -2.573,1.067c-1.004,0 -1.914,-0.408 -2.573,-1.067c-0.659,-0.659 -1.067,-1.569 -1.067,-2.573c0,-1.004 0.408,-1.914 1.067,-2.573c0.659,-0.659 1.569,-1.067 2.573,-1.067z" fill="none" stroke-width="0.5"/></g><g stroke="#f05822" stroke-linecap="butt" stroke-linejoin="miter"><path d="M282.08,162.96c1.357,0 2.587,0.551 3.478,1.442c0.891,0.891 1.442,2.121 1.442,3.478c0,1.357 -0.551,2.587 -1.442,3.478c-0.891,0.891 -2.121,1.442 -3.478,1.442c-1.357,0 -2.587,-0.551 -3.478,-1.442c-0.891,-0.891 -1.442,-2.121 -1.442,-3.478c0,-1.357 0.551,-2.587 1.442,-3.478c0.891,-0.891 2.121,-1.442 3.478,-1.442z" fill="#ffffff" stroke-width="0.96"/><path d="M282.08,164.24c1.004,0 1.914,0.408 2.573,1.067c0.659,0.659 1.067,1.569 1.067,2.573c0,1.004 -0.408,1.914 -1.067,2.573c-0.659,0.659 -1.569,1.067 -2.573,1.067c-1.004,0 -1.914,-0.408 -2.573,-1.067c-0.659,-0.659 -1.067,-1.569 -1.067,-2.573c0,-1.004 0.408,-1.914 1.067,-2.573c0.659,-0.659 1.569,-1.067 2.573,-1.067z" fill="none" stroke-width="0.5"/><path d="M283.88,163.34l-6.36,6.34" fill="none" stroke-width="0.5"/><path d="M278.8,170.96l6.34,-6.34" fill="none" stroke-width="0.5"/><path d="M280.04,172.2l6.34,-6.36" fill="none" stroke-width="0.5"/><path d="M280.28,163.58l6.34,6.34" fill="none" stroke-width="0.5"/><path d="M279,164.86l6.36,6.34" fill="none" stroke-width="0.5"/><path d="M284.12,172.44l-6.36,-6.36" fill="none" stroke-width="0.5"/></g><g><path d="M209.02,185.36c3.984,0 7.594,1.618 10.208,4.232c2.614,2.614 4.232,6.224 4.232,10.208c0,3.984 -1.618,7.594 -4.232,10.208c-2.614,2.614 -6.224,4.232 -10.208,4.232c-3.984,0 -7.594,-1.618 -10.208,-4.232c-2.614,-2.614 -4.232,-6.224 -4.232,-10.208c0,-3.984 1.618,-7.594 4.232,-10.208c2.614,-2.614 6.224,-4.232 10.208,-4.232z" fill="#ca90c7" stroke="none" stroke-width="1" stroke-linecap="butt" stroke-linejoin="miter"/><path d="M209.02,188.12c3.222,0 6.142,1.309 8.257,3.423c2.114,2.115 3.423,5.035 3.423,8.257c0,3.222 -1.309,6.142 -3.423,8.257c-2.115,2.114 -5.035,3.423 -8.257,3.423c-3.222,0 -6.142,-1.309 -8.257,-3.423c-2.114,-2.115 -3.423,-5.035 -3.423,-8.257c0,-3.222 1.309,-6.142 3.423,-8.257c2.115,-2.114 5.035,-3.423 8.257,-3.423z" fill="#eac5dd" stroke="#eac5dd" stroke-width="0.5" stroke-linecap="round" stroke-linejoin="round"/><g fill="none" stroke="#9f509e" stroke-width="0.72" stroke-linecap="butt" stroke-linejoin="miter"><path d="M193.64,203.38l19.06,-19.06"/><path d="M196,205.78l19.06,-19.06"/><path d="M198.36,208.18l19.08,-19.08"/><path d="M200.72,210.56l19.08,-19.06"/><path d="M222.16,193.9l-19.08,19.06"/><path d="M205.46,215.36l19.06,-19.08"/><path d="M212.62,215.28l-19.06,-19.08"/><path d="M195.96,193.84l19.06,19.08"/><path d="M217.42,210.56l-19.08,-19.08"/><path d="M200.74,189.12l19.06,19.06"/><path d="M203.14,186.76l19.06,19.06"/><path d="M205.52,184.4l19.08,19.06"/></g><path d="M209.02,188.12c3.222,0 6.142,1.309 8.257,3.423c2.114,2.115 3.423,5.035 3.423,8.257c0,3.222 -1.309,6.142 -3.423,8.257c-2.115,2.114 -5.035,3.423 -8.257,3.423c-3.222,0 -6.142,-1.309 -8.257,-3.423c-2.114,-2.115 -3.423,-5.035 -3.423,-8.257c0,-3.222 1.309,-6.142 3.423,-8.257c2.115,-2.114 5.035,-3.423 8.257,-3.423z" fill="none" stroke="#5e154d" stroke-width="0.96" stroke-linecap="round" stroke-linejoin="round"/></g><g><g fill="none" stroke="#9f509e" stroke-width="0.72" stroke-linecap="butt" stroke-linejoin="miter"><path d="M255.64,203.38l19.06,-19.06"/><path d="M258,205.78l19.06,-19.06"/><path d="M260.36,208.18l19.08,-19.08"/><path d="M262.72,210.56l19.08,-19.06"/><path d="M284.16,193.9l-19.08,19.06"/><path d="M267.46,215.36l19.06,-19.08"/><path d="M274.62,215.28l-19.06,-19.08"/><path d="M257.96,193.84l19.06,19.08"/><path d="M279.42,210.56l-19.08,-19.08"/><path d="M281.8,208.18l-19.06,-19.06"/><path d="M284.2,205.82l-19.06,-19.06"/><path d="M286.6,203.46l-19.08,-19.06"/></g><path d="M271.02,185.36c3.984,0 7.594,1.618 10.208,4.232c2.614,2.614 4.232,6.224 4.232,10.208c0,3.984 -1.618,7.594 -4.232,10.208c-2.614,2.614 -6.224,4.232 -10.208,4.232c-3.984,0 -7.594,-1.618 -10.208,-4.232c-2.614,-2.614 -4.232,-6.224 -4.232,-10.208c0,-3.984 1.618,-7.594 4.232,-10.208c2.614,-2.614 6.224,-4.232 10.208,-4.232z" fill="#ca90c7" stroke="none" stroke-width="1" stroke-linecap="butt" stroke-linejoin="miter"/><path d="M271.02,188.12c3.222,0 6.142,1.309 8.257,3.423c2.114,2.115 3.423,5.035 3.423,8.257c0,3.222 -1.309,6.142 -3.423,8.257c-2.115,2.114 -5.035,3.423 -8.257,3.423c-3.222,0 -6.142,-1.309 -8.257,-3.423c-2.114,-2.115 -3.423,-5.035 -3.423,-8.257c0,-3.222 1.309,-6.142 3.423,-8.257c2.115,-2.114 5.035,-3.423 8.257,-3.423z" fill="#eac5dd" stroke="#eac5dd" stroke-width="0.5" stroke-linecap="round" stroke-linejoin="round"/><g fill="none" stroke="#9f509e" stroke-width="0.72" stroke-linecap="butt" stroke-linejoin="miter"><path d="M256.04,203.38l19.08,-19.06"/><path d="M258.4,205.78l19.08,-19.06"/><path d="M260.78,208.18l19.06,-19.08"/><path d="M263.14,210.56l19.06,-19.06"/><path d="M265.5,212.96l19.06,-19.06"/><path d="M267.86,215.36l19.06,-19.08"/><path d="M255.96,196.2l19.08,19.08"/><path d="M277.44,212.92l-19.08,-19.08"/><path d="M279.82,210.56l-19.06,-19.08"/><path d="M282.22,208.18l-19.08,-19.06"/><path d="M284.62,205.82l-19.08,-19.06"/><path d="M287,203.46l-19.06,-19.06"/></g><path d="M271.02,188.12c3.222,0 6.142,1.309 8.257,3.423c2.114,2.115 3.423,5.035 3.423,8.257c0,3.222 -1.309,6.142 -3.423,8.257c-2.115,2.114 -5.035,3.423 -8.257,3.423c-3.222,0 -6.142,-1.309 -8.257,-3.423c-2.114,-2.115 -3.423,-5.035 -3.423,-8.257c0,-3.222 1.309,-6.142 3.423,-8.257c2.115,-2.114 5.035,-3.423 8.257,-3.423z" fill="none" stroke="#5e154d" stroke-width="0.96" stroke-linecap="round" stroke-linejoin="round"/></g><g stroke-linecap="butt" stroke-linejoin="miter"><path d="M194.56,177.86h28.88v4.5h-28.88z" fill="#eac5dd" stroke="#eac5dd" stroke-width="0.5"/><path d="M257.14,177.86h28.88v4.5h-28.88z" fill="#eac5dd" stroke="#ec2777" stroke-width="0.5"/><path d="M257.14,177.92h28.88v4.5h-28.88z" fill="none" stroke="#9f509e" stroke-width="0.72"/><path d="M223.44,179.36h-28.88" fill="none" stroke="#9f509e" stroke-width="0.5"/><path d="M194.58,180.88h28.86" fill="none" stroke="#9f509e" stroke-width="0.5"/><path d="M286.02,179.36h-28.88" fill="none" stroke="#9f509e" stroke-width="0.5"/><path d="M257.14,180.88h28.88" fill="none" stroke="#9f509e" stroke-width="0.5"/><path d="M194.56,177.86h28.88v4.5h-28.88z" fill="none" stroke="#9f509e" stroke-width="0.72"/></g><g><path d="M230.5,189.96h20.3v10.6h-20.3z" fill="#5e154d" stroke="#5e154d" stroke-width="0.96" stroke-linecap="round" stroke-linejoin="round"/><path d="M228.06,177.92h25.3v9.66h-25.3z" fill="#ffdb48" stroke="none" stroke-width="1" stroke-linecap="butt" stroke-linejoin="miter"/><path d="M228.06,203.52h25.3v11.06h-25.3z" fill="#007c2c" stroke="none" stroke-width="1" stroke-linecap="butt" stroke-linejoin="miter"/><path d="M228.06,187.58h25.3v15.96h-25.3z" fill="none" stroke="none" stroke-width="1" stroke-linecap="butt" stroke-linejoin="miter"/><path d="M255.18,218.44h-29.06l1.94,-3.84h25.3l1.82,3.84" fill="#5e154d" stroke="#5e154d" stroke-width="0.72" stroke-linecap="round" stroke-linejoin="round"/><path d="M228.06,177.92h25.3v9.66h-25.3z" fill="#f05822" stroke="none" stroke-width="1" stroke-linecap="butt" stroke-linejoin="miter"/><path d="M228.06,177.92h25.3v9.66v15.96v11.06h-25.3v-11.06v-15.96v-9.66" fill="none" stroke="#5e154d" stroke-width="0.72" stroke-linecap="round" stroke-linejoin="round"/><path d="M230.5,180.68h20.3v4.5h-20.3z" fill="#ffdb48" stroke="#5e154d" stroke-width="0.72" stroke-linecap="round" stroke-linejoin="round"/><path d="M232.84,182v1.86" fill="none" stroke="#5e154d" stroke-width="0.5" stroke-linecap="round" stroke-linejoin="round"/><path d="M238.08,182v1.86" fill="none" stroke="#5e154d" stroke-width="0.5" stroke-linecap="round" stroke-linejoin="round"/><path d="M243.32,182v1.86" fill="none" stroke="#5e154d" stroke-width="0.5" stroke-linecap="round" stroke-linejoin="round"/><path d="M248.56,182v1.86" fill="none" stroke="#5e154d" stroke-width="0.5" stroke-linecap="round" stroke-linejoin="round"/><path d="M230.5,182.92h20.3" fill="none" stroke="#5e154d" stroke-width="0.5" stroke-linecap="round" stroke-linejoin="round"/><g stroke="#5e154d" stroke-width="0.72" stroke-linecap="butt" stroke-linejoin="miter"><path d="M230.5,205.98h20.3v3.02h-20.3z" fill="#ffffff"/><path d="M230.5,209h20.3v3.02h-20.3z" fill="#ffdb48"/><path d="M235.66,205.96v3.04" fill="none"/><path d="M245.62,209v-3.04" fill="none"/><path d="M240.64,209v-3.04" fill="none"/></g><path d="M235.42,198.04c-1.535,0 -2.78,-1.245 -2.78,-2.78c0,-1.535 1.245,-2.78 2.78,-2.78c1.535,0 2.78,1.245 2.78,2.78c0,1.535 -1.245,2.78 -2.78,2.78zM240,195.26h1.28z" fill="none" stroke="#ffffff" stroke-width="0.72" stroke-linecap="round" stroke-linejoin="round"/><path d="M245.88,192.48c0.767,0 1.462,0.312 1.965,0.815c0.503,0.503 0.815,1.198 0.815,1.965c0,0.767 -0.312,1.462 -0.815,1.965c-0.503,0.503 -1.198,0.815 -1.965,0.815c-0.767,0 -1.462,-0.312 -1.965,-0.815c-0.503,-0.503 -0.815,-1.198 -0.815,-1.965c0,-0.767 0.312,-1.462 0.815,-1.965c0.503,-0.503 1.198,-0.815 1.965,-0.815z" fill="none" stroke="#ffffff" stroke-width="0.72" stroke-linecap="round" stroke-linejoin="round"/><path d="M235.42,193.26c0.552,0 1.052,0.224 1.414,0.586c0.362,0.362 0.586,0.862 0.586,1.414c0,0.552 -0.224,1.052 -0.586,1.414c-0.362,0.362 -0.862,0.586 -1.414,0.586c-0.552,0 -1.052,-0.224 -1.414,-0.586c-0.362,-0.362 -0.586,-0.862 -0.586,-1.414c0,-0.552 0.224,-1.052 0.586,-1.414c0.362,-0.362 0.862,-0.586 1.414,-0.586z" fill="#ffffff" stroke="#ffffff" stroke-width="0.5" stroke-linecap="round" stroke-linejoin="round"/><path d="M245.88,193.26c0.552,0 1.052,0.224 1.414,0.586c0.362,0.362 0.586,0.862 0.586,1.414c0,0.552 -0.224,1.052 -0.586,1.414c-0.362,0.362 -0.862,0.586 -1.414,0.586c-0.552,0 -1.052,-0.224 -1.414,-0.586c-0.362,-0.362 -0.586,-0.862 -0.586,-1.414c0,-0.552 0.224,-1.052 0.586,-1.414c0.362,-0.362 0.862,-0.586 1.414,-0.586z" fill="#ffffff" stroke="#ffffff" stroke-width="0.5" stroke-linecap="round" stroke-linejoin="round"/></g><g fill="none" stroke="#ffffff" stroke-width="0.96" stroke-linecap="butt" stroke-linejoin="miter"><path d="M287.98,200.74v2.36"/><path d="M287.98,184.24v14.52"/></g><path d="M290.1,163.68v51.46c0,0.875 -0.348,1.715 -0.967,2.333c-0.618,0.619 -1.458,0.967 -2.333,0.967h-93.5c-1.823,0 -3.3,-1.477 -3.3,-3.3v-51.46c-0.001,-1.784 1.417,-3.246 3.2,-3.3h93.6c1.823,0 3.3,1.477 3.3,3.3z" fill="none" stroke="#5e154d" stroke-width="0.96" stroke-linecap="round" stroke-linejoin="round"/></g></g></g></svg>