<svg version="1.1" xmlns="http://www.w3.org/2000/svg" xmlns:xlink="http://www.w3.org/1999/xlink" width="96.3855" height="80" viewBox="0,0,96.3855,80"><g transform="translate(-193.597,-141.0048)"><g data-paper-data="{&quot;isPaintingLayer&quot;:true}" fill-rule="nonzero" stroke="none" stroke-linecap="butt" stroke-linejoin="miter" stroke-miterlimit="10" stroke-dasharray="" stroke-dashoffset="0" style="mix-blend-mode: normal"><path d="M288.0548,150.6434c-0.6303,6.9985 -6.106,11.3976 -8.6747,16.3855c-5.6462,10.9658 -5.3137,28.8771 -10.6024,41.4458c-3.8554,0 -7.7108,0 -11.5662,0c-1.6781,-13.1007 -6.3923,-23.1653 -12.5302,-31.8072c-7.518,7.2607 -7.9065,21.652 -11.5662,32.7711c-2.0849,0.7903 -7.0102,-0.533 -10.6024,0.9638c-7.8237,-19.1643 -15.1827,-38.7932 -23.1326,-57.8313c3.1345,-2.6487 7.8371,-3.7292 13.494,-3.8554c4.7133,12.6361 7.7802,26.9185 16.3855,35.6626c3.9702,-9.8448 10.4916,-17.1393 15.4217,-26.0241c8.4983,4.3528 9.5856,16.1176 17.3494,21.2048c4.7383,-3.4939 2.3721,-9.5739 3.8555,-14.4578c0.5821,-1.9161 3.0544,-2.9687 3.8554,-4.8193c1.8178,-4.1995 1.4062,-10.4559 3.8554,-14.4578c7.3937,-0.9677 10.9802,1.8708 14.4578,4.8193z" fill="#ff9400" stroke-width="0.96386"/><path d="M230.2235,221.0048c-5.7831,0 -11.5663,0 -17.3494,0c-7.2935,-15.84 -12.2169,-34.0482 -19.2771,-50.1205c0,-4.4983 0,-8.9956 0,-13.4939c6.3643,-0.9687 0.1176,-5.6203 0.9638,-9.6386c9.0092,0.9774 13.361,-2.7026 20.241,-3.8554c2.8935,9.9576 6.8472,18.8549 10.6024,27.9518c4.4463,-5.8342 6.7518,-13.8111 11.5663,-19.2771c3.2935,-0.7229 1.225,3.9161 4.8193,2.8916c1.5094,-1.3822 0.7585,-5.0237 3.8554,-4.8193c5.4747,2.5581 5.1749,10.8896 10.6024,13.494c2.5349,-5.8188 4.4964,-12.2102 6.747,-18.3133c2.3759,-0.1272 4.6438,-0.1455 5.7831,0.9639c-0.0434,-2.934 2.0347,-3.7485 2.8916,-5.7832c0.9638,0 1.9277,0 2.8916,0c0,0.321 0,0.6429 0,0.9639c5.8766,0.5494 10.3518,2.4993 15.4216,3.8554c0,3.2125 0,6.426 0,9.6386c-0.3209,0 -0.6429,0 -0.9638,0c-2.0492,8.9388 -7.921,17.5132 -10.6024,26.9879c-0.5774,2.0405 0.4009,4.7769 0,6.747c-1.4304,7.0352 -7.04,13.7648 -4.8193,21.2048c-8.3894,-1.3214 -4.7682,9.3687 -10.6024,10.6024c-0.9639,0 -1.9277,0 -2.8916,0c0,-0.3209 0,-0.6429 0,-0.9638c-3.5431,-1.9316 -6.4809,-0.0877 -10.6024,0c-3.5817,-10.4463 -1.5981,-20.773 -7.7108,-27.9518c-1.547,7.1277 -3.8304,13.518 -5.7832,20.2409c-7.0602,-1.4303 -4.7894,6.5514 -5.7831,8.6747zM273.597,145.8241c-2.4492,4.0019 -2.0376,10.2583 -3.8554,14.4578c-0.801,1.8506 -3.2733,2.9032 -3.8554,4.8193c-1.4834,4.8839 0.8828,10.9639 -3.8555,14.4578c-7.7638,-5.0872 -8.8511,-16.852 -17.3494,-21.2048c-4.9301,8.8848 -11.4515,16.1793 -15.4217,26.0241c-8.6053,-8.7441 -11.6722,-23.0265 -16.3855,-35.6626c-5.6569,0.1262 -10.3595,1.2067 -13.494,3.8554c7.9499,19.0381 15.3089,38.667 23.1326,57.8313c3.5922,-1.4968 8.5175,-0.1735 10.6024,-0.9638c3.6597,-11.1191 4.0482,-25.5104 11.5662,-32.7711c6.1379,8.6419 10.8521,18.7065 12.5302,31.8072c3.8554,0 7.7108,0 11.5662,0c5.2887,-12.5687 4.9562,-30.48 10.6024,-41.4458c2.5687,-4.9879 8.0444,-9.387 8.6747,-16.3855c-3.4776,-2.9485 -7.0641,-5.787 -14.4578,-4.8193z" fill="#ffffff" stroke-width="0.96386"/><path d="M288.09734,150.61713c-0.6303,6.9985 -6.10076,11.40914 -8.66946,16.39704c-5.6462,10.9658 -5.32972,28.93043 -10.61842,41.49913c-3.8554,0 -7.72231,0.0071 -11.57771,0.0071c-1.6781,-13.1007 -6.44162,-23.17033 -12.57952,-31.81223c-7.518,7.2607 -7.89342,21.65869 -11.55312,32.77779c-2.0849,0.7903 -7.0216,-0.53854 -10.6138,0.95826c-7.8237,-19.1643 -15.19868,-38.85992 -23.14858,-57.89802c3.1345,-2.6487 7.91672,-3.66987 13.57362,-3.79607c4.7133,12.6361 7.78972,26.86393 16.39502,35.60803c3.9702,-9.8448 10.44828,-17.1691 15.37838,-26.0539c8.4983,4.3528 9.63298,16.17174 17.39678,21.25894c4.7383,-3.4939 2.27907,-9.55293 3.76247,-14.43683c0.5821,-1.9161 3.05628,-2.96571 3.85728,-4.81631c1.8178,-4.1995 1.48153,-10.5207 3.93073,-14.5226c7.3937,-0.9677 10.98873,1.88118 14.46633,4.82968z" data-paper-data="{&quot;noHover&quot;:false,&quot;origItem&quot;:[&quot;Path&quot;,{&quot;applyMatrix&quot;:true,&quot;segments&quot;:[[[273.597,145.8241],[7.3937,-0.9677],[-2.4492,4.0019]],[[269.7416,160.2819],[1.8178,-4.1995],[-0.801,1.8506]],[[265.8862,165.1012],[0.5821,-1.9161],[-1.4834,4.8839]],[[262.0307,179.559],[4.7383,-3.4939],[-7.7638,-5.0872]],[[244.6813,158.3542],[8.4983,4.3528],[-4.9301,8.8848]],[[229.2596,184.3783],[3.9702,-9.8448],[-8.6053,-8.7441]],[[212.8741,148.7157],[4.7133,12.6361],[-5.6569,0.1262]],[[199.3801,152.5711],[3.1345,-2.6487],[7.9499,19.0381]],[[222.5127,210.4024],[-7.8237,-19.1643],[3.5922,-1.4968]],[[233.1151,209.4386],[-2.0849,0.7903],[3.6597,-11.1191]],[[244.6813,176.6675],[-7.518,7.2607],[6.1379,8.6419]],[[257.2115,208.4747],[-1.6781,-13.1007],[3.8554,0]],[[268.7777,208.4747],[-3.8554,0],[5.2887,-12.5687]],[[279.3801,167.0289],[-5.6462,10.9658],[2.5687,-4.9879]],[[288.0548,150.6434],[-0.6303,6.9985],[-3.4776,-2.9485]]],&quot;closed&quot;:true,&quot;fillColor&quot;:[0,0,0,1]}]}" fill="#ff9400" stroke-width="0.5"/></g></g></svg>