<svg version="1.1" xmlns="http://www.w3.org/2000/svg" xmlns:xlink="http://www.w3.org/1999/xlink" width="87.53566" height="126.4866" viewBox="0,0,87.53566,126.4866"><g transform="translate(-196.16194,-117.1171)"><g data-paper-data="{&quot;isPaintingLayer&quot;:true}" stroke="none" stroke-width="1" stroke-linecap="butt" stroke-linejoin="miter" stroke-miterlimit="10" stroke-dasharray="" stroke-dashoffset="0" style="mix-blend-mode: normal"><g fill-rule="evenodd"><path d="M255.8219,197.7351c2.9153,7.2957 8.9535,23.54 8.9535,23.54c0,0 -3.326,2.2067 -5.465,3.4137c-4.0029,-5.4043 -18.8681,-28.0706 -12.5908,-31.723c6.2773,-3.6524 9.1023,4.7693 9.1023,4.7693z" fill="#828278"/><path d="M264.7709,218.663c0.1715,0.1171 6.0787,17.3837 6.3495,18.1809c0.0677,0.2071 0.167,0.4053 0.2798,0.6755c0.1607,-0.1101 0.3117,-0.2336 0.4513,-0.3693c0.4152,-0.5134 0.8258,-1.0313 1.223,-1.5627c0.2436,-0.4029 0.6566,-0.6744 1.1237,-0.7386l0.1579,0.5719c0.0297,0.21 0.0889,0.4146 0.176,0.608c0.2392,0.3783 0.5325,0.7206 0.7897,1.0899c0.2573,0.3693 0.4513,0.6125 0.2573,1.0223c-0.5145,0 -0.695,-0.0766 -0.871,-0.6125c-0.2203,-0.4644 -0.5265,-0.883 -0.9026,-1.234l-0.6769,0.554c0.1209,0.2911 0.258,0.5753 0.4107,0.8511c0.1838,0.2652 0.3811,0.5207 0.5912,0.7656l0.0992,-0.099c0.2482,0.6169 0.2212,0.698 -0.3384,0.9367c-0.1941,-0.2747 -0.3836,-0.5765 -0.6047,-0.8512c-0.2212,-0.2747 -0.4513,-0.5224 -0.7085,-0.7971l-0.6183,0.4864c0.4964,0.8557 1.1147,1.4997 1.417,2.3238c-0.199,0.2577 -0.5644,0.3168 -0.8349,0.1351c-0.2645,-0.6781 -0.6346,-1.3104 -1.0966,-1.8735l-0.7356,0.5855c0.2844,0.4278 0.5371,0.7926 0.7717,1.1709c0.1941,0.3063 0.5371,0.554 0.3836,1.0764l-0.6002,0.1171c-0.3565,-0.5675 -0.4513,-1.261 -1.1959,-1.5177l-0.2121,0.5944l0.3024,0.2162l0.2888,0.1982c0.0271,0.1666 0.0632,0.3422 0.0812,0.5179c0.0677,0.5944 -0.185,0.7566 -0.8033,0.4954c-0.2391,-0.536 -0.3023,-1.2295 -0.9025,-1.4412c-0.2753,-0.4188 -0.5009,-0.7611 -0.7221,-1.1033c-0.4512,-0.7251 -0.9025,-1.4592 -1.3538,-2.1843c-0.3746,-0.5899 -0.7988,-1.1484 -1.1372,-1.7608c-0.4965,-0.9008 -8.0013,-11.8714 -8.2134,-12.1596c0.2798,-0.2702 7.2657,-4.7513 7.374,-4.8684z" fill="#000000"/><path d="M257.51679,224.6723l-1.10061,-1.71241l8.22281,-5.28503l1.10061,1.71241z" fill="#ffffff"/><path d="M259.37088,228.00172l-1.10061,-1.71241l8.22281,-5.28503l1.10061,1.71241z" fill="#ffffff"/><path d="M260.95816,231.28523l-1.10061,-1.71241l8.22281,-5.28503l1.10061,1.71241z" fill="#ffffff"/></g><g fill-rule="evenodd"><path d="M232.4862,224.6888l-7.7937,-0.0766c0.1142,-2.2211 0.0388,-4.4479 -0.2256,-6.6562c-0.3972,-2.9138 -2.1933,-7.2867 -2.3241,-7.9308c0,0 -1.575,-2.9047 4.1788,-3.8009c3.2628,-0.5089 5.0228,3.7244 5.7494,9.007c0.3495,3.1398 0.4882,6.2993 0.4152,9.4575z" fill="#828278"/><path d="M224.4308,232.3763c0.2405,-2.8095 0.1875,-5.6364 -0.158,-8.4351h8.7323c-0.203,5.6339 -2.1842,11.2949 -4.9641,16.1497c1.3539,0.0586 3.7457,-0.2432 4.8829,0.608l-0.2482,0.5089c-1.3539,0.3333 -0.1444,1.8014 -1.3539,2.1212c-0.3565,-0.617 0.2708,-2.9499 -1.3538,-2.1212c0.0361,0.59 0.3069,1.7429 -0.2211,2.2518l-0.4964,-0.1126c-0.1535,-0.7926 0.2437,-1.5808 -0.1444,-2.2923c-0.4198,-0.163 -0.8941,-0.0983 -1.2546,0.1711l0.1444,2.0626l-0.8484,0.2117v-1.8464c-0.4739,-0.0451 -0.6453,-0.563 -1.1733,-0.4504c-0.0452,0.7521 0.3113,2.3644 -0.9026,1.959c-0.0497,-0.644 0.343,-1.351 -0.2031,-1.968h-0.8574c-0.2708,0.2972 -0.0858,1.8464 -0.0858,2.0446l-0.4919,0.3648l-0.4512,-0.2657c-0.0723,-0.7881 1.2681,-9.2818 1.4486,-10.9617z" fill="#000000"/><path d="M223.8441,225.48592v-2.0356h9.70256v2.0356z" fill="#ffffff"/><path d="M224.29087,229.12929v-2.0356h8.80451v2.0356z" fill="#ffffff"/><path d="M224.20513,232.30879v-1.95454h8.07344v1.95454z" fill="#ffffff"/></g><g fill-rule="evenodd"><path d="M281.05313,129.62344l-0.18503,8.71887l-3.74113,-2.09415l-0.69949,-5.5889z" fill="#3c3c32"/><path d="M273.2595,117.7161c0,0 6.7692,-0.1712 10.1358,-0.0316c0.0948,3.5173 0.3023,15.6769 0.3023,15.6769l-10.5284,-0.1486z" fill="#ff0000"/><path d="M272.2667,179.1489c0.203,-6.2419 3.8359,-48.2329 3.7501,-48.94c-0.0406,-0.3107 -0.0406,-0.662 0.3836,-0.8241c0.3208,0.1158 0.578,0.361 0.7085,0.6755c0.3475,1.0403 0.713,2.0761 0.5235,3.2065c-0.0132,0.1754 -0.0132,0.3515 0,0.5269c2.0849,0.2432 3.3034,1.1574 3.3034,3.4362c0,2.2788 -0.0767,42.1307 -0.3069,51.2999c0,0 -0.2256,9.2863 -5.2258,7.0526c-5.0002,-2.2338 -3.1364,-16.4335 -3.1364,-16.4335z" fill="#828278"/></g><g><path d="M196.167,185.7376c1.76,-11.9929 10.2576,-26.4043 23.7509,-24.9406c0.7522,0.0841 1.5043,0.1996 2.2565,0.3468c-3.2222,-5.3097 -6.7422,-10.4888 -9.6394,-15.8435c-2.5407,-4.6927 -9.6936,-16.3704 -9.6936,-16.3704l4.7295,-11.2589l5.641,3.6389c0,0 21.1471,33.4794 27.2845,43.5403c4.8874,7.9938 9.5717,15.5687 10.7315,25.1883c0.9657,7.9938 -1.2275,15.3841 -7.8794,20.266c-3.353,2.4634 -6.8911,3.0489 -10.8984,4.0532c-6.9047,1.7293 -14.0575,2.9858 -20.3935,0c-12.1169,-5.697 -16.0566,-16.6677 -15.8896,-28.6201z" fill="#000000" fill-rule="evenodd"/><path d="M268.20513,159.95482l7.08513,14.89323l-27.99754,1.17993l-6.8279,-15.82096z" fill="#000000" fill-rule="evenodd"/><path d="M259.8474,168.6827c2.7483,0.626 6.0562,3.2065 5.9795,6.2734c-0.0813,3.1885 -2.8476,5.5124 -5.8441,5.7195c-4.4136,0.3063 -7.9606,-2.1977 -8.4119,-6.449c0.5189,-5.2692 5.2078,-6.2375 8.2765,-5.5439z" fill="#a0640a" fill-rule="evenodd"/><path d="M238.91241,158.04532l30.21785,0.90521l6.70154,15.75791l-5.11303,0.56745l-4.52636,-10.44372l-24.44144,0.01351z" fill="#828278" fill-rule="evenodd"/><path d="M244.4677,118.3511c3.881,5.8546 9.9959,15.0778 13.8092,21.0135c0.7988,1.234 10.5961,15.0599 14.8382,23.2969c6.7692,13.1503 8.8045,23.3103 8.448,30.1737c-0.1038,1.9636 -1.2501,10.6104 -4.7701,14.641c-5.3883,6.1699 -13.922,7.8677 -13.922,7.8677l-38.9773,0.608c0,0 15.0277,-3.7469 19.2743,-10.3086c2.6213,-4.2359 4.1257,-9.0651 4.3729,-14.0376c0.2482,-9.0701 -4.4857,-17.8655 -8.7864,-25.517c-4.5129,-8.0569 -27.8983,-44.6752 -30.8993,-47.8142zM246.9543,172.6008l25.0912,0.0495c0,0 -3.2943,-7.9082 -4.3187,-9.4935l-25.7231,0.0271z" fill="#3c3c32" fill-rule="nonzero"/><path d="M206.9887,117.1171c0.9026,0.0766 37.8265,0.1216 38.7471,0.2252c0.5826,0.0173 1.1371,0.2538 1.5524,0.662l0.2121,0.5494l-0.0812,0.581c-0.4421,0.4482 -1.066,0.6691 -1.6923,0.599c-0.9026,-0.1171 -35.7055,-0.1171 -36.6261,-0.0766z" fill="#000000" fill-rule="evenodd"/><path d="M209.0872,119.6571l-5.262,11.0472c0,0 -1.3042,0.3828 -1.8412,-0.4233c-0.3256,-0.5018 -0.4995,-1.0866 -0.5009,-1.6844l5.5056,-11.4795z" fill="#000000" fill-rule="evenodd"/><path d="M215.0892,173.7717c3.4839,-1.1439 6.7693,-0.2252 9.9282,1.6933c3.4007,2.1279 5.9315,5.3943 7.1393,9.2143c1.4367,4.1627 1.1641,8.7237 -0.7581,12.6865c-1.4258,2.9281 -3.9654,5.1658 -7.0536,6.2149c-3.8629,1.261 -7.9832,0.3828 -11.3497,-2.0311c-2.9079,-2.132 -5.0656,-5.127 -6.1645,-8.5568c-2.7077,-8.1469 1.241,-16.9153 8.2584,-19.2211z" fill="#3c3c32" fill-rule="evenodd"/><path d="M216.601,178.9688c2.2835,-0.7476 4.4226,-0.1441 6.494,1.1079c2.2227,1.3903 3.8768,3.5247 4.6662,6.0212c0.9398,2.7185 0.763,5.6978 -0.4919,8.2865c-0.9327,1.9102 -2.5915,3.3694 -4.6076,4.0532c-2.5409,0.7769 -5.3013,0.284 -7.4145,-1.324c-1.902,-1.3944 -3.3128,-3.3541 -4.03,-5.5979c-1.7464,-5.3232 0.8214,-11.0517 5.3838,-12.5469z" fill="#828278" fill-rule="evenodd"/></g><g fill-rule="evenodd"><path d="M218.4423,229.377c0,0 1.1327,4.5035 1.1552,5.3412c0.0226,0.8377 -0.361,0.8377 -0.6814,-0.0676c-0.3057,-0.707 -0.7181,-1.3631 -1.223,-1.9455z" fill="#3c3c32"/><path d="M215.4457,189.9574c0,0 -0.8484,-4.5035 3.8585,-4.5035c4.7069,0 4.0615,4.7512 4.0615,4.7512c-0.4016,4.6747 -5.1626,46.954 -5.5913,46.8865c-0.4288,-0.0676 -0.3836,-3.1525 -0.9026,-3.1525c-0.519,0 -0.6589,3.5308 -1.1779,3.5758c-0.5189,0.045 -0.2707,-3.5758 -0.7491,-3.6659c-0.4783,-0.0901 -0.6679,2.9273 -0.9025,2.9183c-0.5687,-0.0585 1.4034,-46.8099 1.4034,-46.8099z" fill="#828278"/><g><path d="M213.4827,229.0482v-1.4096c0.8348,-0.081 3.2221,-0.1036 4.0615,-0.1891c0.0406,0.1981 -0.1038,1.3916 -0.0722,1.6303c-0.1173,-0.0226 -2.4505,-0.0226 -3.9893,-0.0316z" fill="#f01446"/><path d="M218.9657,226.193c1.2952,0.671 1.5434,2.3328 0.3927,3.9001c-0.351,0.4862 -0.8816,0.8127 -1.4745,0.9074c-0.5929,0.0947 -1.1991,-0.0504 -1.6845,-0.4031c-1.5163,-1.0133 -1.1463,-2.8237 -0.4513,-4.2963c1.0126,-0.4737 2.1754,-0.5127 3.2176,-0.1081z" fill="#000000"/><path d="M218.361,227.2558c0.686,0.3603 0.8214,1.243 0.2076,2.0807c-0.1849,0.2644 -0.4696,0.4425 -0.7887,0.4934c-0.3191,0.051 -0.6452,-0.0296 -0.9036,-0.2232c-0.8168,-0.5405 -0.6182,-1.5087 -0.2482,-2.2923c0.5447,-0.2579 1.172,-0.2791 1.7329,-0.0586z" fill="#3c3c32"/></g></g></g></g></svg>