<svg version="1.1" xmlns="http://www.w3.org/2000/svg" xmlns:xlink="http://www.w3.org/1999/xlink" width="52.92792" height="79.73804" viewBox="0,0,52.92792,79.73804"><g transform="translate(-218.05278,-147.23776)"><g data-paper-data="{&quot;isPaintingLayer&quot;:true}" fill-rule="nonzero" stroke="none" stroke-width="0.84712" stroke-linecap="butt" stroke-linejoin="miter" stroke-miterlimit="10" stroke-dasharray="" stroke-dashoffset="0" style="mix-blend-mode: normal"><path d="M233.70731,147.3462c3.9408,-0.244 7.9062,0 11.8597,0c20.0201,0.1813 26.5006,23.8796 12.7068,34.7321c4.5271,7.6148 6.6661,17.6176 12.7069,23.7194c0,1.1292 0,2.2593 0,3.3885c-1.3681,-0.238 -1.4587,0.8006 -2.5414,0.8471c0.0941,2.1644 1.5528,2.965 2.5414,4.2357c0,0.8471 0,1.6942 0,2.5413c-5.5681,1.7731 -9.2946,5.3886 -14.4011,7.6241c-5.336,-7.9358 -6.971,-19.5719 -12.7069,-27.1079c-4.1534,4.8726 1.0234,14.2012 0,21.1781c-0.2566,1.7442 -2.6438,0.2287 -3.2614,1.2707c-0.9937,1.5358 0.6752,4.4796 -0.9742,5.5063c-3.1521,1.956 -8.1408,0.3303 -11.0126,1.6942c-1.4121,0 -2.8234,0 -4.2356,0c-3.153,-24.3777 -3.053,-43.6489 -5.9299,-66.0756c0,-1.4122 -0.914,-3.1632 0,-4.2357c1.4029,-1.6332 4.555,-1.0885 5.8452,-2.8802c1.0242,-1.3156 -1.352,-4.0585 0.0847,-5.0827c2.5549,-1.8162 6.3924,-0.8946 9.3184,-1.3554zM254.03821,152.4289c-7.9282,-0.7632 -18.2106,-4.699 -27.1079,0c3.5545,25.6831 0.8539,43.9149 5.0827,64.3814c3.6376,-0.033 6.2374,-1.1046 8.4712,-2.5413c-1.2673,-11.5319 -8.0883,-27.4299 7.6242,-27.9551c2.222,10.2019 9.0345,15.8149 11.8597,25.4137c2.9556,-1.28 6.0747,-2.3965 7.6241,-5.0828c-5.6096,-7.3792 -9.0888,-16.8899 -13.554,-25.4137c9.3091,-5.8163 11.6031,-23.6678 0,-28.8022z" fill="#ffffff"/><path d="M254.03821,181.2311c4.4652,8.5238 7.9444,18.0345 13.554,25.4137c-1.5494,2.6863 -4.6685,3.8028 -7.6241,5.0828c-2.8252,-9.5988 -9.6377,-15.2118 -11.8597,-25.4137c-15.7125,0.5252 -8.8915,16.4232 -7.6242,27.9551c-2.2338,1.4367 -4.8336,2.5083 -8.4712,2.5413c-4.2288,-20.4665 -1.5282,-38.6983 -5.0827,-64.3814c8.8973,-4.699 19.1797,-0.7632 27.1079,0c11.6031,5.1344 9.3091,22.9859 0,28.8022zM235.40151,157.5117c1.4486,10.135 0.6574,15.5794 2.5414,23.7194c9.514,-2.6277 17.6998,-6.5847 18.6367,-17.7896c-3.5511,-5.3411 -12.7035,-8.1705 -21.1781,-5.9298z" fill="#ff9400"/><path d="M256.57961,163.4415c-0.9369,11.2049 -9.1227,15.1619 -18.6367,17.7896c-1.884,-8.14 -1.0928,-13.5844 -2.5414,-23.7194c8.4746,-2.2407 17.627,0.5887 21.1781,5.9298zM239.63711,176.9955c4.0103,-2.2025 10.5552,-1.8696 9.3184,-9.3183c-2.0797,-1.8739 -5.6673,-2.239 -9.3184,-2.5414c0,3.9535 0,7.9062 0,11.8597z" fill="#ffffff"/></g></g></svg>