<svg version="1.1" xmlns="http://www.w3.org/2000/svg" xmlns:xlink="http://www.w3.org/1999/xlink" width="71.4954" height="66.9571" viewBox="0,0,71.4954,66.9571"><g transform="translate(-207.8215,-154.3384)"><g data-paper-data="{&quot;isPaintingLayer&quot;:true}" fill-rule="nonzero" stroke-linecap="butt" stroke-linejoin="miter" stroke-miterlimit="10" stroke-dasharray="" stroke-dashoffset="0" style="mix-blend-mode: normal"><g stroke="none" stroke-width="1.97993"><path d="M214.6444,171.128l25.7351,-8.0425l29.7445,8.0425l-2.6452,37.3732l-27.8417,12.2498l-22.7693,-11.2599l-2.2234,-38.3631" fill="#1f519b"/><path d="M214.6444,171.128l25.7351,-8.0425l29.9465,8.0425l-30.1108,8.2088l-25.5708,-8.2088" fill="#3579bc"/><path d="M240.2152,179.3368l30.1108,-8.2088l-2.8472,37.3732l-27.8417,12.2498l0.5781,-41.4142" fill="#2964aa"/><path d="M239.6252,221.2955l-23.2345,-11.4915l-2.2611,-39.0324l26.24,-8.2009l30.2771,8.187l-2.6946,38.0741l-28.3269,12.4637zM217.345,209.1744l22.3039,11.0302l27.3587,-12.038l2.5957,-36.6684l-29.2139,-7.8979l-25.2283,7.8841l2.1839,37.69z" fill="#000000"/></g><path d="M233.2656,164.9585l27.9349,8.6583l-1.7641,39.2759c0,0 -9.8898,4.039 -9.771,3.9856c0.1188,-0.0535 1.3008,-40.4698 1.3008,-40.4698l-26.4261,-8.5375z" fill="#ff8600" stroke="#000000" stroke-width="0.98997"/><path d="M250.0317,165.5604l9.4047,2.5977l-28.3071,8.2623l0.1267,40.737l-7.8128,-3.8648l-0.6415,-39.5452l27.23,-8.187" fill="#ff8600" stroke="#000000" stroke-width="0.98997"/><g><g stroke="none"><path d="M258.4801,173.7197c-7.9415,0 -15.0812,-1.3325 -17.3343,-1.7997l1.1246,-1.5464c1.9839,0.105 3.938,0.1584 5.817,0.1584c18.2807,0 26.6875,-4.8785 29.3168,-6.8287c-0.485,2.267 -2.5006,4.9082 -2.5224,4.9399l-0.4356,0.5643l0.6831,0.2098c0.889,0.2752 1.7423,0.4119 2.4353,0.4772c-4.738,2.5383 -11.149,3.8252 -19.0845,3.8252z" fill="#cecece" stroke-width="1.97993"/><path d="M276.4915,164.913c-3.653,2.2789 -12.2063,6.112 -28.4021,6.114c-1.8018,0 -3.6748,-0.0495 -5.5755,-0.1445l-0.5128,0.7048c2.8194,0.5485 9.3215,1.6374 16.479,1.6374c7.104,0 12.9606,-1.0355 17.4649,-3.0827c-0.3108,-0.0673 -0.6335,-0.1505 -0.9622,-0.2515l-1.3622,-0.4197l0.8672,-1.1306c0.4732,-0.6137 1.4117,-2.0155 2.0037,-3.4272M277.9982,162.5707c0.1644,2.6195 -2.7244,6.3714 -2.7263,6.3754c1.4275,0.4396 2.7501,0.5128 3.4708,0.5128c0.3623,0 0.5742,-0.0178 0.5742,-0.0178c-5.7715,3.7084 -13.6616,4.7756 -20.8388,4.7756c-9.7512,0 -18.1817,-1.972 -18.1817,-1.972l1.7324,-2.3799c2.1344,0.1188 4.1499,0.1723 6.0606,0.1723c22.4108,0 29.9088,-7.4664 29.9088,-7.4664z" fill="#000000" stroke-width="1.97993"/><path d="M276.54011,164.90129c-0.592,1.4117 -1.52917,2.82283 -2.00237,3.43653l-0.86716,1.13439l1.36215,0.42091c0.3287,0.101 0.65137,0.1848 0.96217,0.2521c-4.5043,2.0472 -10.41986,3.12866 -17.52386,3.12866c-7.1575,0 -13.70001,-1.13085 -16.51941,-1.67935l0.61198,-0.71741c1.9007,0.095 3.77324,0.14124 5.57504,0.14124c16.1958,-0.002 24.65124,-3.81474 28.30424,-6.09364" data-paper-data="{&quot;noHover&quot;:false,&quot;origItem&quot;:[&quot;Path&quot;,{&quot;applyMatrix&quot;:true,&quot;segments&quot;:[[[276.4915,164.913],[0,0],[-3.653,2.2789]],[[248.0894,171.027],[16.1958,-0.002],[-1.8018,0]],[[242.5139,170.8825],[1.9007,0.095],[0,0]],[[242.0011,171.5873],[0,0],[2.8194,0.5485]],[[258.4801,173.2247],[-7.1575,0],[7.104,0]],[[275.945,170.142],[-4.5043,2.0472],[-0.3108,-0.0673]],[[274.9828,169.8905],[0.3287,0.101],[0,0]],[273.6206,169.4708],[[274.4878,168.3402],[0,0],[0.4732,-0.6137]],[[276.4915,164.913],[-0.592,1.4117],[0,0]]],&quot;fillColor&quot;:[0,0,0,1]}]}" fill="#ff8600" stroke-width="0.5"/></g><g stroke="none"><path d="M222.9324,174.2345c-5.7398,0 -10.3669,-1.2869 -13.7764,-3.8331c0.5128,-0.0693 1.1385,-0.2099 1.7899,-0.4891l0.5068,-0.2158l-0.2692,-0.4811c-0.0159,-0.0297 -1.382,-2.5007 -1.7978,-4.738c2.2333,2.1284 8.4068,6.5655 21.0803,6.5655c1.3266,0 2.7086,-0.0495 4.1064,-0.1505l0.8236,1.5602c-1.6651,0.4752 -6.7812,1.7819 -12.4636,1.7819z" fill="#cecece" stroke-width="1.97993"/><path d="M210.2727,165.8851c0.4336,1.3028 1.0296,2.5264 1.3424,3.0887l0.5365,0.9623l-1.0137,0.4316c-0.2594,0.1109 -0.5148,0.2 -0.7623,0.2752c3.2214,2.0552 7.4307,3.0946 12.5548,3.0946c5.0627,0 9.6739,-1.0493 11.739,-1.5978l-0.3841,-0.7286c-1.3008,0.0852 -2.5818,0.1287 -3.8193,0.1287c-10.9926,0 -17.1937,-3.3243 -20.1933,-5.6547M208.7778,163.0855c0,0 5.4369,7.4663 21.6922,7.4644c1.3839,0 2.8471,-0.0535 4.3934,-0.1723l1.2553,2.3799c0,0 -6.114,1.972 -13.1843,1.972c-5.2053,0 -10.9273,-1.0672 -15.1129,-4.7756c0,0 0.1545,0.0178 0.4158,0.0178c0.5227,0 1.481,-0.0732 2.5165,-0.5128c0,0 -2.0967,-3.7539 -1.976,-6.3734z" fill="#000000" stroke-width="1.97993"/><path d="M210.3203,165.90042c2.9996,2.3304 9.10423,5.62881 20.09683,5.62881c1.2375,0 2.51782,-0.03964 3.81862,-0.12484l0.48276,0.74468c-2.0651,0.5485 -6.7196,1.63809 -11.7823,1.63809c-5.1241,0 -9.38909,-1.08563 -12.61049,-3.14083c0.2475,-0.0752 0.50284,-0.16528 0.76224,-0.27618l1.01364,-0.43345l-0.53636,-0.96675c-0.3128,-0.5623 -0.90654,-1.79737 -1.34014,-3.10017" data-paper-data="{&quot;noHover&quot;:false,&quot;origItem&quot;:[&quot;Path&quot;,{&quot;applyMatrix&quot;:true,&quot;segments&quot;:[[[210.2727,165.8851],[0,0],[0.4336,1.3028]],[[211.6151,168.9738],[-0.3128,-0.5623],[0,0]],[212.1516,169.9361],[[211.1379,170.3677],[0,0],[-0.2594,0.1109]],[[210.3756,170.6429],[0.2475,-0.0752],[3.2214,2.0552]],[[222.9304,173.7375],[-5.1241,0],[5.0627,0]],[[234.6694,172.1397],[-2.0651,0.5485],[0,0]],[[234.2853,171.4111],[0,0],[-1.3008,0.0852]],[[230.466,171.5398],[1.2375,0],[-10.9926,0]],[[210.2727,165.8851],[2.9996,2.3304],[0,0]]],&quot;fillColor&quot;:[0,0,0,1]}]}" fill="#ff8600" stroke-width="0.5"/></g><path d="M239.6371,167.1681c0,0 7.0525,-5.5438 9.6521,-8.5137c2.5997,-2.9699 8.6979,-5.6784 9.5017,-2.1502c0.8039,3.5283 0.7702,3.2412 2.9343,4.9736c2.164,1.7324 3.651,6.2487 -3.156,8.6622c-6.807,2.4135 -13.1983,2.8887 -17.0968,2.3324c-3.8984,-0.5564 -3.0827,-4.3123 -1.8353,-5.3043z" fill="#ff8600" stroke="#000000" stroke-width="0.98997"/><path d="M235.7366,171.128c-2.8274,-0.1643 -10.456,-1.1939 -13.6318,-2.5977c-3.1758,-1.4037 -5.3201,-2.6412 -3.5877,-4.3321c1.7325,-1.6908 4.2074,-2.269 5.9814,-4.6607c1.774,-2.3918 3.9183,0.7029 5.7755,1.8572c1.8571,1.1543 5.4646,5.0626 5.4646,5.0626c1.4631,1.1444 2.8253,4.835 -0.002,4.6707z" fill="#ff8600" stroke="#000000" stroke-width="0.98997"/><path d="M234.8516,167.869c-0.0832,-1.7344 2.1442,-1.9799 4.7023,-1.4849c2.5581,0.495 0.2475,1.5681 1.2375,3.548c0.9879,1.9799 0.8652,2.9026 0.1682,3.1006c-3.7341,1.0652 -4.4489,0.3188 -5.6942,-0.3782c-1.8255,-1.0196 -0.3307,-3.0511 -0.4138,-4.7855z" fill="#ff8600" stroke="#000000" stroke-width="0.98997"/></g></g></g></svg>