<svg version="1.1" xmlns="http://www.w3.org/2000/svg" xmlns:xlink="http://www.w3.org/1999/xlink" width="59.08886" height="79.1561" viewBox="0,0,59.08886,79.1561"><g transform="translate(-212.9156,-141.80018)"><g data-paper-data="{&quot;isPaintingLayer&quot;:true}" fill-rule="nonzero" stroke="none" stroke-linecap="butt" stroke-linejoin="miter" stroke-miterlimit="10" stroke-dasharray="" stroke-dashoffset="0" style="mix-blend-mode: normal"><path d="M263.2135,156.6887c-5.2706,5.4061 -9.041,-3.8961 -17.4108,-2.9018c-2.2392,0.266 -8.4094,4.0403 -9.6727,5.8036c-1.1636,1.6241 -1.7662,7.4083 -2.9018,12.5745c-1.0804,4.9147 -6.9324,10.0644 -5.8036,17.4108c0.1587,1.0292 2.2992,6.2427 3.8691,7.7381c0.001,0.001 9.2974,4.7706 9.6727,4.8364c8.6986,1.535 20.2497,-2.0303 19.3453,-16.4436c-1.6153,-2.8989 -10.3681,1.3397 -10.6399,-2.9018c3.2645,-3.5063 10.4252,-3.1155 16.4435,-3.869c0.7061,11.4418 2.3137,21.4578 0.9673,30.9525c-5.4167,1.2245 -3.2423,-5.141 -4.8364,-7.7381c-6.351,-0.2303 -9.0807,6.0096 -14.509,6.7708c-13.6152,1.9104 -23.2366,-9.4898 -27.0834,-20.3126c2.8486,-20.6879 10.3894,-36.6845 27.0834,-43.527c6.296,2.2131 16.0683,5.6856 15.4763,11.6072z" fill="#ff9400" stroke-width="0.96727"/><path d="M266.1153,220.5283c-1.9345,0 -3.8691,0 -5.8036,0c1.8291,-1.919 3.3912,-1.6482 5.8036,-0.9672c0,0.3221 0,0.6451 0,0.9672z" fill="#ffffff" stroke-width="0.96727"/><path d="M271.9189,203.1175c0,3.2239 0.1925,6.4643 0,9.6727c-1.8697,2.1386 -1.2187,5.8287 -2.9018,7.7381c-0.7167,0.4885 -1.9394,0.0242 -2.9018,0c-4.7541,0.0029 -6.4787,0.9615 -7.7381,0c-2.5217,-2.1241 0.7554,-6.9923 -2.9018,-8.7054c-5.2581,4.0451 -16.6225,3.3671 -26.1162,3.8691c-11.9129,-5.1759 -15.6088,-18.5677 -16.4436,-34.8216c0,-1.2894 0,-2.5797 0,-3.8691c2.9144,-10.9494 7.6511,-19.4991 14.509,-27.0835c4.2338,-4.548 11.141,-5.7726 17.169,-7.7381c1.8349,-0.6558 4.0006,-0.3308 6.0454,0c0.5069,0.0871 0,0.6452 0,0.9673c7.1568,2.8379 14.7779,5.2126 18.3781,11.6072c-2.6754,4.0964 -5.0685,8.4491 -8.7054,11.6072c-3.4802,-1.2923 -3.9551,3.1378 -6.7709,2.9018c-4.5848,-2.2712 -8.9182,-10.5606 -13.5417,-8.7054c-5.8723,9.3351 -10.1737,22.2316 -7.7381,33.951c2.2905,3.871 8.5583,5.5908 14.509,5.7069c1.4286,-1.1539 2.9453,-2.8583 2.9018,-5.8036c-2.0032,-0.5755 -6.206,1.1898 -6.7709,-0.9672c-4.3672,-12.3869 -1.7546,-10.5761 1.9345,-12.8163c7.2323,-4.3914 16.3333,-7.0746 25.149,-3.6273c2.924,7.3986 -0.5233,19.3618 1.9345,26.1162zM247.7372,145.0815c-16.694,6.8425 -24.2348,22.8391 -27.0834,43.527c3.8468,10.8228 13.4682,22.223 27.0834,20.3126c5.4283,-0.7612 8.158,-7.0011 14.509,-6.7708c1.5941,2.5971 -0.5803,8.9626 4.8364,7.7381c1.3464,-9.4947 -0.2612,-19.5107 -0.9673,-30.9525c-6.0183,0.7535 -13.179,0.3627 -16.4435,3.869c0.2718,4.2415 9.0246,0.0029 10.6399,2.9018c0.9044,14.4133 -10.6467,17.9786 -19.3453,16.4436c-0.3753,-0.0658 -9.3699,-4.2309 -9.6727,-4.8364c-1.3058,-2.511 -3.8391,-4.8615 -3.8691,-7.7381c-0.0657,-6.1489 1.7353,-12.2292 3.3855,-18.1363c1.2671,-4.1418 2.5623,-8.5477 5.3199,-11.849c2.4056,-2.8805 7.4335,-5.5376 9.6727,-5.8036c8.3698,-0.9943 12.1402,8.3079 17.4108,2.9018c0.592,-5.9216 -9.1803,-9.3941 -15.4763,-11.6072z" fill="#ffffff" stroke-width="0.96727"/><path d="M263.24724,156.65179c-5.2706,5.4061 -9.07825,-3.80932 -17.44805,-2.81502c-2.2392,0.266 -7.24326,2.9189 -9.64886,5.7994c-2.7576,3.3013 -4.0277,7.6824 -5.2948,11.8242c-1.6502,5.9071 -3.45604,11.93732 -3.39034,18.08622c0.03,2.8766 2.54995,5.21437 3.85575,7.72537c0.3028,0.6055 9.27653,4.76293 9.65183,4.82873c8.6986,1.535 20.19866,-2.00319 19.29426,-16.41649c-1.6153,-2.8989 -10.35976,1.32782 -10.63156,-2.91368c3.2645,-3.5063 10.51143,-3.07803 16.52973,-3.83153c0.7061,11.4418 2.29275,21.49545 0.94635,30.99015c-5.4167,1.2245 -3.24159,-5.14151 -4.83569,-7.73861c-6.351,-0.2303 -9.10464,6.01902 -14.53294,6.78022c-13.6152,1.9104 -23.28756,-9.51818 -27.13436,-20.34098c2.8486,-20.6879 10.44016,-36.75548 27.13416,-43.59798c6.296,2.2131 16.09652,5.69839 15.50452,11.61999z" data-paper-data="{&quot;noHover&quot;:false,&quot;origItem&quot;:[&quot;Path&quot;,{&quot;applyMatrix&quot;:true,&quot;segments&quot;:[[[247.7372,145.0815],[6.296,2.2131],[-16.694,6.8425]],[[220.6538,188.6085],[2.8486,-20.6879],[3.8468,10.8228]],[[247.7372,208.9211],[-13.6152,1.9104],[5.4283,-0.7612]],[[262.2462,202.1503],[-6.351,-0.2303],[1.5941,2.5971]],[[267.0826,209.8884],[-5.4167,1.2245],[1.3464,-9.4947]],[[266.1153,178.9359],[0.7061,11.4418],[-6.0183,0.7535]],[[249.6718,182.8049],[3.2645,-3.5063],[0.2718,4.2415]],[[260.3117,185.7067],[-1.6153,-2.8989],[0.9044,14.4133]],[[240.9664,202.1503],[8.6986,1.535],[-0.3753,-0.0658]],[[231.2937,197.3139],[0.3028,0.6055],[-1.3058,-2.511]],[[227.4246,189.5758],[0.03,2.8766],[-0.0657,-6.1489]],[[230.8101,171.4395],[-1.6502,5.9071],[1.2671,-4.1418]],[[236.13,159.5905],[-2.7576,3.3013],[2.4056,-2.8805]],[[245.8027,153.7869],[-2.2392,0.266],[8.3698,-0.9943]],[[263.2135,156.6887],[-5.2706,5.4061],[0.592,-5.9216]]],&quot;closed&quot;:true,&quot;fillColor&quot;:[0,0,0,1],&quot;strokeWidth&quot;:0.96727}]}" fill="#ff9400" stroke-width="0.48364"/></g></g></svg>