<svg version="1.1" xmlns="http://www.w3.org/2000/svg" xmlns:xlink="http://www.w3.org/1999/xlink" width="68.00011" height="76.12504" viewBox="0,0,68.00011,76.12504"><g transform="translate(-205.99961,-141.99996)"><g data-paper-data="{&quot;isPaintingLayer&quot;:true}" fill-rule="nonzero" stroke="none" stroke-width="1" stroke-linecap="butt" stroke-linejoin="miter" stroke-miterlimit="10" stroke-dasharray="" stroke-dashoffset="0" style="mix-blend-mode: normal"><path d="M273.299,201.225c0.85,3.81 0.01,6.71 -1.05,8.65c-2.71,5.17 -7.69,8.25 -13.39,8.25c-1.09,0 -2.23,-0.11 -3.46,-0.35h-4.47c-1.17,0 -3.37,-0.07 -8.85,-0.68c-3.25,-0.37 -6,-0.55 -8.16,-0.55h-5.44c-0.14,0.01 -0.63,0.04 -1.8,0.16c-1.83,0.19 -3.22,0.28 -4.39,0.28c-3.4,0 -6.44,-0.7 -9.03,-2.07c-0.17,-0.09 -0.33,-0.19 -0.5,-0.28c-1.74,-1.05 -5.79,-4.18 -5.79,-10.76c0,-3.55 1.32,-6.83 3.71,-9.24c1.16,-1.18 2.5,-2.14 3.97,-2.87c-3.31,-3.62 -4.31,-8.75 -2.52,-13.6c0.7,-1.85 1.73,-3.47 3.05,-4.84c-6,-2.02 -8.89,-7.09 -9.08,-11.99c-0.51,-3.77 0.96,-7.6 4.01,-10.05c3.02,-2.43 6.66,-3.85 10.52,-4.13c0.25,-0.01 0.51,-0.02 0.77,-0.02h3.07c6.61,-0.12 17.83,-1.75 33.34,-4.85c2,-0.45 4.07,-0.37 6.27,0.26c1.02,0.29 3.33,0.96 5.4,2.99c0.44,0.43 0.83,0.89 1.19,1.38c1.38,1.9 2.33,4.04 2.83,6.36c0.21,1.01 0.28,2.03 0.21,3.05c-0.12,1.89 -0.05,3.98 0.21,6.21c0.33,2.7 -0.36,5.43 -1.92,7.65c-2.39,3.38 -6.04,5.52 -10.24,6.04c0.01,0.18 0.02,0.37 0.02,0.55v0.85c3.09,0.29 5.93,1.6 8.1,3.76c3.57,3.59 3.6,8.03 3.44,10.32c0.18,1.2 0.24,1.98 0.24,2.75c0,0.93 -0.09,1.95 -0.29,3.33c-0.02,0.15 -0.04,0.27 -0.06,0.39v2.67c0.03,0.13 0.06,0.25 0.09,0.38z" fill="#ff0000"/><path d="M263.002,163.849c-0.703,0.998 -1.789,1.496 -3.254,1.496c-0.763,0 -1.438,-0.146 -2.023,-0.44c-0.059,-1.583 -0.206,-3.928 -0.439,-7.037c-4.985,0.939 -12.931,2.317 -23.837,4.135c-0.528,0.059 -0.968,0.206 -1.32,0.439c0.293,5.396 0.44,10.674 0.44,15.833c0.594,0.118 2.467,-0.146 5.618,-0.792c1.546,-0.233 3.926,-0.791 7.136,-1.671c0.058,-0.938 -0.059,-2.507 -0.352,-4.706c-0.294,-2.199 -0.411,-3.826 -0.352,-4.882c0,-1.113 0.761,-1.671 2.287,-1.671c1.759,0 2.696,0.733 2.814,2.199c0.233,2.229 0.585,5.571 1.056,10.027v13.634c0.176,0.235 0.292,0.411 0.352,0.527c-0.176,0.704 -0.675,1.306 -1.495,1.804c-0.822,0.499 -1.643,0.747 -2.463,0.747c-1.056,0 -1.76,-0.468 -2.111,-1.407c0.117,-0.585 0.205,-1.495 0.264,-2.727v-8.092c-3.721,0.118 -7.913,0.879 -12.578,2.286c0,1.056 -0.03,3.754 -0.088,8.093c-0.06,3.577 -0.06,6.012 0,7.301c0,0.294 0.233,0.822 0.704,1.583c1.231,0.06 3.136,0.176 5.717,0.353c2.991,0.294 5.981,0.586 8.972,0.879c3.576,0.411 6.567,0.559 8.973,0.44c0.058,-0.762 0.204,-1.965 0.439,-3.606v-5.19c-0.352,-0.585 -0.528,-1.144 -0.528,-1.671c0,-0.88 0.366,-1.627 1.1,-2.243c0.732,-0.615 1.54,-0.924 2.419,-0.924c0.704,0 1.261,0.207 1.672,0.616c0.233,0.235 0.292,0.998 0.176,2.287c-0.06,0.294 -0.03,0.807 0.088,1.539c0.117,0.734 0.176,1.218 0.176,1.451c0,0.353 -0.059,0.924 -0.176,1.716c-0.118,0.791 -0.176,1.218 -0.176,1.275v5.277c0,0.06 0.116,0.352 0.352,0.88c0.117,0.527 0.117,0.879 0,1.056c-0.823,1.643 -2.058,2.463 -3.701,2.463c-0.412,0 -0.911,-0.058 -1.499,-0.176c-0.589,-0.117 -0.94,-0.176 -1.058,-0.176h-5.376c-1.41,0 -3.951,-0.205 -7.624,-0.616c-3.672,-0.409 -6.802,-0.615 -9.386,-0.615h-5.552c-0.471,0 -1.41,0.074 -2.82,0.22c-1.41,0.146 -2.498,0.22 -3.262,0.22c-1.586,0 -2.88,-0.264 -3.877,-0.792c-0.294,-0.176 -0.441,-0.615 -0.441,-1.319c0,-0.645 0.175,-1.144 0.523,-1.495c0.755,-0.762 1.801,-1.201 3.138,-1.319c0.871,0 1.771,0 2.702,0c0.638,0.118 1.509,0.059 2.614,-0.176c0.349,-0.177 0.553,-0.586 0.61,-1.231c0.058,-0.41 0.058,-1.025 0,-1.848c-0.058,-0.938 -0.087,-1.465 -0.087,-1.583c0,-6.099 -0.028,-9.588 -0.087,-10.468c-1.037,-0.116 -2.479,-0.497 -4.323,-1.144c-0.813,-0.645 -1.016,-1.524 -0.604,-2.639c0.352,-0.938 1.144,-1.612 2.375,-2.023c0.879,-0.292 1.759,-0.557 2.639,-0.791c0.176,-0.645 0.204,-1.437 0.088,-2.375c-0.118,-0.82 -0.206,-1.612 -0.264,-2.375c-0.118,-2.521 -0.323,-6.391 -0.616,-11.611c-0.235,0 -1.026,0.074 -2.375,0.221c-1.35,0.146 -2.405,0.22 -3.166,0.22c-2.698,0 -4.047,-0.807 -4.047,-2.422c0,-0.229 0.029,-0.489 0.088,-0.778c-0.059,-0.115 -0.116,-0.173 -0.176,-0.173c1.289,-1.036 2.756,-1.613 4.398,-1.729c1.056,0 2.11,0 3.166,0c7.33,-0.117 19.205,-1.817 35.624,-5.102c0.176,-0.059 0.469,-0.029 0.88,0.088c0.409,0.118 0.645,0.206 0.703,0.264c0.469,0.646 0.792,1.378 0.968,2.199c-0.177,2.581 -0.089,5.335 0.262,8.267z" fill="#ffffff"/></g></g></svg>