<svg version="1.1" xmlns="http://www.w3.org/2000/svg" xmlns:xlink="http://www.w3.org/1999/xlink" width="140.001" height="80.275" viewBox="0,0,140.001,80.275"><g transform="translate(-169,-141)"><g data-paper-data="{&quot;isPaintingLayer&quot;:true}" fill-rule="nonzero" stroke="none" stroke-linecap="butt" stroke-linejoin="miter" stroke-miterlimit="10" stroke-dasharray="" stroke-dashoffset="0" style="mix-blend-mode: normal"><g stroke-width="1"><path d="M279.469,145.291l-7.123,44.764l-68.446,1.14l-11.07,-44.875z" fill="#ffffff"/><path d="M286.639,141l-10.867,53.431l-73.033,0.512l-17.624,-52.199zM279.469,145.291l-86.639,1.029l13.07,43.875l66.446,-0.14z" fill="#0000a1"/></g><g stroke-width="1"><path d="M185.671,214.755h-16.671l33.119,-20.963h73.764l33.118,20.963h-12.176l0.008,-0.015l-111.166,0.01z" fill="#0084e7"/><path d="M308.977,214.74l-5.952,6.535h-128.333l-5.628,-6.535z" fill="#0000a1"/></g><g fill="#ffffff" stroke-width="1"><path d="M237.803,200.363h-3.662l0.151,-1.093h3.501z"/><path d="M219.282,200.363l0.679,-1.093h5.963l-0.41,1.093z"/><path d="M261.778,197.436l0.818,0.947h-5.263l-0.608,-0.947z"/><path d="M250.058,200.363h-6.766l-0.165,-1.093h6.494z"/><path d="M242.396,200.363h-3.706l-0.009,-1.093h3.549z"/><path d="M224.367,203.422l-0.458,1.224h-7.283l0.759,-1.224z"/><path d="M264.304,200.363h-5.699l-0.702,-1.093h5.457z"/><path d="M257.551,200.363h-6.538l-0.437,-1.093h6.273z"/><path d="M226.461,200.363l0.41,-1.093h6.525l-0.151,1.093z"/><path d="M237.831,203.422l0.01,1.224h-4.292l0.169,-1.224z"/><path d="M249.268,198.383h-6.275l-0.142,-0.947h6.039z"/><path d="M243.041,204.646h-4.313l-0.011,-1.224h4.139z"/><path d="M242.097,198.383h-3.425l-0.008,-0.947h3.29z"/><path d="M221.098,197.436h5.513l-0.355,0.947h-5.745z"/><path d="M211.476,200.363h-5.264l1.144,-1.093h5.035z"/><path d="M256.278,198.383h-6.055l-0.378,-0.947h5.825z"/><path d="M232.654,204.646h-7.798l0.459,-1.224h7.508z"/><path d="M215.082,197.436h4.973l-0.588,0.947h-5.178z"/><path d="M250.925,202.535h-7.306l-0.193,-1.285h6.985z"/><path d="M258.947,202.535h-7.067l-0.513,-1.285h6.754z"/><path d="M262.95,197.436h4.553l1.013,0.947h-4.748z"/><path d="M266.177,202.535h-6.175l-0.826,-1.285h5.892z"/><path d="M208.916,203.422l-1.024,1.224h-6.16l1.28,-1.224z"/><path d="M213.133,198.383h-4.849l0.99,-0.947h4.651z"/><path d="M209.658,202.535h-5.718l1.344,-1.285h5.449z"/><path d="M264.532,199.27h4.931l1.169,1.093h-5.156z"/><path d="M212.632,200.363l0.915,-1.093h5.37l-0.678,1.093z"/><path d="M216.342,203.422l-0.759,1.224h-6.534l1.024,-1.224z"/><path d="M242.723,202.535h-4.014l-0.011,-1.285h3.83z"/><path d="M210.814,202.535l1.076,-1.285h5.799l-0.797,1.285z"/><path d="M237.823,202.535h-3.982l0.178,-1.285h3.792z"/><path d="M224.7,202.535h-6.764l0.796,-1.285h6.45z"/><path d="M225.647,202.535l0.482,-1.285h6.994l-0.178,1.285z"/><path d="M237.786,198.383h-3.371l0.13,-0.947h3.232z"/><path d="M200.448,204.646h-5.679l1.51,-1.224h5.45z"/><path d="M223.577,205.532l-0.631,1.682h-7.913l1.044,-1.682z"/><path d="M272.879,201.25h5.032l1.621,1.285h-5.28z"/><path d="M251.278,203.422l0.489,1.224h-7.829l-0.185,-1.224z"/><path d="M277.456,205.532h5.856l2.122,1.682h-6.181z"/><path d="M237.864,207.214h-13.595h-0.375l0.63,-1.682h13.325z"/><path d="M202.656,202.535h-5.282l1.587,-1.285h5.039z"/><path d="M275.2,203.422h5.45l1.544,1.224h-5.686z"/><path d="M207,198.383h-4.499l1.17,-0.947h4.32z"/><path d="M252.792,207.214h-14.041l-0.015,-1.682h13.384z"/><path d="M204.928,200.363h-4.872l1.35,-1.093h4.666z"/><path d="M277.955,207.214h-6.57l-1.451,-1.682h6.223z"/><path d="M270.762,199.27h4.651l1.38,1.093h-4.862z"/><path d="M269.813,198.383l-1.012,-0.947h4.299l1.195,0.947z"/><path d="M259.517,203.422l0.786,1.224h-7.581l-0.489,-1.224z"/><path d="M268.113,203.422h5.788l1.308,1.224h-6.04z"/><path d="M215.033,205.532l-1.043,1.682h-7.091l1.408,-1.682z"/><path d="M268.762,205.532l1.451,1.682h-7.205l-1.08,-1.682z"/><path d="M266.24,201.25h5.34l1.373,1.285h-5.604z"/><path d="M227.204,198.383l0.355,-0.947h0.375h5.715l-0.13,0.947z"/><path d="M260.873,205.532l1.08,1.682h-8.206l-0.671,-1.682z"/><path d="M266.941,203.422l1.056,1.224h-6.64l-0.786,-1.224z"/><path d="M199.521,205.532l-1.759,1.682h-6.165l2.077,-1.682z"/><path d="M207.15,205.532l-1.407,1.682h-6.698l1.76,-1.682z"/><path d="M237.895,210.59h-15.266l0.925,-2.469c0.127,0 0.248,0 0.375,0c5.255,0 9.913,0 13.944,-0.001z"/><path d="M254.493,211.477l0.645,1.615l-33.073,0.002h-0.375l0.606,-1.617z"/><path d="M253.15,208.114l0.988,2.476h-15.357l-0.022,-2.47c6.707,-0.001 11.561,-0.003 14.391,-0.006z"/></g><path d="M234.2364,183.04314v-23.62993h14.10173v23.62993z" fill="#ff0000" stroke-width="0"/><path d="M247.57588,174.2772v-18.67527h12.95835v18.67527z" fill="#0021ff" stroke-width="0"/><path d="M220.13466,174.65833v-17.91301h13.33948v17.91301z" fill="#00ff20" stroke-width="0"/><path d="M225.85159,182.28088v-11.81497h14.86399v11.81497z" fill="#00f2ff" stroke-width="0"/><path d="M232.33076,164.36786v-12.95835h17.53189v12.95835z" fill="#ffd200" stroke-width="0"/><path d="M246.81362,182.66201v-12.57722h19.81865v12.57722z" fill="#ff7a00" stroke-width="0"/></g></g></svg>