<svg version="1.1" xmlns="http://www.w3.org/2000/svg" xmlns:xlink="http://www.w3.org/1999/xlink" width="34.08497" height="27.64656" viewBox="0,0,34.08497,27.64656"><g transform="translate(-270.07608,-73.21463)"><g data-paper-data="{&quot;isPaintingLayer&quot;:true}" fill="#3cf300" fill-rule="nonzero" stroke="none" stroke-width="0.59874" stroke-linecap="butt" stroke-linejoin="miter" stroke-miterlimit="10" stroke-dasharray="" stroke-dashoffset="0" style="mix-blend-mode: normal"><path d="M303.15899,79.08489l-20.64993,20.76304c-1.10478,1.11101 -2.77874,1.30788 -4.08841,0.59305c-0.0573,-0.03069 -0.11251,-0.06532 -0.16857,-0.09901c-0.02895,-0.01824 -0.0579,-0.03463 -0.08625,-0.05312c-0.21416,-0.13932 -0.41766,-0.3022 -0.60291,-0.49404l-6.52045,-6.75045c-1.32073,-1.36757 -1.28316,-3.54693 0.08471,-4.86796c1.36702,-1.32043 3.54604,-1.28256 4.86707,0.08501l4.10366,4.24801l18.18062,-18.27968c1.34071,-1.34819 3.52008,-1.35417 4.86737,-0.0137c1.34849,1.34101 1.35417,3.52037 0.0131,4.86886z"/></g></g></svg>