<svg version="1.1" xmlns="http://www.w3.org/2000/svg" xmlns:xlink="http://www.w3.org/1999/xlink" width="85.69617" height="126.793" viewBox="0,0,85.69617,126.793"><g transform="translate(-196.16195,-117.117)"><g data-paper-data="{&quot;isPaintingLayer&quot;:true}" fill-rule="nonzero" stroke="none" stroke-width="1" stroke-linecap="butt" stroke-linejoin="miter" stroke-miterlimit="10" stroke-dasharray="" stroke-dashoffset="0" style="mix-blend-mode: normal"><g><path d="M246.242,210.998c0,0 -2.186,-5.449 4.146,-5.449c6.333,0 5.794,9.525 5.269,12.88c-0.389,2.287 -1.047,4.521 -1.96,6.656h-6.916c1.652,-7.183 -0.539,-14.087 -0.539,-14.087z" fill="#828278"/><path d="M246.242,224.68h7.921c-2.39,8.84 -7.871,15.708 -8.075,16.28c0.675,0.068 1.295,0.131 1.915,0.185c0.62,0.054 1.281,0.09 1.91,0.135l0.145,0.743l-0.738,0.45c-0.394,0.212 0,0.847 -0.579,1.023l-0.34,-0.199l-0.303,-1.175l-0.453,-0.086c-0.452,0.352 0,1.063 -0.719,1.32l-0.498,-0.239c0.022,-0.5 0.185,-0.936 -0.113,-1.31l-1.182,-0.09c-0.041,0.216 -0.09,0.45 -0.122,0.644c-0.007,0.196 -0.026,0.392 -0.059,0.585c-0.095,0.333 -0.253,0.396 -0.683,0.311c-0.159,-0.509 0.154,-1.126 -0.372,-1.653l-0.959,-0.221c-0.261,0.532 -0.327,1.137 -0.186,1.712c0.119,0.314 -0.022,0.667 -0.326,0.815c-0.393,-0.023 -0.488,-0.248 -0.479,-0.59c0,-0.604 0,-1.207 0,-1.919l-0.788,0.28h-0.869c0.05,0.324 0.077,0.585 0.136,0.846c0.059,0.262 0.14,0.509 0.222,0.802l-0.621,0.32c-0.387,-0.828 -0.566,-1.737 -0.52,-2.648c0.371,-0.334 6.061,-11.764 6.735,-16.321z" fill="#000000"/><path d="M255.096,225.653h-9.804v-2.036h9.804z" fill="#ffffff"/><path d="M253.955,229.3h-9.614v-2.035h9.614z" fill="#ffffff"/><path d="M252.86,232.52h-9.614v-2.035h9.614z" fill="#ffffff"/></g><g><path d="M232.595,224.689l-7.817,-0.077c0.115,-2.221 0.039,-4.448 -0.226,-6.656c-0.398,-2.914 -2.2,-7.287 -2.331,-7.931c0,0 -1.58,-2.905 4.191,-3.801c3.273,-0.509 5.038,3.725 5.767,9.007c0.35,3.14 0.49,6.3 0.416,9.458z" fill="#828278"/><path d="M224.516,232.376c0.241,-2.809 0.188,-5.636 -0.159,-8.435h8.759c-0.204,5.634 -2.191,11.295 -4.979,16.15c1.358,0.058 3.757,-0.243 4.897,0.608l-0.249,0.509c-1.358,0.333 -0.144,1.801 -1.358,2.121c-0.357,-0.617 0.272,-2.95 -1.357,-2.121c0.036,0.59 0.307,1.743 -0.222,2.252l-0.498,-0.113c-0.154,-0.793 0.244,-1.581 -0.145,-2.292c-0.421,-0.163 -0.897,-0.099 -1.258,0.171l0.145,2.062l-0.851,0.212v-1.846c-0.476,-0.045 -0.648,-0.563 -1.177,-0.451c-0.045,0.752 0.312,2.365 -0.905,1.959c-0.05,-0.644 0.344,-1.351 -0.204,-1.968h-0.86c-0.272,0.298 -0.086,1.847 -0.086,2.045l-0.494,0.365l-0.452,-0.266c-0.073,-0.788 1.272,-9.282 1.453,-10.962z" fill="#000000"/><path d="M233.659,225.486h-9.732v-2.036h9.732z" fill="#ffffff"/><path d="M233.206,229.129h-8.831v-2.035h8.831z" fill="#ffffff"/><path d="M232.387,232.309h-8.098v-1.955h8.098z" fill="#ffffff"/></g><g><path d="M260.373,232.466c-0.576,0.516 -1.069,1.116 -1.462,1.779c-0.43,0.874 -0.796,0.806 -0.683,0c0.113,-0.806 1.81,-5.152 1.81,-5.152z" fill="#3c3c32"/><path d="M263.469,236.934c-0.212,-0.023 -0.027,-3.04 -0.511,-3.008c-0.485,0.031 -0.688,3.634 -1.204,3.544c-0.516,-0.09 -0.204,-3.63 -0.724,-3.693c-0.521,-0.063 -0.874,3.017 -1.304,3.031c-0.43,0.013 -1.313,-39.253 3.191,-39.253c4.504,0 3.096,13.718 3.096,13.718c0,0 -1.955,25.71 -2.544,25.661z" fill="#828278"/></g><g><path d="M196.167,185.738c1.766,-11.993 10.289,-26.405 23.822,-24.941c0.755,0.084 1.509,0.2 2.264,0.347c-3.232,-5.31 -6.763,-10.489 -9.669,-15.844c-2.548,-4.692 -9.722,-16.37 -9.722,-16.37l4.743,-11.259l5.658,3.639c0,0 21.211,33.479 27.366,43.54c4.902,7.994 9.601,15.569 10.764,25.189c0.969,7.993 -1.231,15.384 -7.903,20.265c-3.363,2.464 -6.912,3.049 -10.931,4.054c-6.925,1.729 -14.099,2.986 -20.454,0c-12.154,-5.697 -16.105,-16.668 -15.938,-28.62z" fill="#000000"/><path d="M268.421,159.955l7.106,14.893l-28.081,1.18l-6.848,-15.821l27.823,-0.252" fill="#000000"/><path d="M260.038,168.683c2.757,0.626 6.075,3.206 5.998,6.273c-0.082,3.189 -2.856,5.512 -5.862,5.72c-4.427,0.306 -7.984,-2.198 -8.437,-6.449c0.521,-5.27 5.223,-6.238 8.301,-5.544z" fill="#a0640a"/><path d="M241.888,164.846l-2.847,-6.801l30.308,0.906l6.722,15.757l-5.129,0.568l-4.54,-10.444l-24.514,0.014" fill="#828278"/><path d="M244.613,118.351c3.892,5.855 10.025,15.078 13.85,21.014c0.801,1.234 10.628,15.059 14.883,23.296c6.789,13.151 8.831,23.311 8.473,30.174c-0.104,1.964 -1.254,10.611 -4.784,14.641c-5.405,6.17 -13.964,7.868 -13.964,7.868l-39.094,0.608c0,0 15.073,-3.747 19.332,-10.309c2.629,-4.236 4.138,-9.065 4.386,-14.037c0.249,-9.07 -4.499,-17.866 -8.813,-25.517c-4.526,-8.057 -27.981,-44.676 -30.991,-47.814zM247.107,172.601l25.166,0.049c0,0 -3.304,-7.908 -4.332,-9.493l-25.8,0.027z" fill="#3c3c32"/><path d="M207.022,117.117c0.905,0.077 37.939,0.122 38.863,0.225c0.584,0.018 1.14,0.254 1.557,0.662l0.212,0.55l-0.081,0.581c-0.444,0.448 -1.069,0.669 -1.698,0.599c-0.905,-0.117 -35.812,-0.117 -36.735,-0.077z" fill="#000000"/><path d="M209.126,119.657l-5.277,11.047c0,0 -1.308,0.383 -1.847,-0.423c-0.327,-0.502 -0.501,-1.087 -0.503,-1.684l5.523,-11.48z" fill="#000000"/><path d="M215.146,173.772c3.495,-1.144 6.79,-0.225 9.958,1.693c3.411,2.128 5.949,5.394 7.161,9.214c1.441,4.163 1.167,8.724 -0.761,12.687c-1.43,2.928 -3.977,5.166 -7.074,6.215c-3.875,1.261 -8.007,0.382 -11.384,-2.031c-2.916,-2.132 -5.081,-5.127 -6.183,-8.557c-2.716,-8.147 1.245,-16.915 8.283,-19.221z" fill="#3c3c32"/><path d="M216.663,178.969c2.29,-0.748 4.435,-0.144 6.513,1.108c2.229,1.39 3.888,3.524 4.68,6.021c0.943,2.718 0.765,5.698 -0.493,8.286c-0.936,1.911 -2.599,3.37 -4.622,4.054c-2.548,0.777 -5.317,0.284 -7.436,-1.324c-1.908,-1.395 -3.323,-3.354 -4.042,-5.598c-1.752,-5.324 0.824,-11.052 5.4,-12.547z" fill="#828278"/></g><g><path d="M218.509,229.377c0,0 1.136,4.504 1.159,5.341c0.023,0.838 -0.362,0.838 -0.683,-0.067c-0.307,-0.707 -0.721,-1.364 -1.227,-1.946z" fill="#3c3c32"/><path d="M215.504,189.957c0,0 -0.851,-4.503 3.87,-4.503c4.721,0 4.074,4.751 4.074,4.751c-0.403,4.675 -5.179,46.954 -5.609,46.887c-0.43,-0.068 -0.384,-3.153 -0.905,-3.153c-0.52,0 -0.661,3.531 -1.181,3.576c-0.521,0.045 -0.272,-3.576 -0.752,-3.666c-0.479,-0.09 -0.669,2.927 -0.905,2.918c-0.57,-0.058 1.408,-46.81 1.408,-46.81z" fill="#828278"/></g><g><path d="M213.535,229.048v-1.409c0.837,-0.081 3.232,-0.104 4.074,-0.19c0.04,0.199 -0.104,1.392 -0.073,1.631c-0.117,-0.023 -2.458,-0.023 -4.001,-0.032z" fill="#f01446"/><path d="M219.034,226.193c1.299,0.671 1.548,2.333 0.394,3.9c-0.352,0.486 -0.884,0.813 -1.479,0.907c-0.594,0.095 -1.202,-0.05 -1.689,-0.403c-1.521,-1.013 -1.15,-2.823 -0.453,-4.296c1.016,-0.474 2.182,-0.513 3.227,-0.108z" fill="#000000"/><path d="M218.428,227.256c0.688,0.36 0.824,1.243 0.208,2.08c-0.185,0.265 -0.471,0.443 -0.791,0.494c-0.32,0.051 -0.647,-0.03 -0.906,-0.223c-0.82,-0.541 -0.62,-1.509 -0.249,-2.293c0.546,-0.257 1.175,-0.279 1.738,-0.058z" fill="#3c3c32"/></g></g></g></svg>