<svg version="1.1" xmlns="http://www.w3.org/2000/svg" xmlns:xlink="http://www.w3.org/1999/xlink" width="199.47352" height="196.49524" viewBox="0,0,199.47352,196.49524"><g transform="translate(-181.87476,-91.68929)"><g data-paper-data="{&quot;isPaintingLayer&quot;:true}" fill-rule="nonzero" stroke-miterlimit="10" stroke-dasharray="" stroke-dashoffset="0" style="mix-blend-mode: normal"><g><path d="M306.89402,281.26953c2.3604,-0.09 4.74702,-0.21 7.13365,-0.33c-2.38663,0.12 -4.77325,0.24 -7.13365,0.33z" fill="none" stroke="none" stroke-width="1" stroke-linecap="butt" stroke-linejoin="miter"/><path d="M283.00153,281.85453c-18.2013,0 -34.88145,-0.585 -49.30611,-1.395c14.42466,0.81 31.10481,1.395 49.30611,1.395z" fill="none" stroke="none" stroke-width="1" stroke-linecap="butt" stroke-linejoin="miter"/><path d="M314.02767,280.93953c17.83413,-0.945 35.93052,-2.415 49.30611,-3.63c-13.37559,1.215 -31.41953,2.685 -49.30611,3.63z" fill="none" stroke="none" stroke-width="1" stroke-linecap="butt" stroke-linejoin="miter"/><path d="M233.69542,280.47453c-15.15901,-0.885 -27.85271,-2.01 -37.32053,-3c9.46782,0.99 22.29266,2.115 37.32053,3z" fill="none" stroke="none" stroke-width="1" stroke-linecap="butt" stroke-linejoin="miter"/><path d="M233.82655,280.47453c-15.15901,-0.885 -27.85271,-2.01 -37.32053,-3c1.07529,-9.555 2.12436,-18.375 3.35701,-26.61c1.20293,0.274 2.43908,0.5 3.69796,0.675c10.50815,1.444 21.55831,-0.492 28.84932,-5.055c3.40422,5.833 12.56606,9.941 23.28402,10.438c10.71621,0.496 20.91663,-2.714 25.91718,-8.158c4.97432,5.483 15.21146,8.726 25.97663,8.228c10.76692,-0.498 19.96023,-4.639 23.32948,-10.508c7.298,4.557 18.34117,6.492 28.84932,5.055c5.86603,-0.734 11.10961,-2.605 14.84429,-5.295c2.78003,12.285 4.51098,23.22 5.40269,29.46l-11.59218,1.14l-5.08797,0.465c-13.37559,1.215 -31.41953,2.685 -49.30611,3.63c-2.38663,0.12 -4.77325,0.24 -7.13365,0.33l-7.05497,0.285c-5.82232,0.195 -11.59218,0.3 -16.83751,0.3c-18.2013,0 -34.88145,-0.585 -49.17498,-1.38z" fill="#c0fffc" stroke="none" stroke-width="1" stroke-linecap="butt" stroke-linejoin="miter"/><path d="M199.65322,250.84953c-1.23265,8.235 -2.28172,17.055 -3.35701,26.61c-5.5076,-0.555 -9.96613,-1.095 -13.11333,-1.5c0.86548,-6.18 2.62267,-17.235 5.40269,-29.7c2.88493,2.081 6.71402,3.668 11.06765,4.59z" fill="#9ef2ed" stroke="none" stroke-width="1" stroke-linecap="butt" stroke-linejoin="miter"/><path d="M188.58557,246.25953c0.52453,-2.31 1.07529,-4.68 1.67851,-7.065c3.48815,-14.19 8.2614,-29.295 14.55579,-40.68c16.02449,-29.04 31.76048,-38.16 31.76048,-38.16c3.09475,0.51 6.05836,0.945 8.89084,1.305c-15.85489,13.67 -27.49253,28.795 -34.40937,44.715c-5.56005,13.17 -8.70725,27.585 -11.32992,44.475c-4.38335,-0.915 -8.24042,-2.503 -11.14633,-4.59z" fill="#89e5dc" stroke="none" stroke-width="1" stroke-linecap="butt" stroke-linejoin="miter"/><path d="M326.64269,160.35453c0,0 15.70977,9.03 31.65557,38.16c6.2944,11.385 11.06765,26.49 14.55579,40.68c0.60321,2.385 1.15397,4.74 1.65228,7.05c-3.73468,2.69 -8.97826,4.561 -14.84429,5.295c-10.50815,1.437 -21.55132,-0.498 -28.84932,-5.055c-3.40422,5.833 -12.56606,9.941 -23.28402,10.438c-10.71621,0.496 -20.91663,-2.714 -25.91718,-8.158c-4.97257,5.492 -15.2237,8.741 -26.00111,8.239c-10.77916,-0.501 -19.97597,-4.654 -23.33123,-10.534c-7.29101,4.563 -18.34117,6.499 -28.84932,5.055c-1.25888,-0.175 -2.49503,-0.401 -3.69796,-0.675c2.51776,-16.875 5.82232,-31.29 11.32992,-44.46c6.92209,-15.927 18.56847,-31.056 34.4356,-44.73c22.37134,2.895 36.1141,1.65 36.1141,1.65c0,0 17.44073,1.59 45.03117,-2.955z" fill="#9ef2ed" stroke="none" stroke-width="1" stroke-linecap="butt" stroke-linejoin="miter"/><path d="M281.61152,287.58453c-28.81086,0.106 -57.56751,-1.436 -85.83984,-4.605c0.20981,-1.86 0.3934,-3.705 0.60321,-5.52c9.46782,1.005 22.16152,2.13 37.32053,3c14.42466,0.81 31.10481,1.395 49.30611,1.395c5.35024,0 11.0152,-0.105 16.83751,-0.3l7.05497,-0.285c2.3604,-0.09 4.74702,-0.21 7.13365,-0.33c17.83413,-0.945 35.93052,-2.415 49.30611,-3.63l5.08797,-0.465l11.59218,-1.14c0.49831,3.465 0.73435,5.49 0.73435,5.49c0,0 -37.6877,6.39 -99.13676,6.39z" fill="#ffffff" stroke="none" stroke-width="1" stroke-linecap="butt" stroke-linejoin="miter"/><path d="M196.37489,277.47453c-0.20981,1.815 -0.3934,3.66 -0.60321,5.52c-8.6548,-1.02 -13.29691,-1.8 -13.29691,-1.8c0,0 0.20981,-1.92 0.70812,-5.235c3.1472,0.39 7.60573,0.945 13.19201,1.515z" fill="#c0fffc" stroke="none" stroke-width="1" stroke-linecap="butt" stroke-linejoin="miter"/><path d="M283.00153,281.85453c5.24533,0 11.0152,-0.105 16.83751,-0.3c-5.82232,0.195 -11.48728,0.3 -16.83751,0.3z" fill="#ffffff" stroke="none" stroke-width="1" stroke-linecap="butt" stroke-linejoin="miter"/><path d="M306.89402,281.26953l-7.05497,0.285z" fill="#ffffff" stroke="none" stroke-width="1" stroke-linecap="butt" stroke-linejoin="miter"/><path d="M368.42175,276.84453l11.59218,-1.14v0l-11.59218,1.14" fill="#ffffff" stroke="none" stroke-width="1" stroke-linecap="butt" stroke-linejoin="miter"/><path d="M380.74828,281.19453c0,0 -37.6877,6.39 -99.13676,6.39c-61.44905,0 -99.13676,-6.39 -99.13676,-6.39c0,0 0.20981,-1.92 0.70812,-5.235c2.01945,-14.175 8.52366,-53.835 21.63699,-77.445c16.02449,-29.16 31.76048,-38.16 31.76048,-38.16h90.06234c0,0 15.70977,9.03 31.76048,38.16c12.95597,23.46 19.53886,62.79 21.61076,77.19c0.49831,3.465 0.73435,5.49 0.73435,5.49z" fill="#c9a800" stroke="#4181ce" stroke-width="1.2" stroke-linecap="round" stroke-linejoin="round"/><path d="M359.47846,227.11953c0.73435,2.625 0.70812,2.79 1.39001,5.76" fill="none" stroke="#ffffff" stroke-width="2.4" stroke-linecap="round" stroke-linejoin="round"/><path d="M344.89644,194.41953c0,0 6.76648,8.13 12.77238,27" fill="none" stroke="#ffffff" stroke-width="2.4" stroke-linecap="round" stroke-linejoin="round"/></g><g><path d="M239.52107,166.30656h101.81882c-34.71021,5.1324 -56.70545,3.35451 -56.70545,3.35451c0,0 -17.33859,1.39212 -45.50968,-1.84498c0,0 0.16513,-0.50318 0.39631,-1.45921z" fill="#c0fffc" stroke="none" stroke-width="1" stroke-linecap="butt" stroke-linejoin="miter"/><path d="M239.12476,167.81609c-3.5668,-0.40254 -7.29872,-0.88895 -11.19578,-1.45921h11.59209c-0.23118,0.95604 -0.39631,1.45921 -0.39631,1.45921z" fill="#9ef2ed" stroke="none" stroke-width="1" stroke-linecap="butt" stroke-linejoin="miter"/><path d="M284.63444,123.55332c0,0 -7.19964,-3.7906 -25.49599,-3.7906c18.42845,-0.01677 25.49599,3.7906 25.49599,3.7906z" fill="none" stroke="none" stroke-width="1" stroke-linecap="butt" stroke-linejoin="miter"/><path d="M240.51185,121.20517c-3.9521,0.60158 -7.80512,1.35858 -11.52604,2.26429c-1.96394,-8.93082 -5.05296,-17.78785 -9.24725,-26.5174c3.43249,-1.05108 7.08736,-1.90089 10.89854,-2.53266c4.31979,8.82236 7.61797,17.7666 9.87474,26.78576z" fill="#c0fffc" stroke="none" stroke-width="1" stroke-linecap="butt" stroke-linejoin="miter"/><path d="M240.71001,121.25548c-2.26558,-9.03593 -5.57257,-17.99695 -9.90777,-26.83608c4.13924,-0.71898 8.42821,-1.19197 12.78102,-1.40889c0.47998,1.55761 2.18411,2.94973 4.7227,3.85769c3.15728,0.81403 6.83416,0.93479 10.17197,0.33545c0.1321,1.82038 2.19072,3.46297 5.38322,4.29377c5.81256,1.27471 11.42696,-1.2244 11.42696,-1.2244c1.60506,1.89753 5.27974,3.12752 9.34633,3.12752c4.06659,0 7.74127,-1.22999 9.34633,-3.12752c0,0 5.6144,2.49911 11.42696,1.2244c3.1837,-0.82745 5.24011,-2.46221 5.38322,-4.277c3.37304,0.63959 7.12038,0.5356 10.3371,-0.28513c2.54079,-0.8923 4.24713,-2.27436 4.7227,-3.82414c8.75406,0.36452 17.15145,1.92437 24.30706,4.51182c-4.29337,9.32554 -7.95924,15.88361 -9.90777,25.8465c-9.39917,-2.33698 -19.69004,-3.60722 -30.15264,-3.72351c-18.29634,0 -25.33086,3.85769 -25.46296,3.7906c-0.1321,-0.06709 -7.19964,-3.7906 -25.49599,-3.7906c-6.2529,0.05814 -12.45737,0.56579 -18.42845,1.50953z" fill="#ffffff" stroke="none" stroke-width="1" stroke-linecap="butt" stroke-linejoin="miter"/><path d="M239.45502,166.35687h-11.62511c0,0 2.77417,-20.21092 2.17971,-32.32071v-1.29149c-0.23118,-3.06938 -0.56144,-6.1723 -1.0238,-9.27522c3.72092,-0.90572 7.57394,-1.66272 11.52604,-2.26429c1.06564,4.36422 1.69313,8.75304 1.88248,13.14968c0.49979,10.68859 -0.46016,21.38165 -2.87325,32.00203z" fill="#9ef2ed" stroke="none" stroke-width="1" stroke-linecap="butt" stroke-linejoin="miter"/><path d="M310.03135,119.74595c10.47361,0.11629 20.77328,1.38765 30.18566,3.72351c-0.46236,3.10292 -0.82565,6.20584 -1.05683,9.27522c0,0.41931 0,0.8554 0,1.29149c-0.62749,12.10978 2.14668,32.32071 2.14668,32.32071h-101.75277c2.41309,-10.62038 3.37304,-21.31344 2.87325,-32.00203c-0.18935,-4.39664 -0.81684,-8.78546 -1.88248,-13.14968c6.03933,-0.93591 12.31205,-1.4279 18.6266,-1.45921c18.42845,0 25.46296,3.80737 25.46296,3.80737c0,0 7.03451,-3.80737 25.39691,-3.80737z" fill="#c0fffc" stroke="none" stroke-width="1" stroke-linecap="butt" stroke-linejoin="miter"/><path d="M259.13845,119.74595c-6.31455,0.03131 -12.58727,0.5233 -18.6266,1.45921c6.03933,-0.93591 12.31205,-1.4279 18.6266,-1.45921z" fill="#c0fffc" stroke="none" stroke-width="1" stroke-linecap="butt" stroke-linejoin="miter"/><path d="M228.98582,123.46946c3.72092,-0.90572 7.57394,-1.66272 11.52604,-2.26429c-3.9521,0.60158 -7.80512,1.35858 -11.52604,2.26429z" fill="#c0fffc" stroke="none" stroke-width="1" stroke-linecap="butt" stroke-linejoin="miter"/><path d="M310.0974,119.72918c-18.42845,0 -25.46296,3.80737 -25.46296,3.80737c0,-0.06709 7.16662,-3.7906 25.46296,-3.80737z" fill="#c0fffc" stroke="none" stroke-width="1" stroke-linecap="butt" stroke-linejoin="miter"/><path d="M243.41813,93.01051l10.43618,-0.72122c0,0 9.67659,3.97509 30.78013,3.97509c21.10354,0 30.78013,-3.908 30.78013,-3.908l10.43618,0.75476c-0.48438,1.54307 -2.19072,2.91954 -4.7227,3.80737c-3.21672,0.82074 -6.96406,0.92473 -10.3371,0.28513c-0.1321,1.82038 -2.19072,3.46297 -5.38322,4.29377c-5.81256,1.27471 -11.42696,-1.2244 -11.42696,-1.2244c-1.60506,1.89753 -5.27974,3.12752 -9.34633,3.12752c-4.06659,0 -7.74127,-1.22999 -9.34633,-3.12752c0,0 -5.6144,2.49911 -11.42696,1.2244c-3.15948,-0.86211 -5.15424,-2.52371 -5.21809,-4.34409c-3.37304,0.63959 -7.12038,0.5356 -10.3371,-0.28513c-2.60024,-0.8923 -4.36822,-2.28666 -4.88783,-3.85769z" fill="#ffffff" stroke="#4181ce" stroke-width="0.795" stroke-linecap="round" stroke-linejoin="round"/><path d="M230.70316,129.80949c8.08914,-2.00712 17.02595,-2.97433 26.0244,-2.81779c9.84172,0.16102 19.44344,1.58668 27.90688,4.14282c8.50307,-2.52706 18.09599,-3.95497 27.9399,-4.15959c8.98745,0.02572 17.83838,1.11034 25.85927,3.17001" fill="none" stroke="#ffffff" stroke-width="1.2" stroke-linecap="round" stroke-linejoin="round"/><path d="M341.27384,166.35687c-34.71021,5.1324 -56.70545,3.35451 -56.70545,3.35451c0,0 -21.99524,1.67726 -56.70545,-3.35451c0,0 2.77417,-20.21092 2.14668,-32.32071c0,-0.43609 0,-0.87217 0,-1.29149c-0.23118,-3.06938 -0.59447,-6.1723 -1.0238,-9.27522c-1.96614,-8.92971 -5.05516,-17.78785 -9.24725,-26.5174c7.21946,-2.1905 15.3086,-3.53677 23.67956,-3.94155l10.43618,-0.72122c0,0 9.67659,3.97509 30.78013,3.97509c21.10354,0 30.78013,-3.908 30.78013,-3.908l10.43618,0.75476c8.74305,0.36788 17.12943,1.92661 24.27403,4.51182c-4.29337,9.32554 -7.95924,15.88361 -9.90777,25.8465c-0.42934,3.10292 -0.79262,6.20584 -1.0238,9.27522c0,0.41931 0,0.8554 0,1.29149c-0.62749,12.10978 2.14668,32.32071 2.08063,32.32071z" fill="#c9a800" stroke="#4181ce" stroke-width="1.2" stroke-linecap="round" stroke-linejoin="round"/></g><text transform="translate(247.51845,227.9152) scale(0.5,0.5)" font-size="40" xml:space="preserve" fill="#003aff" fill-rule="nonzero" stroke="none" stroke-width="1" stroke-linecap="butt" stroke-linejoin="miter" stroke-miterlimit="10" stroke-dasharray="" stroke-dashoffset="0" font-family="Sans Serif" font-weight="normal" text-anchor="start" style="mix-blend-mode: normal"><tspan x="0" dy="0"> </tspan></text></g></g></svg>