<svg version="1.1" xmlns="http://www.w3.org/2000/svg" xmlns:xlink="http://www.w3.org/1999/xlink" width="51.06553" height="79.61545" viewBox="0,0,51.06553,79.61545"><g transform="translate(-214.84347,-140.50128)"><g data-paper-data="{&quot;isPaintingLayer&quot;:true}" fill-rule="nonzero" stroke="none" stroke-width="0.97985" stroke-linecap="butt" stroke-linejoin="miter" stroke-miterlimit="10" stroke-dasharray="" stroke-dashoffset="0" style="mix-blend-mode: normal"><path d="M224.7555,141.5753c5.9241,-1.4864 9.1449,-1.0053 10.7783,-0.9798c0.7564,0.7839 2.4535,0.8133 3.9194,0.9798c-0.6301,21.8712 1.4932,32.238 2.9395,50.952c5.5489,-0.7858 13.2936,0.2401 21.5566,-1.9597c2.6025,2.2968 -0.7241,10.5226 1.9597,12.738c0,1.9597 0,3.9194 0,5.8791c-2.4525,1.8617 -3.8478,-0.8132 -6.8589,0.9799c-0.7114,2.9973 1.6912,2.8817 0.9798,5.8791c-14.1372,1.9802 -24.2061,-1.7745 -35.2744,3.9193c-0.9799,0 -2.0313,0.3459 -2.9396,0c-2.9101,-5.6164 -3.3893,-12.4499 -5.8791,-17.6372c-0.6868,-22.168 -0.0852,-36.5737 -0.9798,-49.9722c-0.0549,-3.0826 -0.2254,-2.1086 0,-2.9395c2.2389,-0.2254 4.6984,0.3567 6.8589,0c0.3273,-3.3472 0.8437,-6.1711 2.9396,-7.8388zM224.7555,144.5149c-0.1166,19.8712 1.8685,50.0113 3.9193,65.6497c9.822,-2.5898 22.2014,-2.6211 33.3148,-3.9194c0.3753,-5.4097 0.3753,-5.3686 0,-10.7783c-4.8551,-0.9799 -18.2604,3.4147 -22.5364,-1.9597c-1.7099,-21.1245 -3.4442,-27.5709 -2.9396,-48.9923c-3.7303,-1.9862 -6.4924,0.8005 -11.7581,0z" fill="#ffffff"/><path d="M236.5136,144.5149c-0.5046,21.4214 1.2297,27.8678 2.9396,48.9923c4.276,5.3744 17.6813,0.9798 22.5364,1.9597c0.3753,5.4097 0.3753,5.3686 0,10.7783c-11.1134,1.2983 -23.4928,1.3296 -33.3148,3.9194c-2.0508,-15.6384 -4.0359,-45.7785 -3.9193,-65.6497c5.2657,0.8005 8.0278,-1.9862 11.7581,0z" fill="#ff9400"/></g></g></svg>