<svg version="1.1" xmlns="http://www.w3.org/2000/svg" xmlns:xlink="http://www.w3.org/1999/xlink" width="60.5" height="79.32261" viewBox="0,0,60.5,79.32261"><g transform="translate(-212.5308,-142.86009)"><g data-paper-data="{&quot;isPaintingLayer&quot;:true}" fill-rule="nonzero" stroke="none" stroke-width="0.93077" stroke-linecap="butt" stroke-linejoin="miter" stroke-miterlimit="10" stroke-dasharray="" stroke-dashoffset="0" style="mix-blend-mode: normal"><path d="M240.4538,142.9115c0.6209,0 1.2408,0 1.8616,0c-0.4198,1.52 5.0727,1.52 4.6538,0c0.31,0 0.6208,0 0.9308,0c0.0251,0.9057 1.1393,0.7223 1.8615,0.9308c-0.4635,7.9813 5.391,13.3147 3.7231,19.5462c8.2494,13.4682 9.2528,34.1834 19.5462,45.6076c0,0.6209 0,1.2408 0,1.8616c-5.3036,-0.2066 -0.5166,4.8363 -2.7923,6.5154c-2.5513,3.0333 -9.9872,1.182 -12.1,4.6538c-0.9308,0 -1.8616,0 -2.7924,0c-3.7593,-9.0759 -3.1497,-17.7423 -8.3769,-26.0615c-12.8371,-2.2879 -12.8074,8.2894 -14.8923,16.7538c-2.2003,2.1436 -4.3225,4.3644 -4.6538,8.3769c-5.1463,-0.4393 -10.608,-0.5612 -14.8923,-1.8615c0,-0.6208 0,-1.2407 0,-1.8615c5.6181,-21.995 11.2018,-44.0245 15.823,-67.0154c8.9429,2.4274 4.7041,-8.3267 12.1,-7.4462zM236.7308,147.5654c-4.4715,21.5901 -10.7895,41.3336 -14.8923,63.2923c3.6002,-0.498 4.544,1.6614 8.3769,0.9308c1.2602,-8.0475 3.7286,-14.8868 4.6538,-23.2693c6.2641,0.0587 10.0803,-2.3297 15.8231,-2.7923c2.8314,8.9577 7.0953,16.4839 10.2385,25.1308c3.4513,0.659 3.9948,-1.5898 7.4461,-0.9308c-3.441,-8.8442 -8.6161,-19.2334 -9.3077,-27.9231c-6.412,-9.101 -8.1172,-22.909 -11.1692,-35.3692c-5.3808,0.5659 -8.1387,-1.9844 -11.1692,0.9308z" fill="#ffffff"/><path d="M242.3154,142.9115c1.5516,0 3.1022,0 4.6538,0c0.4189,1.52 -5.0736,1.52 -4.6538,0z" fill="none"/><path d="M247.9,142.9115c8.3769,0 16.7538,0 25.1308,0c0,22.0285 0,44.0561 0,66.0846c-10.2934,-11.4242 -11.2968,-32.1394 -19.5462,-45.6076c1.6679,-6.2315 -4.1866,-11.5649 -3.7231,-19.5462c-0.7222,-0.2085 -1.8364,-0.0251 -1.8615,-0.9308z" fill="none"/><path d="M247.9,146.6346c3.052,12.4602 4.7572,26.2682 11.1692,35.3692c0.6916,8.6897 5.8667,19.0789 9.3077,27.9231c-3.4513,-0.659 -3.9948,1.5898 -7.4461,0.9308c-3.1432,-8.6469 -7.4071,-16.1731 -10.2385,-25.1308c-5.7428,0.4626 -9.559,2.851 -15.8231,2.7923c-0.9252,8.3825 -3.3936,15.2218 -4.6538,23.2693c-3.8329,0.7306 -4.7767,-1.4288 -8.3769,-0.9308c4.1028,-21.9587 10.4208,-41.7022 14.8923,-63.2923c3.0305,-2.9152 5.7884,-0.3649 11.1692,-0.9308zM237.6615,182.9346c5.2626,-1.3794 8.2076,-1.923 13.0308,-0.9308c-1.1281,-8.8004 -4.9163,-14.9397 -6.5154,-23.2692c-0.2057,-0.7251 -0.78,-1.0825 -1.8615,-0.9308c-2.7551,6.6476 -4.9247,18.5251 -4.6539,25.1308z" fill="#ff9400"/><path d="M242.3154,157.8038c1.0815,-0.1517 1.6558,0.2057 1.8615,0.9308c1.5991,8.3295 5.3873,14.4688 6.5154,23.2692c-4.8232,-0.9922 -7.7682,-0.4486 -13.0308,0.9308c-0.2708,-6.6057 1.8988,-18.4832 4.6539,-25.1308zM242.3154,178.2808c0.1489,-2.9413 0.0326,-5.6172 -1.8616,-6.5154c0.6786,2.1138 -1.6772,7.2618 1.8616,6.5154z" fill="#ffffff"/><path d="M240.4538,171.7654c1.8942,0.8982 2.0105,3.5741 1.8616,6.5154c-3.5388,0.7464 -1.183,-4.4016 -1.8616,-6.5154z" fill="none"/><path d="M255.3461,222.0269c-13.9634,-0.618 -30.4026,1.2379 -42.8153,-0.9308c0,-0.6208 0,-1.2407 0,-1.8615c4.2843,1.3003 9.746,1.4222 14.8923,1.8615c0.3313,-4.0125 2.4535,-6.2333 4.6538,-8.3769c2.0849,-8.4644 2.0552,-19.0417 14.8923,-16.7538c5.2272,8.3192 4.6176,16.9856 8.3769,26.0615z" fill="none"/><path d="M273.0308,210.8577c0,3.7231 0,7.4461 0,11.1692c-4.9638,0 -9.9286,0 -14.8923,0c2.1128,-3.4718 9.5487,-1.6205 12.1,-4.6538c2.2757,-1.6791 -2.5113,-6.722 2.7923,-6.5154z" fill="none"/></g></g></svg>