<svg version="1.1" xmlns="http://www.w3.org/2000/svg" xmlns:xlink="http://www.w3.org/1999/xlink" width="45.34222" height="44.56227" viewBox="0,0,45.34222,44.56227"><g transform="translate(-217.32888,-157.71885)"><g data-paper-data="{&quot;isPaintingLayer&quot;:true}" fill-rule="evenodd" stroke="none" stroke-width="1" stroke-linecap="butt" stroke-linejoin="miter" stroke-miterlimit="10" stroke-dasharray="" stroke-dashoffset="0" style="mix-blend-mode: normal"><path d="M246.57539,160.65413l-3.112,4.38054l-6.9,-0.56151l-4.328,-4.89425c0,0 2.696,-1.40575 2.696,-1.4615c1.212,-0.60531 3.66,-0.35841 5.028,-0.29469c0.628,0.03186 4.288,0.0438 4.628,0.59734c0.268,0.43009 1.988,2.23407 1.988,2.23407z" fill="#e6079c"/><path d="M261.43939,186.85369c-2.672,6.54292 -7.072,12.29336 -14.272,14.05354c-0.104,-0.14336 -4.904,-7.10841 -4.904,-7.10841c2.028,-1.84381 3.216,-3.55619 5.532,-5.02964c2.94,-1.8677 6.6,-4.24513 9.524,-6.1407z" fill="#ffffff"/><path d="M235.74339,188.17979l-0.428,5.88186c-0.092,1.28628 -0.736,4.72699 -0.736,4.72699c0,0 -2.536,1.38584 -3.336,1.4854c-1.248,0.16726 -3.624,-1.31416 -4.676,-1.99115c-3.528,-2.26194 -5.644,-5.81018 -7.384,-9.50177l5.54,-6.59867c0.204,-0.21106 10.776,5.83805 11.02,5.99734z" fill="#ffffff"/><path d="M235.44739,163.04749l-3.284,8.76106c0,0 -5.304,3.50442 -6.576,4.30088c0,0 -6.116,-2.23806 -6.14,-2.30973c-0.084,-0.03186 -0.484,-2.42123 -0.592,-2.46504c0.892,-3.21372 3.136,-6.19248 5.644,-8.36284c1.224,-1.05929 4.256,-2.80752 5.728,-3.49247c0.488,-0.21902 3.236,0.57743 3.236,0.57743z" fill="#ffffff"/><path d="M247.16339,200.91519c-2.46677,0.8584 -5.0553,1.3195 -7.668,1.36593c-1.46592,-0.00297 -2.9274,-0.16049 -4.36,-0.46991c-1.108,-0.24292 -3.204,-0.64115 -4.044,-1.43761c0.79101,-1.43562 1.71359,-2.79539 2.756,-4.06195c0.552,-0.60929 3.868,-4.56769 5.94,-4.86637l4.288,4.87035z" fill="#e6079c"/><path d="M255.71939,183.71563l-7.928,5.05752c0,0 -9.228,-3.04647 -9.228,-3.61195c0,-0.08363 -0.36,-12.01859 -0.36,-12.09823c-0.108,-0.44602 9.956,-5.74646 10.252,-5.99734c0.296,-0.25089 8.268,7.57036 8.568,7.31549c0.252,-0.21106 -1.304,9.33451 -1.304,9.33451z" fill="#e6079c"/><path d="M238.51939,183.38909c0,0 -2.18,2.46106 -2.34,2.78761c0.048,-0.15929 -4.86,2.10664 -4.86,2.10664c0,0 -5.484,-2.70398 -8.244,-5.57522v-7.9646c0.128,-0.08761 8.236,-5.32434 8.352,-5.41195l5.144,1.00753l1.88,5.79026z" fill="#e6079c"/><path d="M236.17939,186.16886c-0.00156,-0.00927 -0.00156,-0.01873 0,-0.028z" fill="#f0e6d2"/><path d="M233.86339,196.30369c0,0 -2.276,-6.57478 -2.584,-8.02434c1.96,-2.07478 7.232,-4.93009 7.232,-4.93009c3.056,1.75619 6.432,3.3531 9.272,5.4239c-0.764,2.62035 -2.512,5.09337 -3.716,7.54646c-1.976,0.49779 -8.864,-0.05177 -10.204,-0.01593z" fill="#e6079c"/><path d="M250.63139,160.42714v0h0.032z" fill="#f0e6d2"/><path d="M260.22339,169.94086l-5.164,4.12168c-2.644,-1.30221 -8.896,-4.77876 -8.896,-4.77876l-4.064,-2.96681l0.56,-3.04248c0,0 1.936,-2.84337 2.736,-3.40885c0.348,-0.23894 2.196,-0.76858 2.524,-0.45398c0.496,-0.12743 2.3,0.78451 2.728,0.99159h-0.108c0.652,0.17124 7.824,5.74646 9.388,8.9323c0.024,0.05177 0.268,0.52567 0.296,0.60531z" fill="#ffffff"/><path d="M246.20339,169.41917c0,0 -7.068,6.24823 -7.436,6.55885c-0.08755,0.06041 -0.18143,0.11115 -0.28,0.15133c-0.344,-0.17124 -4.108,-3.71151 -4.576,-4.18142c-0.468,-0.46991 -0.9,-0.97965 -1.332,-1.4854c-0.204,-0.23496 -0.948,-0.88407 -1.116,-1.14691l4,-6.24425c0.064,-0.0916 7.2,0.21903 7.2,0.21903z" fill="#e6079c"/><path d="M261.43539,186.8497c-2.05223,-0.75732 -3.97895,-1.81641 -5.716,-3.14204c-0.036,-0.55752 -0.996,-9.70884 -0.996,-9.90398c0.832,-0.75266 4.72,-3.89469 5.504,-3.86283c2.084,4.81062 3.636,11.9469 1.208,16.90885z" fill="#e6079c"/><path d="M224.31539,183.86298l-5.04,4.97389l-0.096,-0.03983c-2.588,-5.51549 -2.236,-11.81548 -0.332,-17.43053c0.912,0.44204 4.924,2.62434 5.064,2.78761c0.06,0.0677 0.388,9.60531 0.404,9.70885z" fill="#e6079c"/><path d="M234.98739,158.0656l-1.548,1.99115c-0.44,-0.06372 -2.088,-0.29071 -2.528,-0.35044c-0.232,-0.03186 -0.464,-0.08363 -0.696,-0.12744v-0.09955c0.184,-0.06372 0.36,-0.1354 0.544,-0.19514c0.468,-0.15531 0.936,-0.3146 1.408,-0.46194c0.308,-0.09557 0.62,-0.17124 0.928,-0.25885c0.20791,-0.04757 0.41133,-0.11286 0.608,-0.19514c0.41567,-0.14708 0.84622,-0.24857 1.284,-0.30265z" fill="#ffffff"/><path d="M245.06339,160.12846c0,0 -0.312,-1.14293 -0.484,-1.70841c1.08208,0.24916 2.15023,0.55489 3.2,0.91593v0.0916c-0.084,0.03983 -2.716,0.70088 -2.716,0.70088z" fill="#ffffff"/></g></g></svg>