<svg version="1.1" xmlns="http://www.w3.org/2000/svg" xmlns:xlink="http://www.w3.org/1999/xlink" width="75.31" height="78.32402" viewBox="0,0,75.31,78.32402"><g transform="translate(-203,-140.99998)"><g data-paper-data="{&quot;isPaintingLayer&quot;:true}" fill-rule="nonzero" stroke="none" stroke-width="1" stroke-linecap="butt" stroke-linejoin="miter" stroke-miterlimit="10" stroke-dasharray="" stroke-dashoffset="0" style="mix-blend-mode: normal"><path d="M278.31,154.754c0,2.93 -1.05,5.7 -2.96,7.91c-1.71,2.09 -3.9,3.69 -6.4,4.72c0.05,2.27 0.12,5.04 0.21,8.26v4.83c0.27,6.31 0.39,8.83 0.44,9.83c0.05,0.38 0.08,0.77 0.09,1.17c0.06,3.07 -0.03,7.46 -0.27,13.43c-0.02,0.46 -0.07,0.92 -0.15,1.37c-0.43,2.57 -1.6,5.07 -3.48,7.42c-2.49,3.1 -5.92,5.07 -9.68,5.54c-0.46,0.06 -0.92,0.09 -1.38,0.09c-2.17,0 -3.67,-0.56 -6.15,-1.49c-3.04,-1.14 -5.4,-3.56 -6.49,-6.58c-2.48,0.93 -5.05,1.3 -7.62,1.09c-1.22,-0.06 -3.02,0.03 -5.31,0.25c-0.34,0.04 -1.4,0.2 -3.79,0.73c-0.12,0.03 -0.24,0.05 -0.36,0.07c-2.46,0.47 -4.84,0.65 -7,0.56c-0.16,-0.01 -0.33,-0.02 -0.49,-0.04c-6.96,-0.61 -13.99,-5.33 -13.99,-14.47c0,-1.54 0.25,-3.06 0.74,-4.54c0.31,-0.91 0.73,-1.77 1.26,-2.58c1.26,-1.92 3.81,-4.78 8.29,-6.2v-1.72c0,-0.81 0.09,-1.62 0.27,-2.4l-0.16,-2.69c0,-0.07 -0.01,-0.14 -0.01,-0.22c-0.05,-1.22 -0.13,-2.31 -0.26,-3.24c-0.04,-0.29 -0.07,-0.58 -0.08,-0.87c-0.04,-0.57 -0.07,-1.19 -0.11,-1.87c-6.24,-1.58 -10.47,-7.01 -10.47,-14.05c0,-3.3 1.35,-6.33 4,-8.99c2.05,-2.07 4.36,-3.37 6.86,-3.89c1.8,-0.38 3.83,-0.47 7.1,-0.32c0.33,0 0.99,-0.03 2.19,-0.1c1.65,-0.11 2.8,-0.16 3.64,-0.16c2.95,0 5.38,1.11 7.13,2.13c2.6,-3.05 6.1,-4.94 10.15,-5.47c0.29,-0.03 0.57,-0.06 0.86,-0.08l3.33,-0.17c0.12,-0.01 0.24,-0.01 0.36,-0.01c2.69,-0.06 7.14,-0.36 13.24,-0.92c3.33,-0.36 6.66,0.44 9.73,2.34c4.27,2.63 6.72,6.76 6.72,11.33z" id="ID0.6886274544522166" fill="#ffa100"/><path d="M266.957,155.549c-0.939,1.231 -2.287,1.936 -4.047,2.111c-2.874,0.176 -4.516,0.323 -4.926,0.439c-0.059,1.231 -0.088,3.197 -0.088,5.894c0.029,2.757 0.117,6.744 0.264,11.963c0,1.114 0,2.697 0,4.75c0.353,8.327 0.528,11.992 0.528,10.994c0.058,2.815 -0.03,7.067 -0.264,12.755c-0.118,0.704 -0.528,1.495 -1.231,2.375c-0.704,0.88 -1.526,1.377 -2.463,1.495c-0.118,0 -0.88,-0.264 -2.287,-0.791c-0.176,-0.762 -0.411,-1.408 -0.704,-1.936c-1.174,-1.759 -2.757,-4.251 -4.749,-7.477c-1.291,-2.521 -3.314,-6.303 -6.069,-11.348c-1.936,-2.696 -4.838,-7.036 -8.708,-13.018c-0.411,-0.82 -1.115,-2.052 -2.111,-3.694h-0.176c-0.176,2.581 -0.147,5.189 0.088,7.828c0,0.118 0.044,0.323 0.132,0.616c0.088,0.294 0.132,0.527 0.132,0.703v6.069c0,2.815 -0.118,5.044 -0.352,6.686c0.059,0.821 0.207,2.022 0.443,3.606c0.827,0.47 1.832,0.703 3.015,0.703c0.473,0 1.122,-0.058 1.95,-0.176c0.827,-0.117 1.448,-0.176 1.862,-0.176c1.714,0 2.954,0.615 3.725,1.847c0.292,1.174 -0.323,2.111 -1.848,2.815c-1.29,0.646 -2.551,0.909 -3.782,0.791c-1.759,-0.116 -4.193,-0.023 -7.301,0.279c-1.114,0.125 -2.786,0.436 -5.014,0.932c-1.643,0.309 -3.138,0.432 -4.486,0.373c-2.639,-0.234 -3.958,-1.407 -3.958,-3.519c0,-0.352 0.058,-0.704 0.175,-1.056c0.929,-1.407 2.587,-2.111 4.971,-2.111c0.29,0 0.755,0 1.396,0c0.581,0 1.017,0 1.309,0c1.162,0 1.976,-0.204 2.441,-0.615c0,-0.353 0,-0.938 0,-1.76v-9.499c0.234,-0.646 0.322,-1.554 0.265,-2.728c-0.06,-0.996 -0.118,-1.992 -0.176,-2.99c-0.06,-1.583 -0.177,-3.02 -0.353,-4.311c-0.118,-2.11 -0.264,-4.926 -0.439,-8.443c0,0.176 0.028,-0.381 0.088,-1.672c0.058,-0.762 -0.132,-1.289 -0.571,-1.583c-0.44,-0.293 -1.13,-0.44 -2.067,-0.44c-0.47,0 -1.174,0.06 -2.111,0.177c-0.938,0.118 -1.643,0.176 -2.111,0.176c-2.229,0 -3.342,-1.173 -3.342,-3.519c0,-0.293 0.262,-0.704 0.787,-1.231c0.525,-0.528 0.964,-0.82 1.314,-0.88c0.758,-0.176 2.305,-0.204 4.641,-0.088c0.7,0 1.736,-0.044 3.107,-0.132c1.372,-0.088 2.351,-0.132 2.935,-0.132c0.408,0 1.079,0.298 2.014,0.895c0.935,0.597 1.576,1.191 1.927,1.787c0.059,0 1.714,2.955 4.964,8.861c1.292,2.402 2.776,4.88 4.452,7.428c1.674,2.55 3.628,5.641 5.861,9.272c1.468,2.521 3.613,6.329 6.435,11.427c0.234,-0.996 0.353,-2.052 0.353,-3.166c0,-0.293 0.058,-0.981 0.176,-2.067c0.118,-1.084 0.177,-1.861 0.177,-2.331c0,-0.469 -0.059,-1.216 -0.176,-2.243c-0.118,-1.025 -0.176,-1.568 -0.176,-1.627v-5.102c0,-0.528 -0.146,-7.741 -0.436,-21.639c-0.233,-0.058 -0.495,-0.088 -0.786,-0.088c-0.523,0 -1.309,0.118 -2.355,0.352c-1.048,0.235 -1.774,0.383 -2.182,0.44c-0.757,-0.058 -1.775,-0.088 -3.055,-0.088c-0.058,-0.058 -0.451,-0.337 -1.178,-0.836c-0.729,-0.498 -1.062,-0.924 -1.004,-1.275c0,-0.409 0.146,-0.968 0.44,-1.671c0.82,-0.997 1.904,-1.584 3.254,-1.76c1.113,-0.058 2.229,-0.117 3.343,-0.176c2.99,-0.058 7.71,-0.381 14.161,-0.968c0.88,-0.116 1.817,0.132 2.815,0.748c0.996,0.615 1.495,1.275 1.495,1.979c-0.001,0.299 -0.12,0.563 -0.353,0.796z" id="ID0.2878211308270693" fill="#ffffff"/></g></g></svg>