<svg version="1.1" xmlns="http://www.w3.org/2000/svg" xmlns:xlink="http://www.w3.org/1999/xlink" width="65.19" height="78.83" viewBox="0,0,65.19,78.83"><g transform="translate(-208,-141)"><g data-paper-data="{&quot;isPaintingLayer&quot;:true}" fill-rule="nonzero" stroke="none" stroke-width="1" stroke-linecap="butt" stroke-linejoin="miter" stroke-miterlimit="10" stroke-dasharray="" stroke-dashoffset="0" style="mix-blend-mode: normal"><path d="M269.36,190.73c-0.79,0.8 -1.85,1.66 -3.23,2.4c0.2,1.58 0.43,3.39 0.7,5.42c0.4,1.04 0.83,2.26 1.29,3.74c0.19,0.63 0.33,1.27 0.41,1.93c0.59,4.76 -1.34,9.39 -5.17,12.36c-2.73,2.12 -6.02,3.25 -9.52,3.25c-2.67,0 -5.14,-0.67 -7.24,-1.92c-2.96,1.09 -6.16,1.65 -9.57,1.65c-4.94,0 -9.78,-1.19 -14.36,-3.55c-4.17,-2.06 -7.57,-5.44 -10.12,-10.03c-3.02,-5.45 -4.55,-12.01 -4.55,-19.5c0,-2.18 0.12,-4.1 0.38,-5.86c0.17,-1.2 0.39,-2.91 0.68,-5.13c0.12,-0.95 0.37,-1.88 0.73,-2.76c0.39,-1.88 0.98,-4.21 1.79,-7.08c0.11,-0.4 0.25,-0.79 0.4,-1.18c3.41,-8.36 8.3,-14.39 14.54,-17.91c4.76,-2.69 9.87,-4.06 15.18,-4.06c2.09,0 4.12,0.21 6.09,0.64c2.04,-1.3 4.65,-2.14 7.89,-2.14c1.82,0 3.56,0.37 5.19,1.09c4.2,1.79 7.1,5.49 7.79,9.99c0.02,0.14 0.04,0.28 0.06,0.42c0.28,2.42 0.14,5.42 -0.45,9.66c-0.04,1.96 -0.39,4.04 -1.07,6.34c-0.13,0.44 -0.29,0.87 -0.48,1.29c0.66,0.39 1.28,0.85 1.86,1.38c2.97,2.73 4.61,6.39 4.61,10.3c0,3.5 -1.36,6.79 -3.83,9.26z" fill="#ff0000"/><path d="M261.575,182.965c-0.587,0.587 -1.495,0.909 -2.727,0.967c0.82,-0.058 -0.176,-0.116 -2.991,-0.176c-0.176,1.643 -0.558,3.87 -1.144,6.686c0.293,2.521 0.762,6.188 1.407,10.995c0.41,0.879 0.909,2.258 1.496,4.134c0.116,0.939 -0.221,1.716 -1.012,2.331c-0.792,0.616 -1.716,0.924 -2.771,0.924c-0.998,0 -1.73,-0.293 -2.199,-0.88c-0.06,-0.585 -0.235,-1.495 -0.528,-2.727c-0.587,-1.642 -0.851,-2.668 -0.791,-3.079c0.058,0 0,-0.116 -0.177,-0.352c-3.284,4.517 -7.652,6.773 -13.105,6.773c-3.226,0 -6.363,-0.792 -9.412,-2.375c-2.17,-1.056 -3.988,-2.903 -5.453,-5.542c-2.111,-3.812 -3.167,-8.532 -3.167,-14.162c0,-1.641 0.088,-3.078 0.264,-4.31c0.176,-1.232 0.41,-2.99 0.704,-5.277c0.116,-0.117 0.233,-0.353 0.352,-0.704c0.293,-1.7 0.908,-4.222 1.848,-7.564c2.463,-6.039 5.717,-10.203 9.763,-12.49c3.108,-1.76 6.362,-2.639 9.764,-2.639c4.104,0 7.799,1.35 11.084,4.046c0.058,-0.058 0.116,-0.321 0.176,-0.792c-0.118,-0.761 -0.118,-1.876 0,-3.342c0.233,-0.938 1.144,-1.408 2.727,-1.408c0.293,0 0.557,0.06 0.792,0.177c0.761,0.294 1.201,0.821 1.319,1.583c0.176,1.525 0,4.076 -0.528,7.652c0.058,1.056 -0.146,2.375 -0.615,3.958c-0.646,0.704 -1.379,1.056 -2.199,1.056c-1.29,0 -2.229,-0.557 -2.814,-1.671c0,-0.41 -0.088,-0.938 -0.264,-1.584c-0.938,-1.641 -2.023,-2.931 -3.255,-3.87c-1.584,-1.231 -3.754,-1.935 -6.51,-2.11c-4.749,-0.41 -8.532,1.378 -11.347,5.365c-1.994,2.933 -3.401,6.421 -4.222,10.468c-0.176,0.527 -0.411,1.35 -0.704,2.463c-0.646,3.577 -0.968,6.803 -0.968,9.675c0,4.047 0.645,7.917 1.936,11.611c0.762,2.17 2.315,3.93 4.662,5.277c2.169,1.291 4.397,1.936 6.685,1.936c1.524,0 3.049,-0.322 4.574,-0.968c1.056,-0.409 2.668,-2.315 4.838,-5.718c0.469,-0.761 0.85,-1.641 1.144,-2.639c0.352,-1.348 0.585,-2.199 0.703,-2.551c0.469,-1.113 0.718,-2.536 0.748,-4.266c0.028,-1.729 0.161,-2.976 0.396,-3.738c-1.466,-0.117 -3.46,0 -5.981,0.352c-3.401,0.527 -5.132,0.791 -5.189,0.791c-1.935,0 -3.313,-0.761 -4.134,-2.286c-0.235,-0.528 -0.294,-1.085 -0.176,-1.672c0.233,-0.703 0.732,-1.319 1.495,-1.847c1.172,-0.88 3.136,-1.201 5.894,-0.968c4.163,0.411 7.505,0.615 10.027,0.615c0.352,0 1.319,-0.028 2.902,-0.088c1.408,-0.058 2.463,-0.058 3.167,0c0.88,-0.058 1.905,0.03 3.079,0.265c0.703,0.646 1.055,1.378 1.055,2.198c-0.003,0.588 -0.209,1.087 -0.618,1.497z" fill="#ffffff"/></g></g></svg>