<svg version="1.1" xmlns="http://www.w3.org/2000/svg" xmlns:xlink="http://www.w3.org/1999/xlink" width="273.26999" height="118.68" viewBox="0,0,273.26999,118.68"><g transform="translate(-66.35871,-121.86)"><g data-paper-data="{&quot;isPaintingLayer&quot;:true}" fill-rule="nonzero" stroke-miterlimit="10" stroke-dasharray="" stroke-dashoffset="0" style="mix-blend-mode: normal"><g data-paper-data="{&quot;index&quot;:null}"><path d="M300.72371,218.425c1.554,1.553 2.515,3.698 2.515,6.065c0,2.367 -0.961,4.512 -2.515,6.065c-1.553,1.554 -3.698,2.515 -6.065,2.515c-2.367,0 -4.512,-0.961 -6.065,-2.515c-1.554,-1.553 -2.515,-3.698 -2.515,-6.065c0,-2.367 0.961,-4.512 2.515,-6.065c1.553,-1.554 3.698,-2.515 6.065,-2.515c2.367,0 4.512,0.961 6.065,2.515z" fill="#f7c1d8" stroke="none" stroke-width="1" stroke-linecap="butt" stroke-linejoin="miter"/><path d="M294.65871,209.82c8.284,0 15,6.716 15,15c0,8.284 -6.716,15 -15,15c-8.284,0 -15,-6.716 -15,-15c0,-8.284 6.716,-15 15,-15zM294.65871,232.2c4.101,-0.099 7.355,-3.486 7.289,-7.587c-0.065,-4.101 -3.426,-7.383 -7.528,-7.351c-4.101,0.033 -7.41,3.366 -7.411,7.468c-0.001,2.013 0.811,3.941 2.251,5.347c1.44,1.406 3.387,2.172 5.399,2.123z" fill="#5e154d" stroke="#5e154d" stroke-width="1.44" stroke-linecap="round" stroke-linejoin="round"/><path d="M297.3737,222.015c0.695,0.696 1.125,1.656 1.125,2.715c0,1.059 -0.43,2.019 -1.125,2.715c-0.696,0.695 -1.656,1.125 -2.715,1.125c-1.059,0 -2.019,-0.43 -2.715,-1.125c-0.695,-0.696 -1.125,-1.656 -1.125,-2.715c0,-1.059 0.43,-2.019 1.125,-2.715c0.696,-0.695 1.656,-1.125 2.715,-1.125c1.059,0 2.019,0.43 2.715,1.125z" fill="#ffffff" stroke="#da53d6" stroke-width="1.08" stroke-linecap="round" stroke-linejoin="round"/></g><g data-paper-data="{&quot;index&quot;:null}"><path d="M165.23871,212.76c6.627,0 12,5.373 12,12c0,6.627 -5.373,12 -12,12c-6.627,0 -12,-5.373 -12,-12c0,-6.627 5.373,-12 12,-12z" fill="#f7c1d8" stroke="none" stroke-width="1" stroke-linecap="butt" stroke-linejoin="miter"/><path d="M165.23871,209.82c8.284,0 15,6.716 15,15c0,8.284 -6.716,15 -15,15c-8.284,0 -15,-6.716 -15,-15c0,-8.284 6.716,-15 15,-15zM165.23871,232.2c3.021,0 5.745,-1.82 6.901,-4.611c1.157,-2.792 0.517,-6.005 -1.619,-8.141c-2.136,-2.136 -5.349,-2.776 -8.141,-1.619c-2.791,1.156 -4.611,3.88 -4.611,6.901c-0.008,1.984 0.776,3.888 2.179,5.291c1.403,1.403 3.307,2.187 5.291,2.179z" fill="#5e154d" stroke="#5e154d" stroke-width="1.44" stroke-linecap="round" stroke-linejoin="round"/><path d="M167.95371,222.015c0.695,0.696 1.125,1.656 1.125,2.715c0,1.059 -0.43,2.019 -1.125,2.715c-0.696,0.695 -1.656,1.125 -2.715,1.125c-1.059,0 -2.019,-0.43 -2.715,-1.125c-0.695,-0.696 -1.125,-1.656 -1.125,-2.715c0,-1.059 0.43,-2.019 1.125,-2.715c0.696,-0.695 1.656,-1.125 2.715,-1.125c1.059,0 2.019,0.43 2.715,1.125z" fill="#ffffff" stroke="#da53d6" stroke-width="1.08" stroke-linecap="round" stroke-linejoin="round"/></g><g data-paper-data="{&quot;index&quot;:null}"><path d="M122.00871,212.76c6.627,0 12,5.373 12,12c0,6.627 -5.373,12 -12,12c-6.627,0 -12,-5.373 -12,-12c0,-6.627 5.373,-12 12,-12z" fill="#f7c1d8" stroke="none" stroke-width="1" stroke-linecap="butt" stroke-linejoin="miter"/><path d="M122.00871,209.82c8.284,0 15,6.716 15,15c0,8.284 -6.716,15 -15,15c-8.284,0 -15,-6.716 -15,-15c0,-3.978 1.58,-7.794 4.393,-10.607c2.813,-2.813 6.629,-4.393 10.607,-4.393zM122.00871,232.2c4.126,0 7.47,-3.344 7.47,-7.47c0,-4.126 -3.344,-7.47 -7.47,-7.47c-4.126,0 -7.47,3.344 -7.47,7.47c0,4.126 3.344,7.47 7.47,7.47z" fill="#5e154d" stroke="#5e154d" stroke-width="1.44" stroke-linecap="round" stroke-linejoin="round"/><path d="M124.81371,222.015c0.695,0.696 1.125,1.656 1.125,2.715c0,1.059 -0.43,2.019 -1.125,2.715c-0.696,0.695 -1.656,1.125 -2.715,1.125c-1.059,0 -2.019,-0.43 -2.715,-1.125c-0.695,-0.696 -1.125,-1.656 -1.125,-2.715c0,-1.059 0.43,-2.019 1.125,-2.715c0.696,-0.695 1.656,-1.125 2.715,-1.125c1.059,0 2.019,0.43 2.715,1.125z" fill="#ffffff" stroke="#da53d6" stroke-width="1.08" stroke-linecap="round" stroke-linejoin="round"/></g><g data-paper-data="{&quot;index&quot;:null}" stroke="#5e154d" stroke-linejoin="miter"><g><path d="M226.25871,227.37h-28.08v-13.17h28.08z" fill="#fdbb38" stroke-width="1.44" stroke-linecap="butt"/><path d="M217.97871,214.2v13.17" fill="none" stroke-width="1.08" stroke-linecap="round"/><path d="M206.42871,227.37v-13.17" fill="none" stroke-width="1.08" stroke-linecap="round"/></g><path d="M251.54871,214.2h-184.47v-9.39h184.47z" fill="#ffffff" stroke-width="1.44" stroke-linecap="round"/><path d="M251.54871,224.73h-178.2v-10.53h178.2z" fill="#fdbb38" stroke-width="1.44" stroke-linecap="butt"/></g><g data-paper-data="{&quot;index&quot;:null}"><path d="M328.2587,187.74l-20.25,-11.4l-0.93,-4.41c0,0 18.27,10.11 22.2,12.33c4.47,2.49 4.44,4.65 4.44,9.96v30.51h-3.18v-30.81c-0.06,-2.7 -0.15,-4.92 -2.28,-6.18z" fill="#25b0b7" stroke="none" stroke-width="1" stroke-linecap="butt" stroke-linejoin="miter"/><path d="M292.04871,132.36c4.35,0 6.21,1.17 7.23,5.73c0.21,1.08 0.72,3.24 1.32,6h-3.69c-1.236,0.016 -2.234,1.014 -2.25,2.25v21.33c0,1.248 1.003,2.264 2.25,2.28h9.63l0.48,1.98l0.99,4.41l20.31,11.4c2.13,1.2 2.22,3.48 2.22,6.18v30.81h-16.89c0,-10.306 -8.354,-18.66 -18.66,-18.66c-10.306,0 -18.66,8.354 -18.66,18.66h-24.72v-92.37z" fill="#43c3d7" stroke="none" stroke-width="1" stroke-linecap="butt" stroke-linejoin="miter"/><path d="M270.29871,179.34h-9.36v-3.54h9.36z" fill="none" stroke="#009cc6" stroke-width="1.08" stroke-linecap="round" stroke-linejoin="round"/><path d="M323.18871,214.23h-6v-3.33h6z" fill="none" stroke="#5e154d" stroke-width="1.44" stroke-linecap="round" stroke-linejoin="round"/><path d="M259.22871,139.05h27.78c1.418,0.016 2.564,1.162 2.58,2.58v59.7c-8.705,1.385 -15.619,8.059 -17.31,16.71h-13.08c-1.418,-0.016 -2.564,-1.162 -2.58,-2.58v-73.83c0.016,-1.43 1.18,-2.58 2.61,-2.58z" fill="none" stroke="#009cc6" stroke-width="1.08" stroke-linecap="round" stroke-linejoin="round"/><path d="M285.47871,184.68h-3.48v-6.45h3.48z" fill="none" stroke="#009cc6" stroke-width="1.08" stroke-linecap="round" stroke-linejoin="round"/><path d="M260.90871,144.09h2.85l9.03,25.86h-11.88v-25.86" fill="#f7c1d8" stroke="none" stroke-width="1" stroke-linecap="butt" stroke-linejoin="miter"/><path d="M285.35871,144.09v25.86h-3.66l-9.03,-25.86h12.69" fill="#f7c1d8" stroke="none" stroke-width="1" stroke-linecap="butt" stroke-linejoin="miter"/><path d="M272.66871,144.09l9.03,25.86h-4.53l-9.06,-25.86h4.56" fill="#ffeef6" stroke="none" stroke-width="1" stroke-linecap="butt" stroke-linejoin="miter"/><path d="M296.90871,144h3.69c1.83,8.01 4.83,21 6,25.86h-3.42l-8.43,-24c0.206,-1.043 1.098,-1.811 2.16,-1.86z" fill="#f7c1d8" stroke="none" stroke-width="1" stroke-linecap="butt" stroke-linejoin="miter"/><path d="M300.59871,169.95h-3.69c-1.247,-0.016 -2.25,-1.032 -2.25,-2.28v-15.33z" fill="#f7c1d8" stroke="none" stroke-width="1" stroke-linecap="butt" stroke-linejoin="miter"/><path d="M294.65871,146.34c-0.015,-0.15 -0.015,-0.3 0,-0.45l8.43,24h-2.52l-6,-17.61z" fill="#ffeef6" stroke="none" stroke-width="1" stroke-linecap="butt" stroke-linejoin="miter"/><path d="M268.10871,144.09l9.06,25.86h-2.37l-9.03,-25.86h2.34" fill="#f7c1d8" stroke="none" stroke-width="1" stroke-linecap="butt" stroke-linejoin="miter"/><path d="M265.76869,144.09l9.03,25.86h-2.01l-9.03,-25.86h2.01" fill="#ffeef6" stroke="none" stroke-width="1" stroke-linecap="butt" stroke-linejoin="miter"/><path d="M306.23871,138.18c1.26,0 1.56,1.32 2.28,3.72c0.99,3.33 2.67,9.72 2.67,9.72h-4.65l-3.3,-13.44z" fill="#43c3d7" stroke="#5e154d" stroke-width="1.08" stroke-linecap="round" stroke-linejoin="round"/><path d="M303.23871,138.18l0.87,3.48h-4.05l-0.78,-3.48h3.96" fill="#43c3d7" stroke="#5e154d" stroke-width="1.08" stroke-linecap="round" stroke-linejoin="round"/><path d="M292.04871,132.36c4.35,0 6.21,1.17 7.23,5.73c0.21,1.08 0.72,3.24 1.32,6c1.83,8.01 4.83,21 6,25.86l0.48,1.98c0,0 18.27,10.11 22.2,12.33c4.47,2.49 4.44,4.65 4.44,9.96v30.51h-20.07c0,-10.306 -8.354,-18.66 -18.66,-18.66c-10.306,0 -18.66,8.354 -18.66,18.66h-24.72v-92.37z" fill="none" stroke="#5e154d" stroke-width="1.44" stroke-linecap="butt" stroke-linejoin="round"/><path d="M285.35871,169.95h-24.45v-25.86h24.45z" fill="none" stroke="#5e154d" stroke-width="1.08" stroke-linecap="round" stroke-linejoin="round"/><path d="M292.04871,132.36c4.35,0 6.21,1.17 7.23,5.73c0.21,1.08 0.72,3.24 1.32,6c1.83,8.01 4.83,21 6,25.86l0.48,1.98c0,0 18.27,10.11 22.2,12.33c4.47,2.49 4.44,4.65 4.44,9.96v30.51h-20.07c0,-10.306 -8.354,-18.66 -18.66,-18.66c-10.306,0 -18.66,8.354 -18.66,18.66h-24.72v-92.37z" fill="none" stroke="#5e154d" stroke-width="1.44" stroke-linecap="round" stroke-linejoin="round"/><path d="M294.68871,145.89c0.235,-1.041 1.153,-1.785 2.22,-1.8h3.69c1.83,8.01 4.83,21 6,25.86h-9.69c-1.247,-0.016 -2.25,-1.032 -2.25,-2.28v-21.33c-0.005,-0.151 0.005,-0.301 0.03,-0.45z" fill="none" stroke="#5e154d" stroke-width="1.08" stroke-linecap="round" stroke-linejoin="round"/><path d="M335.9087,216.66v2.79h-13.23l-0.6,-2.79h13.83" fill="#00828c" stroke="#5e154d" stroke-width="1.08" stroke-linecap="round" stroke-linejoin="round"/><path d="M335.9087,221.91h-12.72l-0.51,-2.46h13.23v2.46" fill="#00828c" stroke="#5e154d" stroke-width="1.08" stroke-linecap="round" stroke-linejoin="round"/><path d="M321.56871,214.2h14.34v2.46h-13.83l-0.51,-2.46" fill="#00828c" stroke="#5e154d" stroke-width="1.08" stroke-linecap="round" stroke-linejoin="round"/><path d="M333.65869,198.96h2.25c1.74,0 2.49,2.55 2.79,5.13h-5.04z" fill="#fdbb38" stroke="none" stroke-width="1" stroke-linecap="butt" stroke-linejoin="miter"/><path d="M338.69871,204c0.201,1.702 0.271,3.417 0.21,5.13h-5.25v-5.13z" fill="#ffffff" stroke="none" stroke-width="1" stroke-linecap="butt" stroke-linejoin="miter"/><path d="M335.9087,198.96c1.74,0 2.49,2.55 2.79,5.13c0.201,1.702 0.271,3.417 0.21,5.13h-5.25v-10.26z" fill="none" stroke="#5e154d" stroke-width="1.44" stroke-linecap="round" stroke-linejoin="round"/></g><g data-paper-data="{&quot;index&quot;:null}"><path d="M71.78871,133.77c0,-8.19 3.66,-11.19 9.45,-11.19h166.35v81.81h-175.8z" fill="#da53d6" stroke="none" stroke-width="1" stroke-linecap="butt" stroke-linejoin="miter"/><path d="M71.78871,133.77c0,-8.19 3.66,-11.19 9.45,-11.19h166.35v81.81h-175.8z" fill="#ff0000" stroke="#5e154d" stroke-width="1.44" stroke-linecap="round" stroke-linejoin="round"/><path d="M71.78871,138.63h175.8" fill="none" stroke="#fc9fe4" stroke-width="1.44" stroke-linecap="butt" stroke-linejoin="round"/><path d="M71.78871,155.37h175.8" fill="none" stroke="#fc9fe4" stroke-width="1.44" stroke-linecap="butt" stroke-linejoin="round"/><path d="M247.58871,172.11h-175.8" fill="none" stroke="#fc9fe4" stroke-width="1.44" stroke-linecap="butt" stroke-linejoin="round"/><path d="M247.58871,188.85h-175.8" fill="none" stroke="#fc9fe4" stroke-width="1.44" stroke-linecap="butt" stroke-linejoin="round"/><path d="M76.46871,134.58v-2.34c-0.155,-1.502 0.392,-2.992 1.483,-4.036c1.091,-1.044 2.603,-1.525 4.097,-1.304h3.21" fill="none" stroke="#ffffff" stroke-width="1.8" stroke-linecap="round" stroke-linejoin="round"/><path d="M251.54871,204.39h-3.96v-67.83h3.96z" fill="#5e154d" stroke="#5e154d" stroke-width="1.08" stroke-linecap="round" stroke-linejoin="round"/></g><path d="M278.12117,157.22739c0,2.45236 -2.15371,4.4404 -4.81043,4.4404c-2.65673,0 -4.81043,-1.98804 -4.81043,-4.4404c0,-2.45236 2.15371,-4.4404 4.81043,-4.4404c2.65673,0 4.81043,1.98804 4.81043,4.4404z" fill="#ffffff" stroke="#000000" stroke-width="2" stroke-linecap="butt" stroke-linejoin="miter"/><path d="M272.94069,166.47823c0,1.83927 -0.16566,3.3303 -0.37003,3.3303c-0.20436,0 -0.37003,-1.49103 -0.37003,-3.3303c0,-1.83927 0.16567,-3.33031 0.37003,-3.33031c0.20436,0 0.37003,1.49103 0.37003,3.33031z" fill="#ffffff" stroke="#000000" stroke-width="2" stroke-linecap="butt" stroke-linejoin="miter"/><path d="M284.0417,165.36813l-11.10101,0.74007l12.58114,-5.92054" fill="none" stroke="#000000" stroke-width="2" stroke-linecap="round" stroke-linejoin="miter"/><path d="M286.26189,163.88799c0,2.86109 -1.49103,5.18047 -3.3303,5.18047c-1.83927,0 -3.3303,-2.31938 -3.3303,-5.18047c0,-2.86109 1.49103,-5.18047 3.3303,-5.18047c1.83927,0 3.3303,2.31938 3.3303,5.18047z" fill="#000000" stroke="#000000" stroke-width="0.5" stroke-linecap="butt" stroke-linejoin="miter"/><text transform="translate(107.04597,155.96791) scale(0.5,0.5)" font-size="40" xml:space="preserve" fill="#fdff00" fill-rule="nonzero" stroke="none" stroke-width="1" stroke-linecap="butt" stroke-linejoin="miter" stroke-miterlimit="10" stroke-dasharray="" stroke-dashoffset="0" font-family="Sans Serif" font-weight="normal" text-anchor="start" style="mix-blend-mode: normal"><tspan x="0" dy="0">SOCCER </tspan><tspan x="0" dy="46.150000000000006px">GUANTONE</tspan></text></g></g></svg>