<svg version="1.1" xmlns="http://www.w3.org/2000/svg" xmlns:xlink="http://www.w3.org/1999/xlink" width="52.19018" height="79.10857" viewBox="0,0,52.19018,79.10857"><g transform="translate(-215.0099,-141.84083)"><g data-paper-data="{&quot;isPaintingLayer&quot;:true}" fill-rule="nonzero" stroke="none" stroke-linecap="butt" stroke-linejoin="miter" stroke-miterlimit="10" stroke-dasharray="" stroke-dashoffset="0" style="mix-blend-mode: normal"><path d="M263.0762,145.966c-1.6102,1.5949 -0.7652,5.644 -0.9613,8.6519c-10.8697,0.0462 -19.2246,2.4139 -26.9171,0.9614c-1.269,3.7616 -0.5345,8.0395 -0.9613,14.4199c9.2691,0.0615 16.0858,-0.8172 25.9558,-1.9227c2.0235,2.138 -1.0133,4.6355 0,8.6519c-10.5487,0.4942 -17.5779,-0.6017 -25.9558,0.9614c1.8774,5.493 0.5816,14.1593 0.9613,21.1491c8.9211,-1.3333 18.7305,-1.7775 26.9171,-3.8453c0.2701,3.2551 1.5295,5.52 0.9613,9.6133c-13.2499,0.7806 -24.0331,0.9334 -35.569,4.8066c-0.5095,-21.2116 0.7306,-40.7756 -2.884,-61.5248c11.9147,-4.3327 22.6719,-0.0077 38.453,-1.9227z" fill="#ff9400" stroke-width="0.96133"/><path d="M257.3083,142.1207c3.2012,-0.0058 6.5581,-0.6268 9.6132,0c0.6268,1.2142 0,3.2041 0,4.8066c-0.3201,0 -0.6412,0 -0.9613,0c-1.4401,3.0455 -0.4826,8.4905 -1.9226,11.536c-5.8247,-1.0354 -4.3125,2.4792 -5.768,3.8453l-18.9862,1.2016c-1.9592,0.4384 -0.72,-0.8767 -2.163,2.6437c9.123,2.2946 16.058,-3.0513 25.9558,-1.9227c2.3716,8.0617 -1.6352,15.6821 -4.8066,21.1492c-7.9473,-0.2567 -14.8832,0.4979 -20.1878,2.884c0,2.2427 0,4.4865 0,6.7292c9.4075,-0.8469 19.2669,-1.241 26.9171,-3.8453c3.0224,10.7284 -2.4956,14.9025 -1.9227,22.1105c-14.1074,2.5562 -31.3738,1.9515 -42.2983,7.6906c-0.6412,0 -1.2815,0 -1.9227,0c-2.8138,-26.4749 5.6632,-44.642 -3.8453,-66.3315c0,-0.6412 0,-1.2814 0,-1.9226c6.5986,0.8306 6.9177,-4.6182 8.652,-8.6519c3.9472,-1.1805 9.6084,-0.7518 13.4585,-1.9227c7.7522,0.5739 13.9691,0.0567 20.1879,0zM224.6232,147.8887c3.6146,20.7492 2.3745,40.3132 2.884,61.5248c11.5359,-3.8732 22.3191,-4.026 35.569,-4.8066c0.5682,-4.0933 -0.6912,-6.3582 -0.9613,-9.6133c-8.1866,2.0678 -17.996,2.512 -26.9171,3.8453c-0.3797,-6.9898 0.9161,-15.6561 -0.9613,-21.1491c8.3779,-1.5631 15.4071,-0.4672 25.9558,-0.9614c-1.0133,-4.0164 2.0235,-6.5139 0,-8.6519c-9.87,1.1055 -16.6867,1.9842 -25.9558,1.9227c0.4268,-6.3804 -0.3077,-10.6583 0.9613,-14.4199c7.6925,1.4525 16.0474,-0.9152 26.9171,-0.9614c0.1961,-3.0079 -0.6489,-7.057 0.9613,-8.6519c-15.7811,1.915 -26.5383,-2.41 -38.453,1.9227z" fill="#ffffff" stroke-width="0.96133"/><path d="M263.10207,145.92321c-1.6102,1.5949 -0.82206,5.72602 -1.01816,8.73392c-10.8697,0.0462 -19.17522,2.42116 -26.86772,0.96866c-1.269,3.7616 -0.59213,7.96202 -1.01893,14.34242c9.2691,0.0615 16.16814,-0.81157 26.03814,-1.91707c2.0235,2.138 -1.00648,4.65803 0.00682,8.67443c-10.5487,0.4942 -17.57782,-0.5991 -25.95572,0.964c1.8774,5.493 0.55064,14.11329 0.93034,21.10309c8.9211,-1.3333 18.67528,-1.76577 26.86188,-3.83357c0.2701,3.2551 1.59464,5.59526 1.02644,9.68856c-13.2499,0.7806 -24.08501,0.93706 -35.62091,4.81026c-0.5095,-21.2116 0.72635,-40.86197 -2.88825,-61.61117c11.9147,-4.3327 22.72498,-0.00854 38.50608,-1.92354z" data-paper-data="{&quot;noHover&quot;:false,&quot;origItem&quot;:[&quot;Path&quot;,{&quot;applyMatrix&quot;:true,&quot;segments&quot;:[[[224.6232,147.8887],[11.9147,-4.3327],[3.6146,20.7492]],[[227.5072,209.4135],[-0.5095,-21.2116],[11.5359,-3.8732]],[[263.0762,204.6069],[-13.2499,0.7806],[0.5682,-4.0933]],[[262.1149,194.9936],[0.2701,3.2551],[-8.1866,2.0678]],[[235.1978,198.8389],[8.9211,-1.3333],[-0.3797,-6.9898]],[[234.2365,177.6898],[1.8774,5.493],[8.3779,-1.5631]],[[260.1923,176.7284],[-10.5487,0.4942],[-1.0133,-4.0164]],[[260.1923,168.0765],[2.0235,2.138],[-9.87,1.1055]],[[234.2365,169.9992],[9.2691,0.0615],[0.4268,-6.3804]],[[235.1978,155.5793],[-1.269,3.7616],[7.6925,1.4525]],[[262.1149,154.6179],[-10.8697,0.0462],[0.1961,-3.0079]],[[263.0762,145.966],[-1.6102,1.5949],[-15.7811,1.915]]],&quot;closed&quot;:true,&quot;fillColor&quot;:[0,0,0,1]}]}" fill="#ff9400" stroke-width="0.5"/></g></g></svg>