<svg version="1.1" xmlns="http://www.w3.org/2000/svg" xmlns:xlink="http://www.w3.org/1999/xlink" width="127.06301" height="96.11867" viewBox="0,0,127.06301,96.11867"><g transform="translate(-176.24999,-138.81434)"><g data-paper-data="{&quot;isPaintingLayer&quot;:true}" fill-rule="nonzero" stroke-linejoin="miter" stroke-miterlimit="10" stroke-dasharray="" stroke-dashoffset="0" style="mix-blend-mode: normal"><path d="M239.7815,206.4253c17.3034,0 32.9826,1.5517 44.336,4.0579c11.3534,2.507 18.381,5.9687 18.381,9.7887c0,3.8201 -7.0276,7.2817 -18.381,9.7888c-11.3534,2.5062 -27.0326,4.0578 -44.336,4.0578c-17.3034,0 -32.9826,-1.5516 -44.336,-4.0578c-11.3534,-2.5071 -18.381,-5.9687 -18.381,-9.7888c0,-3.82 7.0276,-7.2817 18.381,-9.7887c11.3534,-2.5062 27.0326,-4.0579 44.336,-4.0579z" fill="#b2b2b2" stroke="#b2b2b2" stroke-width="1.62901" stroke-linecap="butt"/><g stroke-linecap="round"><path d="M238.4502,169.8985c11.5505,0 20.124,2.9002 29.5959,7.8871c4.501,2.3753 8.4245,7.0217 11.2923,12.7013c2.2579,4.4786 3.9219,10.2242 3.6653,15.5683c-0.4895,6.0139 0.4651,14.3636 -5.7015,15.4413c-24.6633,4.3083 -49.7867,4.138 -74.5273,-0.7625c-6.1854,-1.2252 -4.8512,-10.3069 -5.7016,-15.8861c-0.6141,-4.5269 -0.9432,-9.9841 0.6516,-13.9162c2.5095,-6.066 6.5894,-10.6183 11.1294,-13.1461c9.4182,-5.2144 18.0454,-7.8871 29.5959,-7.8871z" fill="#660000" stroke="#703d00" stroke-width="2.12954"/><path d="M239.2621,169.2368c9.8955,-0.3091 19.8251,-0.1382 29.5259,1.3407c5.6005,1.1605 13.0549,1.5342 15.8828,6.4937c3.6743,6.4309 0.8944,14.5937 0.4073,22.4138c-0.2126,2.0822 -0.9554,6.3153 -2.8508,5.6977c-4.303,-2.0026 -5.8001,-11.1189 -10.1406,-12.5685c-2.2505,-0.7482 -0.3567,6.4385 -2.9322,7.7925c-3.5024,1.8216 -9.8099,-3.8275 -11.7696,-0.8798c-2.2204,3.3474 4.3429,8.8206 2.9322,12.9874c-0.6948,2.7048 -6.0005,4.3965 -7.5749,2.1786c-3.0006,-4.2314 0.4398,-11.0561 -2.1177,-15.5849c-1.3431,-2.3839 -5.581,-2.4928 -7.5749,-0.8798c-3.7476,3.0424 -3.3134,9.7506 -7.1269,12.5684c-2.0404,1.5058 -5.2797,0.4525 -7.1677,-0.8797c-4.773,-4.1493 -5.9679,-13.5656 -11.7696,-14.7052c-4.3772,-0.8655 -6.6961,10.8542 -9.6926,9.5102c-3.3859,-1.5351 0.4186,-14.9967 -2.525,-16.0039c-2.7636,-0.9208 -6.0217,13.4919 -8.4709,12.8199c-2.8043,-0.8572 -2.2659,-10.7846 -2.0362,-15.8782c0.1873,-4.182 -0.9717,-10.8307 2.8507,-12.2334c13.2977,-4.8489 28.0606,-3.7479 42.1507,-4.1895z" fill="#ff99e5" stroke="#ff00bf" stroke-width="1.65257"/><path d="M217.6396,178.8543l4.1947,-0.8145" fill="none" stroke="#9b4976" stroke-width="1.62504"/><path d="M231.0789,188.9542h5.05" fill="none" stroke="#9b4976" stroke-width="1.62504"/><path d="M264.3108,184.3522v-3.7875" fill="none" stroke="#9b4976" stroke-width="1.62504"/><path d="M252.1339,175.5148l-4.2354,-2.525" fill="none" stroke="#9b4976" stroke-width="1.62504"/><path d="M279.0534,191.9271v-4.6427" fill="none" stroke="#9b4976" stroke-width="1.62504"/><path d="M271.4785,177.5918h3.3802" fill="none" stroke="#9b4976" stroke-width="1.62504"/><path d="M209.2095,180.1168l-3.7875,3.7874" fill="none" stroke="#9b4976" stroke-width="1.62504"/><path d="M210.0647,188.9542l3.3395,-0.8145" fill="none" stroke="#ffffff" stroke-width="1.62504"/><path d="M229.4092,172.9898l3.3802,2.9323" fill="none" stroke="#ffffff" stroke-width="1.62504"/><path d="M231.5269,202.027l3.3395,-2.973" fill="none" stroke="#ffffff" stroke-width="1.62504"/><path d="M252.5412,196.977l-3.3802,-2.5249" fill="none" stroke="#ffffff" stroke-width="1.62504"/><path d="M259.7088,197.3843l0.4073,-2.525z" fill="none" stroke="#ffffff" stroke-width="1.62504"/><path d="M260.5233,174.2523h3.7875" fill="none" stroke="#ffffff" stroke-width="1.62504"/><path d="M274.4107,186.0219l-3.3395,0.8553" fill="none" stroke="#ffffff" stroke-width="1.62504"/><path d="M200.7793,178.0398l4.6427,-1.7105" fill="none" stroke="#ffffff" stroke-width="1.62504"/><path d="M213.4042,177.1845l-1.2625,-2.9322z" fill="none" stroke="#ffffff" stroke-width="1.62504"/><path d="M248.3465,186.4292l-0.448,-2.077z" fill="none" stroke="#ffffff" stroke-width="1.62504"/><path d="M223.504,184.3522l-2.5249,5.4572" fill="none" stroke="#6148a4" stroke-width="1.62504"/><path d="M238.2466,172.1346h5.0499" fill="none" stroke="#6148a4" stroke-width="1.62504"/><path d="M245.8215,193.5968l-5.0499,1.6698" fill="none" stroke="#6148a4" stroke-width="1.62504"/><path d="M255.4734,187.2844l4.6427,1.6698" fill="none" stroke="#6148a4" stroke-width="1.62504"/><path d="M214.6666,194.4521l-4.1947,1.6697" fill="none" stroke="#6148a4" stroke-width="1.62504"/><path d="M199.9648,186.0219v-3.3802" fill="none" stroke="#6148a4" stroke-width="1.62504"/><path d="M223.952,171.3201l-3.7874,0.4073" fill="none" stroke="#6148a4" stroke-width="1.62504"/><path d="M284.1033,193.5968v-4.6426" fill="none" stroke="#6148a4" stroke-width="1.62504"/><path d="M255.9214,180.972h3.7874" fill="none" stroke="#6148a4" stroke-width="1.62504"/><path d="M255.0662,171.3201h2.5249z" fill="none" stroke="#6148a4" stroke-width="1.62504"/></g><path d="M226.4722,176.8704c-0.4216,-0.4165 -0.9847,-0.8299 -1.5699,-0.8312c-0.6603,-0.0015 -1.2929,0.2572 -1.7308,0.4893c0.075,-10.7502 0.1667,-21.1946 0.2805,-31.1761c0.4137,-0.3977 0.8363,-0.939 1.2436,-0.9584c0.6385,-0.0272 1.4065,0.1079 2.0094,1.1448c-0.094,8.9663 -0.1699,19.8381 -0.2328,31.3316z" fill="#ffffff" stroke="none" stroke-width="1.24326" stroke-linecap="butt"/><path d="M227.1098,158.7965c-0.0433,0.6753 -0.0131,1.4238 -0.0171,1.9505c-0.0091,1.0676 0.2369,2.1585 0.0674,3.2231c-0.026,0.001 -0.0484,0.0021 -0.0756,0.0028c-0.5639,0.014 -1.147,0.0206 -1.735,0.018c-0.8051,-0.0035 -1.4717,-0.02 -2.1497,-0.0438c0.0191,-1.5626 -0.3953,-3.4946 -0.1858,-5.1696c0.542,-0.0057 1.3254,-0.0116 2.1444,-0.0098c0.7259,0.0016 1.4263,0.0154 1.9514,0.0288z" fill="#42b5e8" stroke="none" stroke-width="0.42919" stroke-linecap="butt"/><path d="M226.9098,149.2965c-0.0433,0.6753 -0.0131,1.4238 -0.0171,1.9505c-0.0091,1.0676 0.2369,2.1585 0.0674,3.2231c-0.026,0.001 -0.0484,0.0021 -0.0756,0.0028c-0.5639,0.014 -1.147,0.0206 -1.735,0.018c-0.8051,-0.0035 -1.4717,-0.02 -2.1497,-0.0438c0.0191,-1.5626 -0.3953,-3.4946 -0.1858,-5.1696c0.542,-0.0057 1.3254,-0.0116 2.1444,-0.0098c0.7259,0.0016 1.4263,0.0154 1.9514,0.0288z" fill="#42b5e8" stroke="none" stroke-width="0.42919" stroke-linecap="butt"/><path d="M227.1598,169.1965c-0.0433,0.6753 -0.0131,1.4238 -0.0171,1.9505c-0.0091,1.0676 0.2369,2.1585 0.0674,3.2231c-0.026,0.001 -0.0484,0.0021 -0.0756,0.0028c-0.5639,0.014 -1.147,0.0206 -1.735,0.018c-0.8051,-0.0035 -1.4717,-0.02 -2.1497,-0.0438c0.0191,-1.5626 -0.3953,-3.4946 -0.1858,-5.1696c0.542,-0.0057 1.3254,-0.0116 2.1444,-0.0098c0.7259,0.0016 1.4263,0.0154 1.9514,0.0288z" fill="#42b5e8" stroke="none" stroke-width="0.42919" stroke-linecap="butt"/><path d="M228.0288,144.9111c0.1816,0.0857 0.208,0.1883 0.1452,0.277c-0.5113,9.5265 -0.2178,21.6482 -0.6168,31.1303c-0.0005,0.0106 -0.0069,0.0182 -0.0104,0.0276c0,0.0059 0.001,0.0142 0.001,0.0173c-0.0927,0.4843 -1.7504,0.5009 -2.359,0.5044c-0.8028,0.0043 -2.3772,-0.0706 -2.6905,-0.6018c-0.003,-0.0048 -0.0015,-0.0129 -0.0019,-0.0195c-0.0136,-0.0158 -0.0301,-0.0313 -0.0315,-0.0465c-0.2111,-5.5305 -0.435,-11.027 -0.4102,-16.5336c0.0193,-4.022 -0.0169,-10.59 0.1716,-14.6103c0.0112,-0.2236 0.2853,-0.3459 0.5843,-0.3703c0.5295,-0.2077 1.5368,-0.2555 2.0025,-0.2674c1.1023,-0.0277 2.379,0.0972 3.2157,0.4928zM223.5725,145.1415c-0.0793,1.4997 -0.1349,3.069 -0.1727,4.6844c-0.198,8.5022 0.102,18.3034 0.06,26.2343c0.5462,0.1144 1.0833,0.1915 1.7324,0.2019c0.4745,0.0074 0.9448,-0.0314 1.3991,-0.1078c0.022,-0.0043 0.04,-0.0101 0.061,-0.0154c0.1551,-5.4045 -0.0242,-10.9385 0.0017,-16.3565c0.0119,-2.6731 0.0005,-6.4715 0.0476,-9.8991c0.0231,-1.7273 0.0615,-3.3607 0.125,-4.7081c-0.6065,-0.1567 -1.375,-0.1785 -2.0134,-0.1759c-0.4077,0.0027 -0.8284,0.0832 -1.2407,0.1422z" fill="#66f9ff" stroke="none" stroke-width="0.38875" stroke-linecap="butt"/><path d="M224.81235,144.9493c0.6384,-0.0026 1.41337,0.01951 2.01987,0.17621c-0.0635,1.3474 -0.10005,2.98104 -0.12315,4.70834c-0.0471,3.4276 0.00085,7.25172 -0.01105,9.92482c-0.0259,5.418 0.11443,11.02546 -0.04067,16.42996c-0.021,0.0053 -0.0392,0.01112 -0.0612,0.01542c-0.4543,0.0764 -0.92909,0.11543 -1.40359,0.10803c-0.6491,-0.0104 -1.19178,-0.08777 -1.73798,-0.20217c0.042,-7.9309 -0.26046,-17.83123 -0.06246,-26.33343c0.0378,-1.6154 0.09624,-3.18506 0.17554,-4.68476c0.4123,-0.059 0.83699,-0.13973 1.24469,-0.14243z" data-paper-data="{&quot;noHover&quot;:false,&quot;origItem&quot;:[&quot;Path&quot;,{&quot;applyMatrix&quot;:true,&quot;segments&quot;:[[[223.5725,145.1415],[0.4123,-0.059],[-0.0793,1.4997]],[[223.3998,149.8259],[0.0378,-1.6154],[-0.198,8.5022]],[[223.4598,176.0602],[0.042,-7.9309],[0.5462,0.1144]],[[225.1922,176.2621],[-0.6491,-0.0104],[0.4745,0.0074]],[[226.5913,176.1543],[-0.4543,0.0764],[0.022,-0.0043]],[[226.6523,176.1389],[-0.021,0.0053],[0.1551,-5.4045]],[[226.654,159.7824],[-0.0259,5.418],[0.0119,-2.6731]],[[226.7016,149.8833],[-0.0471,3.4276],[0.0231,-1.7273]],[[226.8266,145.1752],[-0.0635,1.3474],[-0.6065,-0.1567]],[[224.8132,144.9993],[0.6384,-0.0026],[-0.4077,0.0027]]],&quot;closed&quot;:true,&quot;fillColor&quot;:[0,0,0,1]}]}" fill="#66f9ff" stroke="none" stroke-width="0.5" stroke-linecap="butt"/><path d="M238.3278,176.2204c-0.0629,-11.4935 -0.1388,-22.3653 -0.2328,-31.3316c0.6029,-1.0369 1.3709,-1.172 2.0094,-1.1448c0.4073,0.0194 0.8299,0.5607 1.2436,0.9584c0.1138,9.9815 0.2055,20.4259 0.2805,31.1761c-0.4379,-0.2321 -1.0705,-0.4908 -1.7308,-0.4893c-0.5852,0.0013 -1.1483,0.4147 -1.5699,0.8312z" fill="#ffffff" stroke="none" stroke-width="1.24326" stroke-linecap="butt"/><path d="M237.7902,158.1965c0.5251,-0.0134 1.2255,-0.0272 1.9514,-0.0288c0.819,-0.0018 1.6024,0.0041 2.1444,0.0098c0.2095,1.675 -0.2049,3.607 -0.1858,5.1696c-0.678,0.0238 -1.3446,0.0403 -2.1497,0.0438c-0.588,0.0026 -1.1711,-0.004 -1.735,-0.018c-0.0272,-0.0007 -0.0496,-0.0018 -0.0756,-0.0028c-0.1695,-1.0646 0.0765,-2.1555 0.0674,-3.2231c-0.004,-0.5267 0.0262,-1.2752 -0.0171,-1.9505z" fill="#42b5e8" stroke="none" stroke-width="0.42919" stroke-linecap="butt"/><path d="M237.9902,148.5465c0.5251,-0.0134 1.2255,-0.0272 1.9514,-0.0288c0.819,-0.0018 1.6024,0.0041 2.1444,0.0098c0.2095,1.675 -0.2049,3.607 -0.1858,5.1696c-0.678,0.0238 -1.3446,0.0403 -2.1497,0.0438c-0.588,0.0026 -1.1711,-0.004 -1.735,-0.018c-0.0272,-0.0007 -0.0496,-0.0018 -0.0756,-0.0028c-0.1695,-1.0646 0.0765,-2.1555 0.0674,-3.2231c-0.004,-0.5267 0.0262,-1.2752 -0.0171,-1.9505z" fill="#42b5e8" stroke="none" stroke-width="0.42919" stroke-linecap="butt"/><path d="M237.6402,168.5465c0.5251,-0.0134 1.2255,-0.0272 1.9514,-0.0288c0.819,-0.0018 1.6024,0.0041 2.1444,0.0098c0.2095,1.675 -0.2049,3.607 -0.1858,5.1696c-0.678,0.0238 -1.3446,0.0403 -2.1497,0.0438c-0.588,0.0026 -1.1711,-0.004 -1.735,-0.018c-0.0272,-0.0007 -0.0496,-0.0018 -0.0756,-0.0028c-0.1695,-1.0646 0.0765,-2.1555 0.0674,-3.2231c-0.004,-0.5267 0.0262,-1.2752 -0.0171,-1.9505z" fill="#42b5e8" stroke="none" stroke-width="0.42919" stroke-linecap="butt"/><path d="M242.6788,144.2611c0.1816,0.0857 0.208,0.1883 0.1452,0.277c-0.5113,9.5265 -0.2178,21.6482 -0.6168,31.1303c-0.0005,0.0106 -0.0069,0.0182 -0.0104,0.0276c0,0.0059 0.001,0.0142 0.001,0.0173c-0.0927,0.4843 -1.7504,0.5009 -2.359,0.5044c-0.8028,0.0043 -2.3772,-0.0706 -2.6905,-0.6018c-0.003,-0.0048 -0.0015,-0.0129 -0.0019,-0.0195c-0.0136,-0.0158 -0.0301,-0.0313 -0.0315,-0.0465c-0.2111,-5.5305 -0.435,-11.027 -0.4102,-16.5336c0.0193,-4.022 -0.0169,-10.59 0.1716,-14.6103c0.0112,-0.2236 0.2853,-0.3459 0.5843,-0.3703c0.5295,-0.2077 1.5368,-0.2555 2.0025,-0.2674c1.1023,-0.0277 2.379,0.0972 3.2157,0.4928zM238.2225,144.4915c-0.0793,1.4997 -0.1349,3.069 -0.1727,4.6844c-0.198,8.5022 0.102,18.3034 0.06,26.2343c0.5462,0.1144 1.0833,0.1915 1.7324,0.2019c0.4745,0.0074 0.9448,-0.0314 1.3991,-0.1078c0.022,-0.0043 0.04,-0.0101 0.061,-0.0154c0.1551,-5.4045 -0.0242,-10.9385 0.0017,-16.3565c0.0119,-2.6731 0.0005,-6.4715 0.0476,-9.8991c0.0231,-1.7273 0.0615,-3.3607 0.125,-4.7081c-0.6065,-0.1567 -1.375,-0.1785 -2.0134,-0.1759c-0.4077,0.0027 -0.8284,0.0832 -1.2407,0.1422z" fill="#66f9ff" stroke="none" stroke-width="0.38875" stroke-linecap="butt"/><path d="M239.46235,144.2993c0.6384,-0.0026 1.41337,0.01951 2.01987,0.17621c-0.0635,1.3474 -0.10005,2.98104 -0.12315,4.70834c-0.0471,3.4276 0.00085,7.25172 -0.01105,9.92482c-0.0259,5.418 0.11443,11.02546 -0.04067,16.42996c-0.021,0.0053 -0.0392,0.01112 -0.0612,0.01542c-0.4543,0.0764 -0.92909,0.11543 -1.40359,0.10803c-0.6491,-0.0104 -1.19178,-0.08777 -1.73798,-0.20217c0.042,-7.9309 -0.26046,-17.83123 -0.06246,-26.33343c0.0378,-1.6154 0.09624,-3.18506 0.17554,-4.68476c0.4123,-0.059 0.83699,-0.13973 1.24469,-0.14243z" data-paper-data="{&quot;noHover&quot;:false,&quot;origItem&quot;:[&quot;Path&quot;,{&quot;applyMatrix&quot;:true,&quot;segments&quot;:[[[238.2225,144.4915],[0.4123,-0.059],[-0.0793,1.4997]],[[238.0498,149.1759],[0.0378,-1.6154],[-0.198,8.5022]],[[238.1098,175.4102],[0.042,-7.9309],[0.5462,0.1144]],[[239.8422,175.6121],[-0.6491,-0.0104],[0.4745,0.0074]],[[241.2413,175.5043],[-0.4543,0.0764],[0.022,-0.0043]],[[241.3023,175.4889],[-0.021,0.0053],[0.1551,-5.4045]],[[241.304,159.1324],[-0.0259,5.418],[0.0119,-2.6731]],[[241.3516,149.2333],[-0.0471,3.4276],[0.0231,-1.7273]],[[241.4766,144.5252],[-0.0635,1.3474],[-0.6065,-0.1567]],[[239.4632,144.3493],[0.6384,-0.0026],[-0.4077,0.0027]]],&quot;closed&quot;:true,&quot;fillColor&quot;:[0,0,0,1]}]}" fill="#66f9ff" stroke="none" stroke-width="0.5" stroke-linecap="butt"/><path d="M224.3059,141.2648c0.2036,0.6101 0.4919,1.2006 0.6109,1.8327c0.0871,0.4667 0,1.4253 0,1.4253" fill="none" stroke="#000000" stroke-width="1.62901" stroke-linecap="round"/><path d="M239.7815,143.7083c0,0 -0.5123,-0.3404 -0.6109,-0.6108c-0.1865,-0.514 -0.2712,-1.0866 -0.2036,-1.6291c0.0717,-0.575 0.3038,-1.1386 0.6109,-1.629c0.1743,-0.2688 0.4072,-0.2036 0.4072,-0.2036" fill="none" stroke="#000000" stroke-width="1.62901" stroke-linecap="round"/></g></g></svg>