<svg version="1.1" xmlns="http://www.w3.org/2000/svg" xmlns:xlink="http://www.w3.org/1999/xlink" width="52.19018" height="79.10857" viewBox="0,0,52.19018,79.10857"><g transform="translate(-215.0099,-141.84083)"><g data-paper-data="{&quot;isPaintingLayer&quot;:true}" fill-rule="nonzero" stroke="none" stroke-width="0.96133" stroke-linecap="butt" stroke-linejoin="miter" stroke-miterlimit="10" stroke-dasharray="" stroke-dashoffset="0" style="mix-blend-mode: normal"><path d="M263.0762,145.966c-1.6102,1.5949 -0.7652,5.644 -0.9613,8.6519c-10.8697,0.0462 -19.2246,2.4139 -26.9171,0.9614c-1.269,3.7616 -0.5345,8.0395 -0.9613,14.4199c9.2691,0.0615 16.0858,-0.8172 25.9558,-1.9227c2.0235,2.138 -1.0133,4.6355 0,8.6519c-10.5487,0.4942 -17.5779,-0.6017 -25.9558,0.9614c1.8774,5.493 0.5816,14.1593 0.9613,21.1491c8.9211,-1.3333 18.7305,-1.7775 26.9171,-3.8453c0.2701,3.2551 1.5295,5.52 0.9613,9.6133c-13.2499,0.7806 -24.0331,0.9334 -35.569,4.8066c-0.5095,-21.2116 0.7306,-40.7756 -2.884,-61.5248c11.9147,-4.3327 22.6719,-0.0077 38.453,-1.9227z" fill="#ff9400"/><path d="M257.3083,142.1207c3.2012,-0.0058 6.5581,-0.6268 9.6132,0c0.6268,1.2142 0,3.2041 0,4.8066c-0.3201,0 -0.6412,0 -0.9613,0c-1.4401,3.0455 -0.4826,8.4905 -1.9226,11.536c-5.8247,-1.0354 -4.3125,2.4792 -5.768,3.8453l-18.9862,1.2016c-1.9592,0.4384 -0.72,-0.8767 -2.163,2.6437c9.123,2.2946 16.058,-3.0513 25.9558,-1.9227c2.3716,8.0617 -1.6352,15.6821 -4.8066,21.1492c-7.9473,-0.2567 -14.8832,0.4979 -20.1878,2.884c0,2.2427 0,4.4865 0,6.7292c9.4075,-0.8469 19.2669,-1.241 26.9171,-3.8453c3.0224,10.7284 -2.4956,14.9025 -1.9227,22.1105c-14.1074,2.5562 -31.3738,1.9515 -42.2983,7.6906c-0.6412,0 -1.2815,0 -1.9227,0c-2.8138,-26.4749 5.6632,-44.642 -3.8453,-66.3315c0,-0.6412 0,-1.2814 0,-1.9226c6.5986,0.8306 6.9177,-4.6182 8.652,-8.6519c3.9472,-1.1805 9.6084,-0.7518 13.4585,-1.9227c7.7522,0.5739 13.9691,0.0567 20.1879,0zM224.6232,147.8887c3.6146,20.7492 2.3745,40.3132 2.884,61.5248c11.5359,-3.8732 22.3191,-4.026 35.569,-4.8066c0.5682,-4.0933 -0.6912,-6.3582 -0.9613,-9.6133c-8.1866,2.0678 -17.996,2.512 -26.9171,3.8453c-0.3797,-6.9898 0.9161,-15.6561 -0.9613,-21.1491c8.3779,-1.5631 15.4071,-0.4672 25.9558,-0.9614c-1.0133,-4.0164 2.0235,-6.5139 0,-8.6519c-9.87,1.1055 -16.6867,1.9842 -25.9558,1.9227c0.4268,-6.3804 -0.3077,-10.6583 0.9613,-14.4199c7.6925,1.4525 16.0474,-0.9152 26.9171,-0.9614c0.1961,-3.0079 -0.6489,-7.057 0.9613,-8.6519c-15.7811,1.915 -26.5383,-2.41 -38.453,1.9227z" fill="#000000"/></g></g></svg>