<svg version="1.1" xmlns="http://www.w3.org/2000/svg" xmlns:xlink="http://www.w3.org/1999/xlink" width="114.6" height="194.67" viewBox="0,0,114.6,194.67"><g transform="translate(-183.7,-97.165)"><g data-paper-data="{&quot;isPaintingLayer&quot;:true}" fill-rule="nonzero" stroke-miterlimit="10" stroke-dasharray="" stroke-dashoffset="0" style="mix-blend-mode: normal"><g><path d="M255.46,284.92c1.35,-0.09 2.715,-0.21 4.08,-0.33c-1.365,0.12 -2.73,0.24 -4.08,0.33z" fill="none" stroke="none" stroke-width="1" stroke-linecap="butt" stroke-linejoin="miter"/><path d="M241.795,285.505c-10.41,0 -19.95,-0.585 -28.2,-1.395c8.25,0.81 17.79,1.395 28.2,1.395z" fill="none" stroke="none" stroke-width="1" stroke-linecap="butt" stroke-linejoin="miter"/><path d="M259.54,284.59c10.2,-0.945 20.55,-2.415 28.2,-3.63c-7.65,1.215 -17.97,2.685 -28.2,3.63z" fill="none" stroke="none" stroke-width="1" stroke-linecap="butt" stroke-linejoin="miter"/><path d="M213.595,284.125c-8.67,-0.885 -15.93,-2.01 -21.345,-3c5.415,0.99 12.75,2.115 21.345,3z" fill="none" stroke="none" stroke-width="1" stroke-linecap="butt" stroke-linejoin="miter"/><path d="M213.67,284.125c-8.67,-0.885 -15.93,-2.01 -21.345,-3c0.615,-9.555 1.215,-18.375 1.92,-26.61c0.688,0.274 1.395,0.5 2.115,0.675c6.01,1.444 12.33,-0.492 16.5,-5.055c1.947,5.833 7.187,9.941 13.317,10.438c6.129,0.496 11.963,-2.714 14.823,-8.158c2.845,5.483 8.7,8.726 14.857,8.228c6.158,-0.498 11.416,-4.639 13.343,-10.508c4.174,4.557 10.49,6.492 16.5,5.055c3.355,-0.734 6.354,-2.605 8.49,-5.295c1.59,12.285 2.58,23.22 3.09,29.46l-6.63,1.14l-2.91,0.465c-7.65,1.215 -17.97,2.685 -28.2,3.63c-1.365,0.12 -2.73,0.24 -4.08,0.33l-4.035,0.285c-3.33,0.195 -6.63,0.3 -9.63,0.3c-10.41,0 -19.95,-0.585 -28.125,-1.38z" fill="#c0fffc" stroke="none" stroke-width="1" stroke-linecap="butt" stroke-linejoin="miter"/><path d="M194.125,254.5c-0.705,8.235 -1.305,17.055 -1.92,26.61c-3.15,-0.555 -5.7,-1.095 -7.5,-1.5c0.495,-6.18 1.5,-17.235 3.09,-29.7c1.65,2.081 3.84,3.668 6.33,4.59z" fill="#9ef2ed" stroke="none" stroke-width="1" stroke-linecap="butt" stroke-linejoin="miter"/><path d="M187.795,249.91c0.3,-2.31 0.615,-4.68 0.96,-7.065c1.995,-14.19 4.725,-29.295 8.325,-40.68c9.165,-29.04 18.165,-38.16 18.165,-38.16c1.77,0.51 3.465,0.945 5.085,1.305c-9.068,13.67 -15.724,28.795 -19.68,44.715c-3.18,13.17 -4.98,27.585 -6.48,44.475c-2.507,-0.915 -4.713,-2.503 -6.375,-4.59z" fill="#89e5dc" stroke="none" stroke-width="1" stroke-linecap="butt" stroke-linejoin="miter"/><path d="M266.755,164.005c0,0 8.985,9.03 18.105,38.16c3.6,11.385 6.33,26.49 8.325,40.68c0.345,2.385 0.66,4.74 0.945,7.05c-2.136,2.69 -5.135,4.561 -8.49,5.295c-6.01,1.437 -12.326,-0.498 -16.5,-5.055c-1.947,5.833 -7.187,9.941 -13.317,10.438c-6.129,0.496 -11.963,-2.714 -14.823,-8.158c-2.844,5.492 -8.707,8.741 -14.871,8.239c-6.165,-0.501 -11.425,-4.654 -13.344,-10.534c-4.17,4.563 -10.49,6.499 -16.5,5.055c-0.72,-0.175 -1.427,-0.401 -2.115,-0.675c1.44,-16.875 3.33,-31.29 6.48,-44.46c3.959,-15.927 10.62,-31.056 19.695,-44.73c12.795,2.895 20.655,1.65 20.655,1.65c0,0 9.975,1.59 25.755,-2.955z" fill="#9ef2ed" stroke="none" stroke-width="1" stroke-linecap="butt" stroke-linejoin="miter"/><path d="M241,291.235c-16.478,0.106 -32.925,-1.436 -49.095,-4.605c0.12,-1.86 0.225,-3.705 0.345,-5.52c5.415,1.005 12.675,2.13 21.345,3c8.25,0.81 17.79,1.395 28.2,1.395c3.06,0 6.3,-0.105 9.63,-0.3l4.035,-0.285c1.35,-0.09 2.715,-0.21 4.08,-0.33c10.2,-0.945 20.55,-2.415 28.2,-3.63l2.91,-0.465l6.63,-1.14c0.285,3.465 0.42,5.49 0.42,5.49c0,0 -21.555,6.39 -56.7,6.39z" fill="#ffffff" stroke="none" stroke-width="1" stroke-linecap="butt" stroke-linejoin="miter"/><path d="M192.25,281.125c-0.12,1.815 -0.225,3.66 -0.345,5.52c-4.95,-1.02 -7.605,-1.8 -7.605,-1.8c0,0 0.12,-1.92 0.405,-5.235c1.8,0.39 4.35,0.945 7.545,1.515z" fill="#c0fffc" stroke="none" stroke-width="1" stroke-linecap="butt" stroke-linejoin="miter"/><path d="M241.795,285.505c3,0 6.3,-0.105 9.63,-0.3c-3.33,0.195 -6.57,0.3 -9.63,0.3z" fill="#ffffff" stroke="none" stroke-width="1" stroke-linecap="butt" stroke-linejoin="miter"/><path d="M251.425,285.205l4.035,-0.285z" fill="#ffffff" stroke="none" stroke-width="1" stroke-linecap="butt" stroke-linejoin="miter"/><path d="M290.65,280.495l6.63,-1.14v0l-6.63,1.14" fill="#ffffff" stroke="none" stroke-width="1" stroke-linecap="butt" stroke-linejoin="miter"/><path d="M297.7,284.845c0,0 -21.555,6.39 -56.7,6.39c-35.145,0 -56.7,-6.39 -56.7,-6.39c0,0 0.12,-1.92 0.405,-5.235c1.155,-14.175 4.875,-53.835 12.375,-77.445c9.165,-29.16 18.165,-38.16 18.165,-38.16h51.51c0,0 8.985,9.03 18.165,38.16c7.41,23.46 11.175,62.79 12.36,77.19c0.285,3.465 0.42,5.49 0.42,5.49z" fill="#c9a800" stroke="#4181ce" stroke-width="1.2" stroke-linecap="round" stroke-linejoin="round"/><path d="M285.535,230.77c0.42,2.625 0.405,2.79 0.795,5.76" fill="none" stroke="#ffffff" stroke-width="2.4" stroke-linecap="round" stroke-linejoin="round"/><path d="M277.195,198.07c0,0 3.87,8.13 7.305,27" fill="none" stroke="#ffffff" stroke-width="2.4" stroke-linecap="round" stroke-linejoin="round"/></g><g><path d="M220.51,163.96h46.245c-15.765,4.59 -25.755,3 -25.755,3c0,0 -7.875,1.245 -20.67,-1.65c0,0 0.075,-0.45 0.18,-1.305z" fill="#c0fffc" stroke="none" stroke-width="1" stroke-linecap="butt" stroke-linejoin="miter"/><path d="M220.33,165.31c-1.62,-0.36 -3.315,-0.795 -5.085,-1.305h5.265c-0.105,0.855 -0.18,1.305 -0.18,1.305z" fill="#9ef2ed" stroke="none" stroke-width="1" stroke-linecap="butt" stroke-linejoin="miter"/><path d="M241,125.725c0,0 -3.27,-3.39 -11.58,-3.39c8.37,-0.015 11.58,3.39 11.58,3.39z" fill="none" stroke="none" stroke-width="1" stroke-linecap="butt" stroke-linejoin="miter"/><path d="M220.96,123.625c-1.795,0.538 -3.545,1.215 -5.235,2.025c-0.892,-7.987 -2.295,-15.908 -4.2,-23.715c1.559,-0.94 3.219,-1.7 4.95,-2.265c1.962,7.89 3.46,15.889 4.485,23.955z" fill="#c0fffc" stroke="none" stroke-width="1" stroke-linecap="butt" stroke-linejoin="miter"/><path d="M221.05,123.67c-1.029,-8.081 -2.531,-16.095 -4.5,-24c1.88,-0.643 3.828,-1.066 5.805,-1.26c0.218,1.393 0.992,2.638 2.145,3.45c1.434,0.728 3.104,0.836 4.62,0.3c0.06,1.628 0.995,3.097 2.445,3.84c2.64,1.14 5.19,-1.095 5.19,-1.095c0.729,1.697 2.398,2.797 4.245,2.797c1.847,0 3.516,-1.1 4.245,-2.797c0,0 2.55,2.235 5.19,1.095c1.446,-0.74 2.38,-2.202 2.445,-3.825c1.532,0.572 3.234,0.479 4.695,-0.255c1.154,-0.798 1.929,-2.034 2.145,-3.42c3.976,0.326 7.79,1.721 11.04,4.035c-1.95,8.34 -3.615,14.205 -4.5,23.115c-4.269,-2.09 -8.943,-3.226 -13.695,-3.33c-8.31,0 -11.505,3.45 -11.565,3.39c-0.06,-0.06 -3.27,-3.39 -11.58,-3.39c-2.84,0.052 -5.658,0.506 -8.37,1.35z" fill="#ffffff" stroke="none" stroke-width="1" stroke-linecap="butt" stroke-linejoin="miter"/><path d="M220.48,164.005h-5.28c0,0 1.26,-18.075 0.99,-28.905v-1.155c-0.105,-2.745 -0.255,-5.52 -0.465,-8.295c1.69,-0.81 3.44,-1.487 5.235,-2.025c0.484,3.903 0.769,7.828 0.855,11.76c0.227,9.559 -0.209,19.122 -1.305,28.62z" fill="#9ef2ed" stroke="none" stroke-width="1" stroke-linecap="butt" stroke-linejoin="miter"/><path d="M252.535,122.32c4.757,0.104 9.435,1.241 13.71,3.33c-0.21,2.775 -0.375,5.55 -0.48,8.295c0,0.375 0,0.765 0,1.155c-0.285,10.83 0.975,28.905 0.975,28.905h-46.215c1.096,-9.498 1.532,-19.061 1.305,-28.62c-0.086,-3.932 -0.371,-7.857 -0.855,-11.76c2.743,-0.837 5.592,-1.277 8.46,-1.305c8.37,0 11.565,3.405 11.565,3.405c0,0 3.195,-3.405 11.535,-3.405z" fill="#c0fffc" stroke="none" stroke-width="1" stroke-linecap="butt" stroke-linejoin="miter"/><path d="M229.42,122.32c-2.868,0.028 -5.717,0.468 -8.46,1.305c2.743,-0.837 5.592,-1.277 8.46,-1.305z" fill="#c0fffc" stroke="none" stroke-width="1" stroke-linecap="butt" stroke-linejoin="miter"/><path d="M215.725,125.65c1.69,-0.81 3.44,-1.487 5.235,-2.025c-1.795,0.538 -3.545,1.215 -5.235,2.025z" fill="#c0fffc" stroke="none" stroke-width="1" stroke-linecap="butt" stroke-linejoin="miter"/><path d="M252.565,122.305c-8.37,0 -11.565,3.405 -11.565,3.405c0,-0.06 3.255,-3.39 11.565,-3.405z" fill="#c0fffc" stroke="none" stroke-width="1" stroke-linecap="butt" stroke-linejoin="miter"/><path d="M222.28,98.41l4.74,-0.645c0,0 4.395,3.555 13.98,3.555c9.585,0 13.98,-3.495 13.98,-3.495l4.74,0.675c-0.22,1.38 -0.995,2.611 -2.145,3.405c-1.461,0.734 -3.163,0.827 -4.695,0.255c-0.06,1.628 -0.995,3.097 -2.445,3.84c-2.64,1.14 -5.19,-1.095 -5.19,-1.095c-0.729,1.697 -2.398,2.797 -4.245,2.797c-1.847,0 -3.516,-1.1 -4.245,-2.797c0,0 -2.55,2.235 -5.19,1.095c-1.435,-0.771 -2.341,-2.257 -2.37,-3.885c-1.532,0.572 -3.234,0.479 -4.695,-0.255c-1.181,-0.798 -1.984,-2.045 -2.22,-3.45z" fill="#ffffff" stroke="#4181ce" stroke-width="0.795" stroke-linecap="round" stroke-linejoin="round"/><path d="M216.505,131.32c3.674,-1.795 7.733,-2.66 11.82,-2.52c4.47,0.144 8.831,1.419 12.675,3.705c3.862,-2.26 8.219,-3.537 12.69,-3.72c4.082,0.023 8.102,0.993 11.745,2.835" fill="none" stroke="#ffffff" stroke-width="1.2" stroke-linecap="round" stroke-linejoin="round"/><path d="M266.725,164.005c-15.765,4.59 -25.755,3 -25.755,3c0,0 -9.99,1.5 -25.755,-3c0,0 1.26,-18.075 0.975,-28.905c0,-0.39 0,-0.78 0,-1.155c-0.105,-2.745 -0.27,-5.52 -0.465,-8.295c-0.893,-7.986 -2.296,-15.908 -4.2,-23.715c3.279,-1.959 6.953,-3.163 10.755,-3.525l4.74,-0.645c0,0 4.395,3.555 13.98,3.555c9.585,0 13.98,-3.495 13.98,-3.495l4.74,0.675c3.971,0.329 7.78,1.723 11.025,4.035c-1.95,8.34 -3.615,14.205 -4.5,23.115c-0.195,2.775 -0.36,5.55 -0.465,8.295c0,0.375 0,0.765 0,1.155c-0.285,10.83 0.975,28.905 0.945,28.905z" fill="#c9a800" stroke="#4181ce" stroke-width="1.2" stroke-linecap="round" stroke-linejoin="round"/></g><g><path d="M236.305,172.135c-1.305,2.865 -5.49,6.465 -7.98,8.01c-2.49,1.545 -4.695,-0.375 -5.49,-8.01c-0.48,-4.515 -0.57,-8.58 1.395,-8.88c2.46,-0.375 12.075,5.49 12.075,5.49z" fill="#c9a800" stroke="#ff7bd0" stroke-width="0.96" stroke-linecap="round" stroke-linejoin="round"/><path d="M245.695,168.745c0,0 9.615,-5.865 12.075,-5.49c1.965,0.3 1.875,4.365 1.395,8.88c-0.795,7.635 -3,9.555 -5.49,8.01c-2.49,-1.545 -6.675,-5.145 -7.98,-8.01z" fill="#c9a800" stroke="#ff7bd0" stroke-width="0.96" stroke-linecap="round" stroke-linejoin="round"/><path d="M236.305,166.255h9.39v5.445h-9.39z" fill="#ffff4f" stroke="none" stroke-width="1" stroke-linecap="butt" stroke-linejoin="miter"/><path d="M236.305,164.65h9.39v1.605h-9.39z" fill="#ffffff" stroke="none" stroke-width="1" stroke-linecap="butt" stroke-linejoin="miter"/><path d="M236.305,166.255c-4.617,-2.45 -9.405,-4.566 -14.325,-6.33c0.6,-1.335 1.35,-2.265 2.25,-2.265c2.49,0 12.075,6.99 12.075,6.99z" fill="#ffffff" stroke="none" stroke-width="1" stroke-linecap="butt" stroke-linejoin="miter"/><path d="M236.305,166.255v5.52c-1.905,1.47 -10.275,5.235 -13.08,5.235c-2.1,0 -2.895,-5.295 -2.895,-8.76c0.047,-2.827 0.606,-5.622 1.65,-8.25c4.918,1.74 9.706,3.83 14.325,6.255z" fill="#ffff4f" stroke="none" stroke-width="1" stroke-linecap="butt" stroke-linejoin="miter"/><path d="M245.695,166.255v-1.605c0,0 9.585,-6.99 12.075,-6.99c0.825,0 1.515,0.765 2.085,1.92c-5.13,1.92 -14.16,6.675 -14.16,6.675z" fill="#ffffff" stroke="none" stroke-width="1" stroke-linecap="butt" stroke-linejoin="miter"/><path d="M259.855,159.58c1.158,2.72 1.774,5.639 1.815,8.595c0,3.465 -0.795,8.76 -2.895,8.76c-2.805,0 -11.175,-3.735 -13.08,-5.235v-5.445c0,0 9.03,-4.755 14.16,-6.675z" fill="#ffff4f" stroke="none" stroke-width="1" stroke-linecap="butt" stroke-linejoin="miter"/><path d="M231.82,166.645l4.485,0.615" fill="none" stroke="#ff7bd0" stroke-width="0.795" stroke-linecap="round" stroke-linejoin="round"/><path d="M236.305,169.24l-4.485,0.6" fill="none" stroke="#ff7bd0" stroke-width="0.795" stroke-linecap="round" stroke-linejoin="round"/><path d="M250.18,166.585l-4.485,0.6" fill="none" stroke="#ff7bd0" stroke-width="0.795" stroke-linecap="round" stroke-linejoin="round"/><path d="M250.18,169.78l-4.485,-0.615" fill="none" stroke="#ff7bd0" stroke-width="0.795" stroke-linecap="round" stroke-linejoin="round"/><path d="M236.305,164.65h9.39v7.05h-9.39z" fill="#c9a800" stroke="#ff7bd0" stroke-width="0.96" stroke-linecap="round" stroke-linejoin="round"/><path d="M236.305,171.685c-1.905,1.47 -10.275,5.235 -13.08,5.235c-2.1,0 -2.895,-5.325 -2.895,-8.76c0,-3.435 1.41,-10.5 3.9,-10.5c2.49,0 12.075,6.99 12.075,6.99z" fill="#c9a800" stroke="#ff7bd0" stroke-width="0.96" stroke-linecap="round" stroke-linejoin="round"/><path d="M245.695,164.65c0,0 9.585,-6.99 12.075,-6.99c2.49,0 3.9,7.065 3.9,10.5c0,3.435 -0.795,8.76 -2.895,8.76c-2.805,0 -11.175,-3.765 -13.08,-5.235z" fill="#c9a800" stroke="#ff7bd0" stroke-width="0.96" stroke-linecap="round" stroke-linejoin="round"/></g><text transform="translate(247.51845,227.9152) scale(0.5,0.5)" font-size="40" xml:space="preserve" fill="#003aff" fill-rule="nonzero" stroke="none" stroke-width="1" stroke-linecap="butt" stroke-linejoin="miter" stroke-miterlimit="10" stroke-dasharray="" stroke-dashoffset="0" font-family="Sans Serif" font-weight="normal" text-anchor="start" style="mix-blend-mode: normal"><tspan x="0" dy="0"> </tspan></text></g></g></svg>