<svg version="1.1" xmlns="http://www.w3.org/2000/svg" xmlns:xlink="http://www.w3.org/1999/xlink" width="791.28902" height="596.57201" viewBox="0,0,791.28902,596.57201"><defs><linearGradient x1="232.2109" y1="212.95212" x2="248.1033" y2="758.87012" gradientUnits="userSpaceOnUse" id="color-1"><stop offset="0" stop-color="#ffffff"/><stop offset="1" stop-color="#29abe2"/></linearGradient></defs><g transform="translate(141.001,93.57199)"><g data-paper-data="{&quot;isPaintingLayer&quot;:true}" fill-rule="nonzero" stroke-linecap="butt" stroke-linejoin="miter" stroke-miterlimit="10" stroke-dasharray="" stroke-dashoffset="0" style="mix-blend-mode: normal"><path d="M650.0369,439.34501c0,1.104 -0.99991,2 -2.23193,2h-768.52817c-1.23203,0 -2.23193,-0.896 -2.23193,-2v-530.667c0,-1.104 0.99991,-2 2.23193,-2h768.52929c1.23203,0 2.23193,0.896 2.23193,2v530.667z" fill="#a9ebff" stroke="#000000" stroke-width="0.5"/><path d="M-141.001,251.84302c0,0 431.133,-95.999 756.667,22.923v228.234h-756.667z" fill="url(#color-1)" stroke="none" stroke-width="1"/><g stroke="#000000" stroke-width="0.25"><path d="M506.263,167.66602c-2.94,3.594 -16.219,4.79 -16.219,4.79c15.57,30.542 53.299,54.498 53.299,54.498c-4.194,2.395 -19.164,4.788 -19.164,4.788c7.187,10.78 41.918,20.363 41.918,20.363c-0.595,5.989 -22.754,21.707 -22.754,21.707c23.355,12.725 46.111,16.619 46.111,16.619c-98.212,83.84 -187.121,35.931 -187.121,35.931c17.685,-13.775 32.017,-42.517 32.017,-42.517c-8.982,2.396 -23.563,0 -23.563,0c21.352,-14.373 29.552,-45.514 29.552,-45.514c-8.983,4.789 -19.671,4.789 -19.671,4.789c18.052,-19.761 17.775,-59.577 17.775,-59.577c-5.389,5.391 -10.081,3.885 -10.081,3.885c19.764,-33.536 10.181,-97.319 10.181,-97.319c39.523,59.582 67.721,77.558 67.72,77.557z" fill="#13600f"/><path d="M473.576,175.21802c4.366,0.184 8.712,-1.203 12.608,-3.168c2.172,-1.096 4.23,-3.45 6.855,-3.45c2.531,0 2.014,1.874 3.568,0.231c1.494,-1.579 3.551,-1.766 5.604,-1.752c0.008,-0.016 0.011,-0.03 0.016,-0.046c0.185,-0.573 0.482,-1.058 0.856,-1.451c-0.863,-0.606 -1.125,-2.087 -0.256,-2.8c3.826,-3.133 8.146,-1.835 9.847,2.804c1.456,3.961 -1.259,5.875 -4.362,6.158c-0.491,1.42 -1.585,2.378 -3.298,2.471c-1.153,0.065 -3.719,-0.572 -4.673,0.232c-0.984,0.825 -1.898,1.613 -3.167,1.965c-2.209,0.606 -4.038,-1.104 -5.028,-2.834c0.178,0.311 -7.501,2.303 -7.718,2.367c-3.54,1.058 -7.421,1.318 -10.993,0.32c-0.572,-0.16 -0.47,-1.072 0.141,-1.047z" fill="#fdfdfd"/><path d="M425.791,182.03502c5.536,-2.134 11.814,-2.219 16.415,-6.261c2.506,-2.203 5.144,-3.417 8.32,-4.287c3.604,-0.989 6.039,-0.754 9.344,-3.158c2.433,-1.771 4.073,-1.783 6.99,-1.286c0.726,0.125 0.546,1.29 -0.172,1.269c-6.674,-0.197 -4.963,4.07 -9.447,5.716c-2.664,0.977 -5.193,1.457 -7.722,2.853c-3.12,1.72 -5.444,5.599 -8.346,7.825c-2.675,2.053 -6.442,2.715 -9.782,3.782c-0.72,1.417 -2.253,2.385 -4.379,1.86c-0.8,-0.199 -1.481,-0.506 -2.187,-0.927c-3.208,-1.931 -2.195,-6.164 0.966,-7.386z" fill="#fdfdfd"/><path d="M452.789,148.04201c3.742,-0.849 5.488,-3.204 8.528,-5.019c2.214,-1.323 4.73,-1.324 6.932,-2.789c2.298,-1.533 5.305,-1.818 8.029,-1.153c0.726,-0.547 1.645,-0.809 2.521,-0.616c1.057,-0.281 2.23,0.051 2.987,1.378c0.727,1.274 0.936,2.126 1.118,3.57c0.105,0.848 -0.179,1.498 -0.645,1.982c-0.759,2.054 -3.98,3.109 -5.675,1.295c-1.495,-1.602 -4.805,-0.763 -6.8,-0.781c-2.569,-0.022 -5.126,-1.633 -7.583,-0.003c-3.181,2.113 -5.674,4.636 -9.528,3.01c-0.387,-0.164 -0.258,-0.788 0.116,-0.874z" fill="#fdfdfd"/><path d="M440.079,88.69302c2.636,4.325 6.558,7.493 9.604,11.489c2.528,3.311 3.082,7.14 5.187,10.618c0.716,1.182 -0.452,2.256 -1.606,2.092c-2.014,-0.285 -3.19,-1.485 -4.092,-2.982c-0.729,0.681 -1.829,0.962 -2.916,0.346c-0.165,-0.174 -0.315,-0.321 -0.46,-0.459c-0.017,0.022 -0.035,0.044 -0.05,0.065c-0.357,-0.359 -0.725,-0.63 -1.097,-0.861c-0.362,-0.057 -0.47,0.326 -0.31,1.175c0.006,2.762 -4.389,3.499 -4.916,0.666c-0.944,-5.088 -0.368,-9.767 -2.199,-14.725c-0.177,-0.477 -0.195,-0.901 -0.103,-1.269c-0.597,-1.071 -1.242,-2.159 -1.909,-3.311c-1.824,-3.155 2.976,-5.941 4.867,-2.844z" fill="#fdfdfd"/><path d="M418.641,237.55701l1.185,-0.347c1.092,-0.32 2.036,-0.158 2.808,0.273c5.262,0.154 11.319,0.316 15.368,-3.036c1.782,-1.471 4.608,-3.78 7.129,-3.521c4.539,0.466 8.736,-0.072 13.435,-0.391c0.023,-0.141 0.066,-0.278 0.081,-0.422c0.165,-0.889 1.057,-1.727 1.923,-1.923c2.607,-0.593 5.849,0.172 8.025,-1.393c0.325,-0.235 0.834,-0.262 1.206,-0.157c5.436,1.494 6.479,2.307 11.39,0.286c0.613,-0.251 1.074,0.663 0.628,1.082c-2.333,2.188 -5.203,4.045 -8.613,2.991c-3.316,-1.023 -2.337,-1.294 -4.397,0.767c-1.12,1.121 -3.368,1.234 -5.186,1.452c-0.063,0.257 -0.109,0.498 -0.193,0.771c-0.405,1.31 -1.423,1.938 -2.727,2.078c-5.817,0.626 -10.285,5.678 -15.923,1.586c-1.421,-1.032 -8.121,3.891 -10.027,4.688c-4.81,2.009 -9.946,2.375 -15.073,2.891c-4.518,0.456 -5.13,-6.475 -1.039,-7.675z" fill="#fdfdfd"/><path d="M503.195,232.83902c4.933,1.497 5.841,-3.567 10.204,-3.567c1.735,0 2.673,0.459 3.971,1.462c-0.002,-0.002 4.312,-0.842 4.656,-0.854c7.038,-0.234 13.91,-5.349 20.991,-6.414c1.851,-0.281 3.748,0.142 4.729,1.923c0.068,0.123 0.137,0.245 0.203,0.368c0.793,1.439 0.614,3.25 -0.571,4.425c-2.366,2.348 -7.4,1.814 -10.522,2.475c-3.57,0.753 -7.203,2.143 -10.881,2.183c-3.399,0.038 -8.531,1.937 -11.377,-0.512c-2.028,-1.748 -5.554,1.203 -7.795,1.646c-1.542,0.307 -3.097,-0.623 -4.408,-1.237c-1.078,-0.503 -0.31,-2.236 0.8,-1.898z" fill="#fdfdfd"/><path d="M459.826,204.69202c2.9,-0.746 6.313,-0.045 8.61,-2.42c0.606,-0.626 1.936,-1.191 2.744,-1.11c4.309,0.44 7.208,2.421 11.79,-1.624c2.04,-1.802 2.907,-4.686 5.823,-5.488c1.27,-0.351 2.989,0.116 4.13,0.61c2.958,1.284 3.108,-1.931 4.414,-3.236c2.505,-2.506 5.472,-1.567 7.828,0.201c4.348,-0.657 7.883,2.251 7.575,7.183c-0.149,2.405 -3.198,3.061 -4.317,1.151c-0.012,0.011 -0.022,0.02 -0.036,0.028c-0.74,-0.127 -1.484,-0.252 -2.226,-0.377c-1.571,0.91 -3.624,0.661 -4.908,-0.634c-0.729,-0.737 -5.27,1.56 -7.55,1.256c-5.458,-0.721 -7.665,3.641 -12.287,5.521c-3.245,1.318 -6.702,0.197 -9.671,-1.133c-1.178,-0.527 -3.409,1.918 -4.369,2.182c-2.205,0.607 -5.002,-0.148 -7.275,-0.068c-1.178,0.04 -1.404,-1.751 -0.275,-2.042z" fill="#fdfdfd"/><path d="M412.811,278.534c1.009,0.806 2.05,0.929 3.129,0.374c1.434,-1.291 3.662,-1.824 5.384,-0.695c5.802,3.812 15.952,-0.365 22.759,-0.031c3.115,0.153 3.763,-2.614 6.622,-3.399c1.687,-0.465 6.916,1.79 7.735,0.205c0.62,-1.197 2.438,-2.054 3.741,-1.522c2.911,1.187 14.882,2.69 16.898,-0.682c0.283,-0.473 1.058,-0.285 1.047,0.283c-0.064,3.247 -1.055,4.888 -4.407,5.446c-3.878,0.646 -8.154,1.656 -12.24,1.598c-1.076,2.061 -2.619,3.154 -5.574,3.477c-2.368,0.259 -3.979,-2.509 -6.06,0.097c-1.011,1.264 -2.73,2.146 -4.32,2.3c-5.75,0.562 -11.238,0.693 -16.996,1.693c-3.808,0.661 -7.443,0.766 -10.893,-0.472c-2.786,1.669 -5.441,1.479 -9.258,0.154c-5.579,-1.938 -3.042,-10.924 2.433,-8.826z" fill="#fdfdfd"/><path d="M494.537,286.26c4.336,0.461 6.925,-4.383 10.936,-5.219c1.005,-0.208 2.028,0.491 2.888,0.861c2.631,1.139 6.302,-1.185 8.595,-2.258c4.369,-2.047 7.624,-8.234 12.195,-9.177c3.541,-0.73 6.095,-0.046 8.71,1.542c1.188,-0.88 2.507,-1.393 4.25,-1.753c5.311,-1.092 6.43,-6.567 9.772,-9.91c2.454,-2.455 5.376,-2.791 7.395,-6.318c0.758,-1.32 1.771,-2.327 2.926,-3.16c0.515,-2.329 2.573,-4.354 5.515,-3.535c2.519,0.702 3.402,2.104 4.229,4.47c0.867,2.478 -0.975,4.734 -3.15,5.554c-4.747,1.787 -5.747,7.54 -11.273,8.998c-1.84,0.484 -4.439,3.414 -6.243,4.386c-3.467,1.867 -7.738,4.056 -10.102,7.327c-1.117,1.544 -2.882,2.146 -4.636,1.216c-4.562,-2.417 -10.612,4.724 -15.23,5.495c-3.629,0.605 -7.401,1.233 -11.093,1.172c-3.975,-0.067 -4.889,-1.575 -8.957,0.853c-2.627,1.567 -4.215,1.448 -6.868,-0.021c-0.234,-0.13 -0.146,-0.554 0.141,-0.523z" fill="#fdfdfd"/><path d="M400.387,321.47401c-0.156,-0.008 -0.312,-0.015 -0.471,-0.021c0.836,0.103 1.615,0.408 2.297,0.851c-0.878,-1.442 6.676,0.875 8.026,1.509c1.674,0.785 3.031,1.762 4.236,2.9c9.205,-2.18 21.64,6.753 29.737,9.021c9.595,2.687 21.927,-1.002 31.734,-1.122c5.563,-0.069 10.552,-0.749 15.96,-2.007c4.848,-1.13 9.884,-0.37 14.356,-3.04c6.079,-3.624 12.775,-4.527 19.024,-7.56c1.584,-0.768 7.448,-0.422 8.336,-1.76c1.217,-1.836 2.796,-3.79 5.039,-4.407c2.893,-0.796 5.238,0.582 7.579,-1.902c2.504,-2.663 6.087,-2.911 8.663,-5.441c3.525,-3.464 7.846,-7.21 12.744,-8.397c2.369,-2.874 5.653,-2.304 9.588,-5.414c2.147,-1.699 4.321,-2.464 6.925,-3.088c3.096,-0.743 4.36,-3.044 6.941,-4.362c2.249,-1.15 5.183,1.267 3.648,3.647c-0.947,1.471 -1.217,5.565 -4.943,8.115c-4.123,2.82 -9.604,5.173 -14.639,6.91c-0.719,2.033 -2.396,3.314 -4.58,3.401c-2.746,0.109 -5.343,3.963 -7.399,5.435c-3.536,2.523 -9.647,1.859 -12.059,5.61c-3.007,4.679 -8.827,1.642 -11.213,5.735c-2.944,5.051 -8.254,2.393 -12.047,5.244c-2.217,1.669 -4.421,2.537 -7.066,3.283c-3.743,1.056 -7.021,3.034 -10.683,4.098c-16.34,4.744 -32.824,3.327 -49.572,3.698c-7.741,0.171 -15.113,0.464 -22.566,-1.853c-2.564,-0.796 -7.048,-0.317 -9.932,-0.83c-2.778,-0.49 -8.304,-4.338 -10.788,-1.406c-2.716,3.205 -7.145,1.558 -9.268,-1.195c-3.666,-4.747 -12.201,-2.604 -13.992,-9.271c-1.033,-3.865 2.557,-7.369 6.385,-6.381z" fill="#fdfdfd"/></g><g stroke="#000000" stroke-width="0.25"><path d="M96.66034,-12.87644c0,0 -9.583,63.783 10.181,97.319c0,0 -4.692,1.506 -10.081,-3.885c0,0 -0.277,39.816 17.775,59.577c0,0 -10.688,0 -19.671,-4.789c0,0 8.2,31.141 29.552,45.514c0,0 -14.581,2.396 -23.563,0c0,0 14.332,28.742 32.017,42.517c0,0 -88.909,47.909 -187.121,-35.931c0,0 22.756,-3.894 46.111,-16.619c0,0 -22.159,-15.718 -22.754,-21.707c0,0 34.731,-9.583 41.918,-20.363c0,0 -14.97,-2.393 -19.164,-4.788c0,0 37.729,-23.956 53.299,-54.498c0,0 -13.279,-1.196 -16.219,-4.79c-0.001,0 28.196,-17.975 67.72,-77.557z" fill="#13600f"/><path d="M61.76734,73.27855c-3.572,0.998 -7.453,0.738 -10.993,-0.32c-0.217,-0.064 -7.896,-2.056 -7.718,-2.367c-0.99,1.73 -2.819,3.44 -5.028,2.834c-1.269,-0.352 -2.183,-1.14 -3.167,-1.965c-0.954,-0.804 -3.52,-0.167 -4.673,-0.232c-1.713,-0.093 -2.807,-1.051 -3.298,-2.471c-3.103,-0.283 -5.818,-2.197 -4.362,-6.158c1.701,-4.639 6.021,-5.937 9.847,-2.804c0.869,0.713 0.607,2.194 -0.256,2.8c0.374,0.393 0.671,0.878 0.856,1.451c0.005,0.016 0.008,0.03 0.016,0.046c2.053,-0.014 4.11,0.173 5.604,1.752c1.554,1.643 1.037,-0.231 3.568,-0.231c2.625,0 4.683,2.354 6.855,3.45c3.896,1.965 8.242,3.352 12.608,3.168c0.612,-0.024 0.713,0.888 0.141,1.047z" fill="#fdfdfd"/><path d="M110.37834,86.43556c-0.706,0.421 -1.387,0.728 -2.187,0.927c-2.126,0.525 -3.659,-0.443 -4.379,-1.86c-3.34,-1.067 -7.107,-1.729 -9.782,-3.782c-2.902,-2.226 -5.226,-6.105 -8.346,-7.825c-2.529,-1.396 -5.058,-1.876 -7.722,-2.853c-4.484,-1.646 -2.773,-5.913 -9.447,-5.716c-0.718,0.021 -0.898,-1.144 -0.172,-1.269c2.917,-0.497 4.557,-0.485 6.99,1.286c3.305,2.404 5.74,2.169 9.344,3.158c3.176,0.87 5.814,2.084 8.32,4.287c4.601,4.042 10.879,4.127 16.415,6.261c3.161,1.221 4.173,5.455 0.966,7.386z" fill="#fdfdfd"/><path d="M82.53034,45.93056c-3.854,1.626 -6.347,-0.897 -9.528,-3.01c-2.457,-1.63 -5.014,-0.019 -7.583,0.003c-1.995,0.018 -5.305,-0.821 -6.8,0.781c-1.695,1.814 -4.916,0.759 -5.675,-1.295c-0.466,-0.484 -0.75,-1.134 -0.645,-1.982c0.182,-1.444 0.391,-2.296 1.118,-3.57c0.757,-1.327 1.93,-1.659 2.987,-1.378c0.876,-0.193 1.795,0.069 2.521,0.616c2.724,-0.665 5.731,-0.38 8.029,1.153c2.202,1.465 4.718,1.466 6.932,2.789c3.04,1.815 4.786,4.17 8.528,5.019c0.374,0.085 0.502,0.71 0.116,0.874z" fill="#fdfdfd"/><path d="M99.99134,-11.44944c-0.667,1.152 -1.311,2.24 -1.909,3.311c0.091,0.368 0.074,0.793 -0.103,1.269c-1.831,4.958 -1.255,9.638 -2.199,14.725c-0.527,2.832 -4.922,2.095 -4.916,-0.666c0.16,-0.849 0.051,-1.232 -0.31,-1.175c-0.372,0.231 -0.741,0.502 -1.097,0.861c-0.015,-0.022 -0.033,-0.044 -0.05,-0.065c-0.145,0.138 -0.295,0.284 -0.46,0.459c-1.087,0.616 -2.187,0.336 -2.916,-0.346c-0.903,1.497 -2.078,2.697 -4.092,2.982c-1.154,0.163 -2.322,-0.91 -1.606,-2.092c2.106,-3.478 2.66,-7.306 5.187,-10.618c3.045,-3.995 6.967,-7.164 9.604,-11.489c1.891,-3.096 6.691,-0.31 4.867,2.844z" fill="#fdfdfd"/><path d="M115.52334,142.24556c-5.127,-0.516 -10.263,-0.882 -15.073,-2.891c-1.906,-0.797 -8.606,-5.72 -10.027,-4.688c-5.638,4.092 -10.106,-0.96 -15.923,-1.586c-1.304,-0.14 -2.322,-0.768 -2.727,-2.078c-0.084,-0.273 -0.13,-0.514 -0.193,-0.771c-1.818,-0.218 -4.066,-0.331 -5.186,-1.452c-2.06,-2.061 -1.081,-1.79 -4.397,-0.767c-3.41,1.054 -6.28,-0.803 -8.613,-2.991c-0.446,-0.419 0.015,-1.333 0.628,-1.082c4.911,2.021 5.954,1.208 11.39,-0.286c0.372,-0.105 0.881,-0.078 1.206,0.157c2.176,1.565 5.418,0.8 8.025,1.393c0.866,0.196 1.758,1.034 1.923,1.923c0.015,0.144 0.058,0.281 0.081,0.422c4.699,0.319 8.896,0.857 13.435,0.391c2.521,-0.259 5.347,2.05 7.129,3.521c4.049,3.352 10.106,3.19 15.368,3.036c0.772,-0.431 1.716,-0.593 2.808,-0.273l1.185,0.347c4.091,1.2 3.478,8.131 -1.039,7.675z" fill="#fdfdfd"/><path d="M32.80734,131.75055c-1.311,0.614 -2.866,1.544 -4.408,1.237c-2.241,-0.443 -5.767,-3.394 -7.795,-1.646c-2.846,2.449 -7.978,0.55 -11.377,0.512c-3.678,-0.04 -7.311,-1.43 -10.881,-2.183c-3.122,-0.661 -8.156,-0.127 -10.522,-2.475c-1.185,-1.175 -1.364,-2.986 -0.571,-4.425c0.066,-0.123 0.135,-0.245 0.203,-0.368c0.981,-1.781 2.878,-2.204 4.729,-1.923c7.081,1.065 13.953,6.18 20.991,6.414c0.344,0.012 4.658,0.852 4.656,0.854c1.298,-1.003 2.236,-1.462 3.971,-1.462c4.363,0 5.271,5.064 10.204,3.567c1.111,-0.337 1.878,1.396 0.8,1.898z" fill="#fdfdfd"/><path d="M75.10134,103.74856c-2.273,-0.08 -5.07,0.675 -7.275,0.068c-0.96,-0.264 -3.191,-2.709 -4.369,-2.182c-2.969,1.33 -6.426,2.451 -9.671,1.133c-4.622,-1.88 -6.829,-6.242 -12.287,-5.521c-2.28,0.304 -6.821,-1.993 -7.55,-1.256c-1.284,1.295 -3.337,1.544 -4.908,0.634c-0.742,0.125 -1.486,0.25 -2.226,0.377c-0.014,-0.008 -0.024,-0.017 -0.036,-0.028c-1.119,1.91 -4.168,1.254 -4.317,-1.151c-0.308,-4.932 3.227,-7.84 7.575,-7.183c2.356,-1.768 5.323,-2.707 7.828,-0.201c1.306,1.305 1.456,4.52 4.414,3.236c1.141,-0.494 2.86,-0.961 4.13,-0.61c2.916,0.802 3.783,3.686 5.823,5.488c4.582,4.045 7.481,2.064 11.79,1.624c0.808,-0.081 2.138,0.484 2.744,1.11c2.297,2.375 5.71,1.674 8.61,2.42c1.129,0.291 0.904,2.082 -0.275,2.042z" fill="#fdfdfd"/><path d="M124.82534,184.37456c-3.817,1.325 -6.472,1.515 -9.258,-0.154c-3.45,1.238 -7.085,1.133 -10.893,0.472c-5.758,-1 -11.246,-1.131 -16.996,-1.693c-1.59,-0.154 -3.309,-1.036 -4.32,-2.3c-2.081,-2.606 -3.692,0.162 -6.06,-0.097c-2.955,-0.323 -4.498,-1.416 -5.574,-3.477c-4.086,0.058 -8.362,-0.952 -12.24,-1.598c-3.352,-0.558 -4.343,-2.199 -4.407,-5.446c-0.011,-0.568 0.764,-0.756 1.047,-0.283c2.016,3.372 13.987,1.869 16.898,0.682c1.303,-0.532 3.121,0.325 3.741,1.522c0.819,1.585 6.048,-0.67 7.735,-0.205c2.859,0.785 3.507,3.552 6.622,3.399c6.807,-0.334 16.957,3.843 22.759,0.031c1.722,-1.129 3.95,-0.596 5.384,0.695c1.079,0.555 2.12,0.432 3.129,-0.374c5.475,-2.099 8.012,6.887 2.433,8.826z" fill="#fdfdfd"/><path d="M40.80634,183.79656c-2.653,1.469 -4.241,1.588 -6.868,0.021c-4.068,-2.428 -4.982,-0.92 -8.957,-0.853c-3.692,0.061 -7.464,-0.567 -11.093,-1.172c-4.618,-0.771 -10.668,-7.912 -15.23,-5.495c-1.754,0.93 -3.519,0.328 -4.636,-1.216c-2.364,-3.271 -6.635,-5.46 -10.102,-7.327c-1.804,-0.972 -4.403,-3.902 -6.243,-4.386c-5.526,-1.458 -6.526,-7.211 -11.273,-8.998c-2.175,-0.82 -4.017,-3.076 -3.15,-5.554c0.827,-2.366 1.71,-3.768 4.229,-4.47c2.942,-0.819 5,1.206 5.515,3.535c1.155,0.833 2.168,1.84 2.926,3.16c2.019,3.527 4.941,3.863 7.395,6.318c3.342,3.343 4.461,8.818 9.772,9.91c1.743,0.36 3.062,0.873 4.25,1.753c2.615,-1.588 5.169,-2.272 8.71,-1.542c4.571,0.943 7.826,7.13 12.195,9.177c2.293,1.073 5.964,3.397 8.595,2.258c0.86,-0.37 1.883,-1.069 2.888,-0.861c4.011,0.836 6.6,5.68 10.936,5.219c0.288,-0.031 0.375,0.394 0.141,0.523z" fill="#fdfdfd"/><path d="M141.20134,224.86856c-1.791,6.667 -10.326,4.524 -13.992,9.271c-2.123,2.753 -6.552,4.4 -9.268,1.195c-2.484,-2.932 -8.01,0.916 -10.788,1.406c-2.884,0.513 -7.368,0.034 -9.932,0.83c-7.453,2.317 -14.825,2.024 -22.566,1.853c-16.748,-0.371 -33.232,1.046 -49.572,-3.698c-3.662,-1.064 -6.94,-3.042 -10.683,-4.098c-2.645,-0.746 -4.849,-1.614 -7.066,-3.283c-3.793,-2.851 -9.103,-0.193 -12.047,-5.244c-2.386,-4.093 -8.206,-1.056 -11.213,-5.735c-2.412,-3.751 -8.523,-3.087 -12.059,-5.61c-2.056,-1.472 -4.653,-5.326 -7.399,-5.435c-2.184,-0.087 -3.861,-1.368 -4.58,-3.401c-5.035,-1.737 -10.516,-4.09 -14.639,-6.91c-3.726,-2.55 -3.996,-6.644 -4.943,-8.115c-1.535,-2.38 1.399,-4.797 3.648,-3.647c2.581,1.318 3.845,3.619 6.941,4.362c2.604,0.624 4.778,1.389 6.925,3.088c3.935,3.11 7.219,2.54 9.588,5.414c4.898,1.187 9.219,4.933 12.744,8.397c2.576,2.53 6.159,2.778 8.663,5.441c2.341,2.484 4.686,1.106 7.579,1.902c2.243,0.617 3.822,2.571 5.039,4.407c0.888,1.338 6.752,0.992 8.336,1.76c6.249,3.033 12.945,3.936 19.024,7.56c4.472,2.67 9.508,1.91 14.356,3.04c5.408,1.258 10.397,1.938 15.96,2.007c9.807,0.12 22.139,3.809 31.734,1.122c8.097,-2.268 20.532,-11.201 29.737,-9.021c1.205,-1.138 2.562,-2.115 4.236,-2.9c1.35,-0.634 8.904,-2.951 8.026,-1.509c0.682,-0.443 1.461,-0.748 2.297,-0.851c-0.159,0.006 -0.315,0.013 -0.471,0.021c3.828,-0.987 7.418,2.517 6.385,6.381z" fill="#fdfdfd"/></g></g></g></svg>