<svg version="1.1" xmlns="http://www.w3.org/2000/svg" xmlns:xlink="http://www.w3.org/1999/xlink" width="45.34222" height="44.56227" viewBox="0,0,45.34222,44.56227"><g transform="translate(-217.2655,-158.12313)"><g data-paper-data="{&quot;isPaintingLayer&quot;:true}" fill-rule="evenodd" stroke="none" stroke-width="1" stroke-linecap="butt" stroke-linejoin="miter" stroke-miterlimit="10" stroke-dasharray="" stroke-dashoffset="0" style="mix-blend-mode: normal"><path d="M246.51201,161.05841l-3.112,4.38053l-6.9,-0.5615l-4.328,-4.89425c0,0 2.696,-1.40575 2.696,-1.4615c1.212,-0.60531 3.66,-0.35841 5.028,-0.29469c0.628,0.03186 4.288,0.04381 4.628,0.59735c0.268,0.43009 1.988,2.23407 1.988,2.23407z" fill="#000000"/><path d="M261.37601,187.25796c-2.672,6.54292 -7.072,12.29336 -14.272,14.05354c-0.104,-0.14336 -4.904,-7.10841 -4.904,-7.10841c2.028,-1.84381 3.216,-3.55619 5.532,-5.02965c2.94,-1.8677 6.6,-4.24513 9.524,-6.14071z" fill="#ab00df"/><path d="M235.68001,188.58407l-0.428,5.88186c-0.092,1.28628 -0.736,4.72699 -0.736,4.72699c0,0 -2.536,1.38584 -3.336,1.4854c-1.248,0.16726 -3.624,-1.31416 -4.676,-1.99115c-3.528,-2.26195 -5.644,-5.81018 -7.384,-9.50177l5.54,-6.59867c0.204,-0.21106 10.776,5.83805 11.02,5.99735z" fill="#000000"/><path d="M235.38401,163.45177l-3.284,8.76106c0,0 -5.304,3.50442 -6.576,4.30088c0,0 -6.116,-2.23805 -6.14,-2.30973c-0.084,-0.03186 -0.484,-2.42124 -0.592,-2.46504c0.892,-3.21372 3.136,-6.19248 5.644,-8.36283c1.224,-1.05929 4.256,-2.80752 5.728,-3.49248c0.488,-0.21903 3.236,0.57743 3.236,0.57743z" fill="#ab00df"/><path d="M247.10001,201.31947c-2.46677,0.8584 -5.0553,1.31951 -7.668,1.36593c-1.46592,-0.00297 -2.9274,-0.16049 -4.36,-0.46991c-1.108,-0.24292 -3.204,-0.64115 -4.044,-1.43761c0.791,-1.43562 1.71359,-2.79539 2.756,-4.06195c0.552,-0.60929 3.868,-4.5677 5.94,-4.86637l4.288,4.87035z" fill="#000000"/><path d="M255.65601,184.11991l-7.928,5.05752c0,0 -9.228,-3.04646 -9.228,-3.61195c0,-0.08363 -0.36,-12.01858 -0.36,-12.09823c-0.108,-0.44602 9.956,-5.74646 10.252,-5.99735c0.296,-0.25088 8.268,7.57035 8.568,7.31549c0.252,-0.21106 -1.304,9.33451 -1.304,9.33451z" fill="#000000"/><path d="M238.45601,183.79336c0,0 -2.18,2.46106 -2.34,2.78761c0.048,-0.15929 -4.86,2.10664 -4.86,2.10664c0,0 -5.484,-2.70398 -8.244,-5.57522v-7.9646c0.128,-0.08761 8.236,-5.32434 8.352,-5.41195l5.144,1.00752l1.88,5.79027z" fill="#ab00df"/><path d="M236.11601,186.57313c-0.00157,-0.00927 -0.00157,-0.01873 0,-0.028z" fill="#f0e6d2"/><path d="M233.80001,196.70796c0,0 -2.276,-6.57478 -2.584,-8.02434c1.96,-2.07478 7.232,-4.93009 7.232,-4.93009c3.056,1.75619 6.432,3.3531 9.272,5.42389c-0.764,2.62035 -2.512,5.09336 -3.716,7.54646c-1.976,0.49779 -8.864,-0.05177 -10.204,-0.01593z" fill="#ab00df"/><path d="M250.60001,160.83142h-0.032v0z" fill="#f0e6d2"/><path d="M260.16001,170.34513l-5.164,4.12168c-2.644,-1.30221 -8.896,-4.77876 -8.896,-4.77876l-4.064,-2.96681l0.56,-3.04248c0,0 1.936,-2.84336 2.736,-3.40885c0.348,-0.23894 2.196,-0.76858 2.524,-0.45398c0.496,-0.12743 2.3,0.78451 2.728,0.99159h-0.108c0.652,0.17124 7.824,5.74646 9.388,8.9323c0.024,0.05177 0.268,0.52566 0.296,0.60531z" fill="#000000"/><path d="M246.14001,169.82345c0,0 -7.068,6.24823 -7.436,6.55885c-0.08754,0.06041 -0.18143,0.11115 -0.28,0.15133c-0.344,-0.17124 -4.108,-3.7115 -4.576,-4.18142c-0.468,-0.46991 -0.9,-0.97965 -1.332,-1.4854c-0.204,-0.23496 -0.948,-0.88407 -1.116,-1.1469l4,-6.24425c0.064,-0.09159 7.2,0.21903 7.2,0.21903z" fill="#000000"/><path d="M261.37201,187.25398c-2.05223,-0.75731 -3.97895,-1.81641 -5.716,-3.14204c-0.036,-0.55752 -0.996,-9.70885 -0.996,-9.90398c0.832,-0.75265 4.72,-3.89469 5.504,-3.86283c2.084,4.81062 3.636,11.9469 1.208,16.90885z" fill="#000000"/><path d="M224.25201,184.26726l-5.04,4.97389l-0.096,-0.03982c-2.588,-5.51549 -2.236,-11.81549 -0.332,-17.43053c0.912,0.44204 4.924,2.62434 5.064,2.78761c0.06,0.0677 0.388,9.60531 0.404,9.70885z" fill="#000000"/><path d="M234.92401,158.46991l-1.548,1.99115c-0.44,-0.06372 -2.088,-0.29071 -2.528,-0.35044c-0.232,-0.03186 -0.464,-0.08363 -0.696,-0.12743v-0.09956c0.184,-0.06372 0.36,-0.1354 0.544,-0.19513c0.468,-0.15531 0.936,-0.3146 1.408,-0.46195c0.308,-0.09558 0.62,-0.17124 0.928,-0.25885c0.20791,-0.04757 0.41133,-0.11285 0.608,-0.19513c0.41567,-0.14708 0.84622,-0.24857 1.284,-0.30265z" fill="#000000"/><path d="M245.00001,160.53274c0,0 -0.312,-1.14292 -0.484,-1.70841c1.08208,0.24915 2.15023,0.55489 3.2,0.91593v0.09159c-0.084,0.03982 -2.716,0.70088 -2.716,0.70088z" fill="#000000"/></g></g></svg>