<svg version="1.1" xmlns="http://www.w3.org/2000/svg" xmlns:xlink="http://www.w3.org/1999/xlink" width="71.96" height="85.35" viewBox="0,0,71.96,85.35"><g transform="translate(-205,-138)"><g data-paper-data="{&quot;isPaintingLayer&quot;:true}" fill-rule="nonzero" stroke="none" stroke-width="1" stroke-linecap="butt" stroke-linejoin="miter" stroke-miterlimit="10" stroke-dasharray="" stroke-dashoffset="0" style="mix-blend-mode: normal"><path d="M276.96,151.2c0,1.65 -0.3,3.3 -0.88,4.93c-1.58,4.67 -5.11,7.97 -9.67,9.25c-0.32,2.11 -0.91,5.63 -2.03,11.87c-0.03,0.14 -0.05,0.28 -0.08,0.42c-0.96,4.34 -2.33,10.95 -4.05,19.65c-0.33,1.97 -0.75,3.88 -1.26,5.67c-0.4,2.16 -0.83,4.3 -1.28,6.39c-0.03,0.15 -0.07,0.31 -0.11,0.46c-1.54,5.89 -5.22,10.23 -10.36,12.22c-0.06,0.02 -0.11,0.04 -0.16,0.06c-2.28,0.84 -4.22,1.23 -6.13,1.23c-2.62,0 -5.07,-0.76 -7.11,-2.21c-1.69,-1.17 -3.56,-2.71 -4.81,-5.19c-0.49,-0.98 -0.83,-2.03 -1.01,-3.12c-0.02,-0.09 -0.11,-0.61 -0.42,-1.87c-0.29,-0.83 -0.99,-2.82 -2.1,-5.96c-0.07,-0.21 -0.14,-0.43 -0.2,-0.64c-0.34,-1.18 -0.87,-2.97 -1.59,-5.37c-0.77,-2.34 -1.51,-4.75 -2.22,-7.17c-1.14,-3.55 -2.81,-8.9 -5.08,-16.3c-1.41,-0.28 -2.79,-0.72 -4.11,-1.34c-0.82,-0.39 -1.59,-0.87 -2.3,-1.45c-3.18,-2.6 -5,-6.44 -5,-10.54c0,-6.09 3.67,-11.26 9.36,-13.16c0.07,-0.02 0.13,-0.04 0.2,-0.06c3.24,-1.01 6.06,-1.6 8.59,-1.77c0.74,-0.16 1.58,-0.31 2.55,-0.46c0.85,-0.13 1.72,-0.15 2.57,-0.08c0.14,-0.01 0.5,-0.05 1.14,-0.18c1.79,-0.36 3.13,-0.57 4.24,-0.67c0.23,-0.37 0.48,-0.73 0.75,-1.07c1.75,-2.2 5.06,-4.94 10.87,-5.55c0.09,-0.01 0.18,-0.02 0.26,-0.03c1.37,-0.11 3.48,-0.31 6.33,-0.59c0.19,-0.02 0.39,-0.03 0.59,-0.04c1.28,-0.06 3,-0.12 5.17,-0.17c1.7,-0.14 2.79,-0.23 3.27,-0.28c0.45,-0.05 0.91,-0.08 1.37,-0.08c9.65,0 14.7,6.64 14.7,13.2z" fill="#ff0000"/><path d="M265.693,152.517c-0.527,1.643 -1.759,2.463 -3.694,2.463c-0.411,0 -1.231,-0.058 -2.463,-0.176c-0.998,-0.116 -1.759,-0.146 -2.287,-0.088c-0.118,0.06 -0.294,0.176 -0.527,0.352c-0.176,0.88 -0.471,3.05 -0.88,6.51c-0.235,1.994 -0.998,6.567 -2.287,13.722c-0.998,4.516 -2.375,11.201 -4.134,20.055c-0.294,1.818 -0.675,3.519 -1.144,5.102c-0.411,2.229 -0.851,4.429 -1.319,6.598c-0.646,2.463 -1.877,4.046 -3.694,4.75c-1.583,0.585 -2.61,0.703 -3.079,0.352c-0.763,-0.527 -1.202,-0.91 -1.319,-1.144c-0.118,-0.703 -0.352,-1.759 -0.703,-3.166c-0.118,-0.353 -0.88,-2.521 -2.287,-6.51c-0.352,-1.231 -0.91,-3.107 -1.671,-5.63c-0.764,-2.345 -1.496,-4.719 -2.199,-7.124c-1.174,-3.636 -2.962,-9.382 -5.366,-17.24c-0.41,-2.053 -1.114,-4.516 -2.11,-7.389c-2.463,0.587 -4.047,0.879 -4.75,0.879c-0.998,0 -1.936,-0.204 -2.814,-0.615c-0.646,-0.528 -0.968,-1.201 -0.968,-2.023c0,-1.407 0.615,-2.315 1.847,-2.727c2.815,-0.88 5.102,-1.319 6.861,-1.319c0.585,-0.176 1.465,-0.352 2.639,-0.528c1.056,0.118 2.463,0 4.222,-0.352c1.76,-0.352 2.932,-0.527 3.519,-0.527c0.88,0 1.672,0.176 2.375,0.527c0.586,0.528 0.88,1.203 0.88,2.023c0,1.466 -0.704,2.405 -2.111,2.814c-1.29,0.06 -3.05,0.439 -5.277,1.144c0.117,2.054 0.381,3.725 0.792,5.014c0.879,2.639 2.11,6.305 3.694,10.995c0.058,0.587 0.204,1.379 0.439,2.375c1.231,4.692 3.312,11.318 6.245,19.879c0.352,-0.819 0.792,-2.429 1.319,-4.828c0.645,-3.395 1.056,-5.414 1.231,-6.059c1.056,-4.097 1.964,-8.281 2.727,-12.555c1.113,-5.853 1.7,-8.925 1.76,-9.218c0.761,-3.687 1.289,-6.643 1.583,-8.867c0.233,-1.639 0.439,-3.248 0.615,-4.829c-0.059,-0.058 -0.118,-0.116 -0.176,-0.176c-3.988,0.06 -6.157,0.06 -6.509,0c-0.527,0 -1.231,-0.462 -2.111,-1.387c0,-0.058 0.044,-0.145 0.132,-0.26c0.089,-0.115 0.161,-0.203 0.221,-0.261c-0.06,-0.347 -0.03,-0.837 0.088,-1.474c0.645,-0.808 1.788,-1.3 3.431,-1.474c1.407,-0.115 3.576,-0.317 6.509,-0.607c1.289,-0.058 3.048,-0.115 5.277,-0.173c2.814,-0.23 4.163,-0.347 4.046,-0.347c2.463,0 3.694,0.734 3.694,2.199c-0.003,0.412 -0.091,0.852 -0.267,1.32z" fill="#ffffff"/></g></g></svg>