<svg version="1.1" xmlns="http://www.w3.org/2000/svg" xmlns:xlink="http://www.w3.org/1999/xlink" width="60.65476" height="49.68528" viewBox="0,0,60.65476,49.68528"><g transform="translate(-209.35725,-155.34119)"><g data-paper-data="{&quot;isPaintingLayer&quot;:true}" fill-rule="nonzero" stroke-linecap="butt" stroke-linejoin="miter" stroke-miterlimit="10" stroke-dasharray="" stroke-dashoffset="0" style="mix-blend-mode: normal"><path d="M209.35725,205.02647v-49.68528h60.65476v49.68528z" fill="#717171" stroke="none" stroke-width="0"/><path d="M238.98361,194.33855c1.9287,1.9268 1.9287,5.054 0,6.9823c-1.9278,1.9296 -5.0541,1.9296 -6.9837,0c-7.6132,-7.6133 -17.5745,-17.575 -17.5745,-17.575c-1.9282,-1.9278 -1.9282,-5.0545 0,-6.9832c0,0 11.543,-11.5443 17.7163,-17.7167c1.9282,-1.9287 5.0541,-1.9282 6.9837,0c1.9286,1.9282 1.9286,5.0545 0,6.9832c-7.6133,7.6128 -9.2636,9.2829 -9.2636,9.2829c0,0 24.5814,0.0102 33.3107,0.0102c2.7274,0 4.9382,2.2104 4.9382,4.9378c0,2.7269 -2.2108,4.9382 -4.9382,4.9382c-10.412,0 -33.3375,-0.0097 -33.3375,-0.0097c0,0 2.9752,2.9748 9.1486,9.15z" fill="#f70000" stroke="#717171" stroke-width="1.15823"/></g></g></svg>