<svg version="1.1" xmlns="http://www.w3.org/2000/svg" xmlns:xlink="http://www.w3.org/1999/xlink" width="140.99804" height="48.6109" viewBox="0,0,140.99804,48.6109"><g transform="translate(-169.00321,-174.85114)"><g data-paper-data="{&quot;isPaintingLayer&quot;:true}" fill-rule="nonzero" stroke-linejoin="miter" stroke-miterlimit="10" stroke-dasharray="" stroke-dashoffset="0" style="mix-blend-mode: normal"><path d="M200.463,213.984c23.826,-5.019 61.596,-3.998 67.816,0c1.218,0.783 -0.452,2.084 -0.604,3.4c-0.148,1.361 0.15,2.766 -1.203,3.402c-2.459,1.191 -4.363,-0.766 -7.223,-1.021c-6.521,-0.638 -10.133,-1.274 -16.652,-1.531c-15.199,-0.594 -23.727,-1.443 -38.924,0.682z" fill="#007b00" stroke="none" stroke-width="1" stroke-linecap="butt"/><path d="M182.106,211.688c-3.812,-1.189 -7.875,0.979 -11.537,-2.125c-3.06,-2.594 -0.201,-8.761 4.113,-9.016c-0.552,-5.697 0.2,-11.013 6.821,-12.162c7.825,-1.361 14.797,0 22.772,0.936c14.797,1.787 20.113,0 34.911,0c0,-4.295 1.103,-11.651 1.103,-11.651c0,0 12.841,8.846 13.342,11.65c0.352,1.963 13.442,-2.041 18.86,-2.041c9.079,0 14.495,0.511 22.37,4.423c3.712,1.827 4.766,3.358 7.123,6.464c2.007,2.636 1.154,6.208 4.814,6.208c3.713,7.653 -4.814,9.228 -11.234,10.205c-6.371,0.979 -3.461,-8.589 -9.229,-11.142c-7.224,-3.23 -13.394,-2.764 -19.16,2.127c-3.661,3.104 -3.411,7.144 -4.014,11.396c-21.567,-2.892 -37.468,-1.955 -53.67,-1.955c-0.602,-2.638 -1.053,-3.828 -2.006,-6.464c-1.605,-4.338 -4.965,-6.721 -10.232,-7.4c-7.674,-1.019 -15.147,3.957 -15.147,10.547z" fill="#1ccc42" stroke="none" stroke-width="1" stroke-linecap="butt"/><path d="M254.789,188.605c6.746,-0.797 23.105,-3.242 31.383,-1.549c11.493,2.351 14.999,7.572 19.531,16.23c1.318,-0.133 2.486,-0.11 3.253,0.939c1.369,1.871 1.513,5.541 -0.289,7.295c-2.554,2.48 -12.685,3.363 -16.528,3.984c-0.723,-1.531 -1.81,-10.102 -8.914,-12.382c-4.442,-1.426 -10.056,-0.116 -13.649,2.321c-4.665,3.166 -4.875,7.4 -5.271,12.064c-2.89,0.119 -6.01,-0.771 -8.908,-1.05c-15.642,-1.498 -31.389,-1.469 -47.105,-0.651c0.278,-2.014 -0.824,-8.147 -4.772,-11.535c-4.997,-4.289 -18.631,-1.682 -20.407,4.268c-0.466,1.557 -0.255,2.499 -0.301,4.082c-2.658,0.298 -4.89,0.244 -7.537,-0.053c-4.873,-0.545 -5.518,-3.211 -6.07,-5.147c-0.531,-1.86 -0.06,-4.22 1.963,-5.278c0.484,-0.254 1.168,-0.584 1.546,0.021c0.66,1.06 -1.193,2.173 -1.34,3.312c-0.674,5.236 5.397,5.693 10.033,5.19c-0.201,-8.08 14.52,-14.442 22.25,-8.478c3.394,2.619 6.395,7.152 6.641,11.965c12.22,-1.405 37.083,-0.897 51.344,1.623c0.398,-3.782 2.441,-8.949 5.664,-11.767c3.945,-3.448 10.864,-4.265 15.233,-3.384c5.798,1.166 9.258,7.282 10.224,12.005c1.188,0.036 9.863,-0.636 11.172,-1.036c3.766,-1.16 3.092,-5.887 3.092,-5.887c0,0 -3.047,0.363 -3.463,-0.025c-0.414,-0.39 -1.086,-3.009 -1.086,-3.009l-9.084,0.99l-1.156,-7.263l6.062,-0.992c-10.486,-10.805 -43.965,-4.613 -44.496,-4.75c-3.797,-4.107 -11.925,-11.415 -12.686,-11.354c-0.762,0.061 -1.404,7.615 -1.477,11.444c-1.608,0.229 -13.364,0.525 -17.719,0.465c-10.449,-0.146 -20.843,-1.087 -31.217,-2.084c-5.64,-0.541 -12.235,-0.004 -15.149,4.782c1.374,0.716 6.236,1.8 6.236,1.8l-0.394,5.732l-8.579,-0.639c-1.767,-1.92 -1.112,-4.711 0.028,-6.773c0.96,-1.739 3.466,-4.577 5.407,-5.568c6.116,-3.119 21.093,-0.431 24.569,-0.056c9.728,1.05 31.129,1.097 34.646,0.812c0.548,-0.38 0.451,-11.875 2.338,-12.214c1.888,-0.338 14.982,11.6 14.982,11.6z" fill="#272525" stroke="none" stroke-width="1" stroke-linecap="butt"/><path d="M251.51,190.628l-10.066,0.183c0,0 -0.344,-9.256 0.541,-9.511c0.885,-0.257 9.525,9.328 9.525,9.328z" fill="#272525" stroke="none" stroke-width="1" stroke-linecap="butt"/><path d="M248.124,189.289l-4.74,-0.016c-0.185,-1.654 -0.552,-4.616 -0.028,-4.784c0.52,-0.169 3.289,3.24 4.768,4.8z" fill="#99ffff" stroke="none" stroke-width="1" stroke-linecap="butt"/><path d="M217.587,192.939c-0.024,1.02 -0.191,15.362 -0.207,16.147c-0.016,0.786 -1.854,1.044 -1.851,0.125c0.003,-0.918 0.643,-15.098 0.61,-16.123c-0.031,-1.024 1.473,-1.167 1.448,-0.149z" fill="#272525" stroke="none" stroke-width="1" stroke-linecap="butt"/><path d="M179.82,199.143l-4.872,-0.416l0.104,-2.623l4.735,0.782z" fill="#ffaa00" stroke="none" stroke-width="1" stroke-linecap="butt"/><path d="M254.25,192.887c0.012,0.682 0.083,15.127 -0.068,15.937c-0.15,0.81 -1.715,0.663 -1.762,-0.058c-0.046,-0.721 0.512,-15.07 0.628,-15.824c0.119,-0.756 1.193,-0.736 1.202,-0.055z" fill="#272525" stroke="none" stroke-width="1" stroke-linecap="butt"/><path d="M212.309,209.527c-0.667,0.623 -3.919,-7.077 -6.625,-9.819c-3.35,-3.396 -9.94,-2.888 -14.421,-1.526c-0.866,0.264 -3.432,1.842 -4.096,1.808c-0.529,-0.026 -0.203,-0.572 -0.044,-0.72c2.243,-2.078 6.276,-3.274 9.465,-3.672c10.364,-1.289 15.496,6.192 15.721,13.929z" fill="#272525" stroke="none" stroke-width="1" stroke-linecap="butt"/><path d="M226.962,196.73l0.134,3.877l-8.193,0.139l0.026,-3.885z" fill="#272525" stroke="none" stroke-width="1" stroke-linecap="butt"/><path d="M288.455,200.727c0.126,0.574 -1.207,0.271 -1.551,-0.065c-7.786,-7.687 -22.471,-4.734 -26.014,9.057c-0.179,0.693 -2.466,0.357 -2.236,-0.85c3.64,-19.286 28.267,-15.124 29.801,-8.142z" fill="#272525" stroke="none" stroke-width="1" stroke-linecap="butt"/><path d="M225.875,197.811l-0.328,2.014l-5.325,-0.018l0.172,-2.094z" fill="#007b00" stroke="none" stroke-width="1" stroke-linecap="butt"/><path d="M302.021,201.389l-6.244,0.639l-0.527,-4.221c0,0 3.973,-0.586 4.675,-0.279c0.712,0.309 2.096,3.861 2.096,3.861z" fill="#fff400" stroke="none" stroke-width="1" stroke-linecap="butt"/><path d="M181.424,208.73l-8.681,-0.212l0.571,-5.206l7.15,0.226z" fill="#272525" stroke="none" stroke-width="1" stroke-linecap="butt"/><path d="M179.438,205.027l0.231,2.022l-5.71,0.01l0.494,-2.579z" fill="#fff400" stroke="none" stroke-width="1" stroke-linecap="butt"/><path d="M262.66,211.857c0.701,0.176 0.13,1.672 -0.434,1.482c-2.593,-0.861 -13.599,-1.919 -15.343,-1.975c-12.477,-0.398 -25.118,0.553 -37.52,1.644c-0.556,0.05 -0.928,-0.698 -0.274,-0.981c2.307,-0.996 42.468,-2.948 53.571,-0.17z" fill="#272525" stroke="none" stroke-width="1" stroke-linecap="butt"/><path d="M290.729,212.975c0.576,8.765 -10.371,13.201 -18.728,8.713c-1.534,-0.823 -2.44,-1.979 -3.498,-3.209c-6.685,-7.776 3.412,-16 13.728,-13.928c4.015,0.806 8.232,4.408 8.498,8.424z" fill="#272525" stroke="none" stroke-width="1" stroke-linecap="butt"/><path d="M281.133,221.716c-3.762,0.414 -9.324,-1.653 -11.021,-4.583c-1,-1.722 -1.443,-5.562 -0.014,-7.17c4.063,-4.564 12.898,-5.48 17.237,-0.15c4.129,5.07 -0.097,11.23 -6.202,11.903z" fill="#3815d9" stroke="none" stroke-width="1" stroke-linecap="butt"/><path d="M286.031,212.508c1.422,2.812 -2.237,7.295 -5.785,7.518c-4.444,0.276 -7.771,-2.349 -8.407,-4.952c-0.94,-3.854 4.623,-8.892 10.08,-6.343c2.626,1.224 3.647,2.86 4.112,3.777z" fill="#272525" stroke="none" stroke-width="1" stroke-linecap="butt"/><path d="M273.889,214.448c-0.242,-3.78 6.109,-6.255 9.172,-3.483c1.112,1.008 1.461,2.202 1.297,3.503c-0.792,6.283 -10.161,4.875 -10.469,-0.02z" fill="#ffffff" stroke="none" stroke-width="1" stroke-linecap="butt"/><path d="M270.586,215.516l16.051,-3.063l0.502,1.276l-16.553,2.55z" fill="#272525" stroke="none" stroke-width="1" stroke-linecap="butt"/><path d="M281.375,221.055l-5.27,-13.212l1.445,-0.557l4.721,13.691z" fill="#272525" stroke="none" stroke-width="1" stroke-linecap="butt"/><path d="M207.263,211.784c0.577,8.764 -10.372,13.2 -18.726,8.712c-1.534,-0.823 -2.164,-1.114 -3.221,-2.346c-6.685,-7.776 3.134,-16.863 13.45,-14.791c4.016,0.809 8.233,4.411 8.497,8.425z" fill="#272525" stroke="none" stroke-width="1" stroke-linecap="butt"/><path d="M197.668,220.525c-3.729,0.592 -9.324,-1.653 -11.023,-4.584c-0.999,-1.721 -1.399,-5.532 -0.012,-7.17c5.103,-6.015 12.898,-5.48 17.237,-0.15c4.129,5.07 -1.337,11.132 -6.202,11.904z" fill="#3815d9" stroke="none" stroke-width="1" stroke-linecap="butt"/><path d="M202.566,211.316c1.423,2.812 -2.237,7.295 -5.784,7.518c-4.446,0.275 -7.771,-2.348 -8.407,-4.952c-0.941,-3.854 4.623,-8.892 10.08,-6.343c2.626,1.227 3.648,2.861 4.111,3.777z" fill="#272525" stroke="none" stroke-width="1" stroke-linecap="butt"/><path d="M190.423,213.258c-0.621,-3.75 6.111,-6.255 9.173,-3.482c1.113,1.007 1.46,2.201 1.297,3.502c-0.789,6.284 -9.759,4.279 -10.47,-0.02z" fill="#ffffff" stroke="none" stroke-width="1" stroke-linecap="butt"/><path d="M187.582,209.918l15.428,4.842l-0.399,1.302l-15.521,-5.503z" fill="#272525" stroke="none" stroke-width="1" stroke-linecap="butt"/><path d="M193.072,219.544l4.069,-13.515l1.568,0.2l-4.833,13.664z" fill="#272525" stroke="none" stroke-width="1" stroke-linecap="butt"/><path d="M199.071,212.084c0.712,1.406 -1.118,3.646 -2.892,3.759c-2.223,0.14 -3.885,-1.174 -4.204,-2.477c-0.471,-1.929 2.312,-4.446 5.04,-3.171c1.313,0.614 1.823,1.431 2.056,1.889z" fill="#272525" stroke="none" stroke-width="1" stroke-linecap="butt"/><path d="M192.999,213.055c-0.31,-1.875 3.055,-3.128 4.587,-1.742c0.556,0.504 0.73,1.103 0.648,1.752c-0.394,3.141 -4.879,2.139 -5.235,-0.01z" fill="#a4b9bc" stroke="none" stroke-width="1" stroke-linecap="butt"/><path d="M282.535,213.275c0.712,1.406 -1.118,3.646 -2.893,3.758c-2.223,0.138 -3.886,-1.174 -4.203,-2.477c-0.471,-1.928 2.312,-4.445 5.039,-3.172c1.315,0.614 1.827,1.43 2.057,1.891z" fill="#272525" stroke="none" stroke-width="1" stroke-linecap="butt"/><path d="M276.464,214.245c-0.414,-1.861 3.056,-3.128 4.587,-1.741c0.555,0.503 0.729,1.102 0.648,1.75c-0.394,3.142 -4.937,1.329 -5.235,-0.009z" fill="#a4b9bc" stroke="none" stroke-width="1" stroke-linecap="butt"/><path d="M233.52442,181.1639c0,2.93415 -3.22362,5.31275 -7.20016,5.31275c-3.97654,0 -7.20016,-2.3786 -7.20016,-5.31275c0,-2.93415 3.22362,-5.31276 7.20016,-5.31276c3.97654,0 7.20016,2.37861 7.20016,5.31276z" fill="#ffffff" stroke="#000000" stroke-width="2" stroke-linecap="butt"/><path d="M227.94427,183.95542l0.36003,15.48807" fill="none" stroke="#000000" stroke-width="2" stroke-linecap="round"/><path d="M229.92432,190.61885l9.72022,-6.84355" fill="none" stroke="#000000" stroke-width="2" stroke-linecap="round"/></g></g></svg>